<ttFont>
    <TTGlyph name=".notdef" xMin="108" yMin="-220" xMax="677" yMax="1030">
      <contour>
        <pt x="108" y="1030" on="1"/>
        <pt x="677" y="1030" on="1"/>
        <pt x="677" y="-220" on="1"/>
        <pt x="108" y="-220" on="1"/>
      </contour>
      <contour>
        <pt x="633" y="-177" on="1"/>
        <pt x="633" y="988" on="1"/>
        <pt x="151" y="988" on="1"/>
        <pt x="151" y="-177" on="1"/>
      </contour>
    </TTGlyph>
    <TTGlyph name="A" xMin="11" yMin="0" xMax="675" yMax="740">
      <contour>
        <pt x="11" y="5" on="1"/>
        <pt x="308" y="740" on="1"/>
        <pt x="378" y="740" on="1"/>
        <pt x="675" y="5" on="1"/>
        <pt x="675" y="0" on="1"/>
        <pt x="631" y="0" on="1"/>
        <pt x="532" y="245" on="1"/>
        <pt x="154" y="245" on="1"/>
        <pt x="55" y="0" on="1"/>
        <pt x="11" y="0" on="1"/>
      </contour>
      <contour>
        <pt x="516" y="285" on="1"/>
        <pt x="395" y="587" on="1"/>
        <pt x="345" y="709" on="1"/>
        <pt x="341" y="709" on="1"/>
        <pt x="291" y="587" on="1"/>
        <pt x="170" y="285" on="1"/>
      </contour>
    </TTGlyph>
    <TTGlyph name="A.sc" xMin="19" yMin="0" xMax="596" yMax="577">
      <contour>
        <pt x="19" y="4" on="1"/>
        <pt x="274" y="577" on="1"/>
        <pt x="342" y="577" on="1"/>
        <pt x="596" y="4" on="1"/>
        <pt x="596" y="0" on="1"/>
        <pt x="553" y="0" on="1"/>
        <pt x="470" y="186" on="1"/>
        <pt x="145" y="186" on="1"/>
        <pt x="62" y="0" on="1"/>
        <pt x="19" y="0" on="1"/>
      </contour>
      <contour>
        <pt x="455" y="223" on="1"/>
        <pt x="353" y="451" on="1"/>
        <pt x="309" y="548" on="1"/>
        <pt x="305" y="548" on="1"/>
        <pt x="263" y="451" on="1"/>
        <pt x="160" y="223" on="1"/>
      </contour>
    </TTGlyph>
    <TTGlyph name="AE" xMin="13" yMin="0" xMax="810" yMax="740">
      <contour>
        <pt x="13" y="6" on="1"/>
        <pt x="332" y="740" on="1"/>
        <pt x="800" y="740" on="1"/>
        <pt x="800" y="700" on="1"/>
        <pt x="447" y="700" on="1"/>
        <pt x="460" y="396" on="1"/>
        <pt x="768" y="396" on="1"/>
        <pt x="768" y="356" on="1"/>
        <pt x="462" y="356" on="1"/>
        <pt x="477" y="40" on="1"/>
        <pt x="810" y="40" on="1"/>
        <pt x="810" y="0" on="1"/>
        <pt x="435" y="0" on="1"/>
        <pt x="425" y="245" on="1"/>
        <pt x="162" y="245" on="1"/>
        <pt x="54" y="0" on="1"/>
        <pt x="13" y="0" on="1"/>
      </contour>
      <contour>
        <pt x="179" y="285" on="1"/>
        <pt x="423" y="285" on="1"/>
        <pt x="406" y="700" on="1"/>
        <pt x="362" y="700" on="1"/>
      </contour>
    </TTGlyph>
    <TTGlyph name="AE.sc" xMin="24" yMin="0" xMax="716" yMax="577">
      <contour>
        <pt x="24" y="5" on="1"/>
        <pt x="299" y="577" on="1"/>
        <pt x="708" y="577" on="1"/>
        <pt x="708" y="540" on="1"/>
        <pt x="406" y="540" on="1"/>
        <pt x="416" y="311" on="1"/>
        <pt x="681" y="311" on="1"/>
        <pt x="681" y="275" on="1"/>
        <pt x="419" y="275" on="1"/>
        <pt x="431" y="37" on="1"/>
        <pt x="716" y="37" on="1"/>
        <pt x="716" y="0" on="1"/>
        <pt x="389" y="0" on="1"/>
        <pt x="380" y="186" on="1"/>
        <pt x="154" y="186" on="1"/>
        <pt x="64" y="0" on="1"/>
        <pt x="24" y="0" on="1"/>
      </contour>
      <contour>
        <pt x="173" y="222" on="1"/>
        <pt x="379" y="222" on="1"/>
        <pt x="364" y="540" on="1"/>
        <pt x="328" y="540" on="1"/>
      </contour>
    </TTGlyph>
    <TTGlyph name="AEacute" xMin="13" yMin="0" xMax="810" yMax="933">
      <contour>
        <pt x="502" y="810" on="1"/>
        <pt x="581" y="933" on="1"/>
        <pt x="627" y="933" on="1"/>
        <pt x="540" y="804" on="1"/>
      </contour>
      <contour>
        <pt x="13" y="6" on="1"/>
        <pt x="332" y="740" on="1"/>
        <pt x="800" y="740" on="1"/>
        <pt x="800" y="700" on="1"/>
        <pt x="447" y="700" on="1"/>
        <pt x="460" y="396" on="1"/>
        <pt x="768" y="396" on="1"/>
        <pt x="768" y="356" on="1"/>
        <pt x="462" y="356" on="1"/>
        <pt x="477" y="40" on="1"/>
        <pt x="810" y="40" on="1"/>
        <pt x="810" y="0" on="1"/>
        <pt x="435" y="0" on="1"/>
        <pt x="425" y="245" on="1"/>
        <pt x="162" y="245" on="1"/>
        <pt x="54" y="0" on="1"/>
        <pt x="13" y="0" on="1"/>
      </contour>
      <contour>
        <pt x="179" y="285" on="1"/>
        <pt x="423" y="285" on="1"/>
        <pt x="406" y="700" on="1"/>
        <pt x="362" y="700" on="1"/>
      </contour>
    </TTGlyph>
    <TTGlyph name="AEacute.sc" xMin="24" yMin="0" xMax="716" yMax="732">
      <contour>
        <pt x="24" y="5" on="1"/>
        <pt x="299" y="577" on="1"/>
        <pt x="708" y="577" on="1"/>
        <pt x="708" y="540" on="1"/>
        <pt x="406" y="540" on="1"/>
        <pt x="416" y="311" on="1"/>
        <pt x="681" y="311" on="1"/>
        <pt x="681" y="275" on="1"/>
        <pt x="419" y="275" on="1"/>
        <pt x="431" y="37" on="1"/>
        <pt x="716" y="37" on="1"/>
        <pt x="716" y="0" on="1"/>
        <pt x="389" y="0" on="1"/>
        <pt x="380" y="186" on="1"/>
        <pt x="154" y="186" on="1"/>
        <pt x="64" y="0" on="1"/>
        <pt x="24" y="0" on="1"/>
      </contour>
      <contour>
        <pt x="379" y="222" on="1"/>
        <pt x="364" y="540" on="1"/>
        <pt x="328" y="540" on="1"/>
        <pt x="173" y="222" on="1"/>
      </contour>
      <contour>
        <pt x="443" y="633" on="1"/>
        <pt x="510" y="732" on="1"/>
        <pt x="555" y="732" on="1"/>
        <pt x="480" y="628" on="1"/>
      </contour>
    </TTGlyph>
    <TTGlyph name="Aacute" xMin="11" yMin="0" xMax="675" yMax="933">
      <contour>
        <pt x="11" y="5" on="1"/>
        <pt x="308" y="740" on="1"/>
        <pt x="378" y="740" on="1"/>
        <pt x="675" y="5" on="1"/>
        <pt x="675" y="0" on="1"/>
        <pt x="631" y="0" on="1"/>
        <pt x="532" y="245" on="1"/>
        <pt x="154" y="245" on="1"/>
        <pt x="55" y="0" on="1"/>
        <pt x="11" y="0" on="1"/>
      </contour>
      <contour>
        <pt x="516" y="285" on="1"/>
        <pt x="395" y="587" on="1"/>
        <pt x="345" y="709" on="1"/>
        <pt x="341" y="709" on="1"/>
        <pt x="291" y="587" on="1"/>
        <pt x="170" y="285" on="1"/>
      </contour>
      <contour>
        <pt x="319" y="810" on="1"/>
        <pt x="398" y="933" on="1"/>
        <pt x="444" y="933" on="1"/>
        <pt x="357" y="804" on="1"/>
      </contour>
    </TTGlyph>
    <TTGlyph name="Aacute.sc" xMin="19" yMin="0" xMax="596" yMax="732">
      <contour>
        <pt x="19" y="4" on="1"/>
        <pt x="274" y="577" on="1"/>
        <pt x="342" y="577" on="1"/>
        <pt x="596" y="4" on="1"/>
        <pt x="596" y="0" on="1"/>
        <pt x="553" y="0" on="1"/>
        <pt x="470" y="186" on="1"/>
        <pt x="145" y="186" on="1"/>
        <pt x="62" y="0" on="1"/>
        <pt x="19" y="0" on="1"/>
      </contour>
      <contour>
        <pt x="455" y="223" on="1"/>
        <pt x="353" y="451" on="1"/>
        <pt x="309" y="548" on="1"/>
        <pt x="305" y="548" on="1"/>
        <pt x="263" y="451" on="1"/>
        <pt x="160" y="223" on="1"/>
      </contour>
      <contour>
        <pt x="286" y="633" on="1"/>
        <pt x="351" y="732" on="1"/>
        <pt x="397" y="732" on="1"/>
        <pt x="321" y="628" on="1"/>
      </contour>
    </TTGlyph>
    <TTGlyph name="Abreve" xMin="11" yMin="0" xMax="675" yMax="950">
      <contour>
        <pt x="11" y="5" on="1"/>
        <pt x="308" y="740" on="1"/>
        <pt x="378" y="740" on="1"/>
        <pt x="675" y="5" on="1"/>
        <pt x="675" y="0" on="1"/>
        <pt x="631" y="0" on="1"/>
        <pt x="532" y="245" on="1"/>
        <pt x="154" y="245" on="1"/>
        <pt x="55" y="0" on="1"/>
        <pt x="11" y="0" on="1"/>
      </contour>
      <contour>
        <pt x="516" y="285" on="1"/>
        <pt x="395" y="587" on="1"/>
        <pt x="345" y="709" on="1"/>
        <pt x="341" y="709" on="1"/>
        <pt x="291" y="587" on="1"/>
        <pt x="170" y="285" on="1"/>
      </contour>
      <contour>
        <pt x="344" y="816" on="1"/>
        <pt x="264" y="816" on="0"/>
        <pt x="176" y="887" on="0"/>
        <pt x="176" y="950" on="1"/>
        <pt x="214" y="950" on="1"/>
        <pt x="214" y="905" on="0"/>
        <pt x="283" y="853" on="0"/>
        <pt x="344" y="853" on="1"/>
        <pt x="406" y="853" on="0"/>
        <pt x="474" y="905" on="0"/>
        <pt x="474" y="950" on="1"/>
        <pt x="513" y="950" on="1"/>
        <pt x="513" y="887" on="0"/>
        <pt x="424" y="816" on="0"/>
      </contour>
    </TTGlyph>
    <TTGlyph name="Abreve.sc" xMin="19" yMin="0" xMax="596" yMax="744">
      <contour>
        <pt x="308" y="636" on="1"/>
        <pt x="237" y="636" on="0"/>
        <pt x="160" y="694" on="0"/>
        <pt x="160" y="744" on="1"/>
        <pt x="197" y="744" on="1"/>
        <pt x="197" y="708" on="0"/>
        <pt x="255" y="669" on="0"/>
        <pt x="308" y="669" on="1"/>
        <pt x="362" y="669" on="0"/>
        <pt x="420" y="708" on="0"/>
        <pt x="420" y="744" on="1"/>
        <pt x="456" y="744" on="1"/>
        <pt x="456" y="694" on="0"/>
        <pt x="379" y="636" on="0"/>
      </contour>
      <contour>
        <pt x="19" y="4" on="1"/>
        <pt x="274" y="577" on="1"/>
        <pt x="342" y="577" on="1"/>
        <pt x="596" y="4" on="1"/>
        <pt x="596" y="0" on="1"/>
        <pt x="553" y="0" on="1"/>
        <pt x="470" y="186" on="1"/>
        <pt x="145" y="186" on="1"/>
        <pt x="62" y="0" on="1"/>
        <pt x="19" y="0" on="1"/>
      </contour>
      <contour>
        <pt x="455" y="223" on="1"/>
        <pt x="353" y="451" on="1"/>
        <pt x="309" y="548" on="1"/>
        <pt x="305" y="548" on="1"/>
        <pt x="263" y="451" on="1"/>
        <pt x="160" y="223" on="1"/>
      </contour>
    </TTGlyph>
    <TTGlyph name="Acircumflex" xMin="11" yMin="0" xMax="675" yMax="936">
      <contour>
        <pt x="11" y="5" on="1"/>
        <pt x="308" y="740" on="1"/>
        <pt x="378" y="740" on="1"/>
        <pt x="675" y="5" on="1"/>
        <pt x="675" y="0" on="1"/>
        <pt x="631" y="0" on="1"/>
        <pt x="532" y="245" on="1"/>
        <pt x="154" y="245" on="1"/>
        <pt x="55" y="0" on="1"/>
        <pt x="11" y="0" on="1"/>
      </contour>
      <contour>
        <pt x="516" y="285" on="1"/>
        <pt x="395" y="587" on="1"/>
        <pt x="345" y="709" on="1"/>
        <pt x="341" y="709" on="1"/>
        <pt x="291" y="587" on="1"/>
        <pt x="170" y="285" on="1"/>
      </contour>
      <contour>
        <pt x="190" y="864" on="1"/>
        <pt x="344" y="936" on="1"/>
        <pt x="499" y="864" on="1"/>
        <pt x="499" y="818" on="1"/>
        <pt x="344" y="890" on="1"/>
        <pt x="190" y="818" on="1"/>
      </contour>
    </TTGlyph>
    <TTGlyph name="Acircumflex.sc" xMin="19" yMin="0" xMax="596" yMax="735">
      <contour>
        <pt x="19" y="4" on="1"/>
        <pt x="274" y="577" on="1"/>
        <pt x="342" y="577" on="1"/>
        <pt x="596" y="4" on="1"/>
        <pt x="596" y="0" on="1"/>
        <pt x="553" y="0" on="1"/>
        <pt x="470" y="186" on="1"/>
        <pt x="145" y="186" on="1"/>
        <pt x="62" y="0" on="1"/>
        <pt x="19" y="0" on="1"/>
      </contour>
      <contour>
        <pt x="455" y="223" on="1"/>
        <pt x="353" y="451" on="1"/>
        <pt x="309" y="548" on="1"/>
        <pt x="305" y="548" on="1"/>
        <pt x="263" y="451" on="1"/>
        <pt x="160" y="223" on="1"/>
      </contour>
      <contour>
        <pt x="174" y="677" on="1"/>
        <pt x="309" y="735" on="1"/>
        <pt x="445" y="677" on="1"/>
        <pt x="445" y="637" on="1"/>
        <pt x="309" y="694" on="1"/>
        <pt x="174" y="637" on="1"/>
      </contour>
    </TTGlyph>
    <TTGlyph name="Adblgrave" xMin="11" yMin="0" xMax="675" yMax="924">
      <contour>
        <pt x="11" y="5" on="1"/>
        <pt x="308" y="740" on="1"/>
        <pt x="378" y="740" on="1"/>
        <pt x="675" y="5" on="1"/>
        <pt x="675" y="0" on="1"/>
        <pt x="631" y="0" on="1"/>
        <pt x="532" y="245" on="1"/>
        <pt x="154" y="245" on="1"/>
        <pt x="55" y="0" on="1"/>
        <pt x="11" y="0" on="1"/>
      </contour>
      <contour>
        <pt x="516" y="285" on="1"/>
        <pt x="395" y="587" on="1"/>
        <pt x="345" y="709" on="1"/>
        <pt x="341" y="709" on="1"/>
        <pt x="291" y="587" on="1"/>
        <pt x="170" y="285" on="1"/>
      </contour>
      <contour>
        <pt x="261" y="795" on="1"/>
        <pt x="174" y="924" on="1"/>
        <pt x="220" y="924" on="1"/>
        <pt x="298" y="808" on="1"/>
      </contour>
      <contour>
        <pt x="393" y="795" on="1"/>
        <pt x="306" y="924" on="1"/>
        <pt x="352" y="924" on="1"/>
        <pt x="431" y="808" on="1"/>
      </contour>
    </TTGlyph>
    <TTGlyph name="Adblgrave.sc" xMin="19" yMin="0" xMax="596" yMax="724">
      <contour>
        <pt x="19" y="4" on="1"/>
        <pt x="274" y="577" on="1"/>
        <pt x="342" y="577" on="1"/>
        <pt x="596" y="4" on="1"/>
        <pt x="596" y="0" on="1"/>
        <pt x="553" y="0" on="1"/>
        <pt x="470" y="186" on="1"/>
        <pt x="145" y="186" on="1"/>
        <pt x="62" y="0" on="1"/>
        <pt x="19" y="0" on="1"/>
      </contour>
      <contour>
        <pt x="455" y="223" on="1"/>
        <pt x="353" y="451" on="1"/>
        <pt x="309" y="548" on="1"/>
        <pt x="305" y="548" on="1"/>
        <pt x="263" y="451" on="1"/>
        <pt x="160" y="223" on="1"/>
      </contour>
      <contour>
        <pt x="157" y="724" on="1"/>
        <pt x="203" y="724" on="1"/>
        <pt x="268" y="631" on="1"/>
        <pt x="233" y="621" on="1"/>
      </contour>
      <contour>
        <pt x="274" y="724" on="1"/>
        <pt x="319" y="724" on="1"/>
        <pt x="385" y="631" on="1"/>
        <pt x="349" y="621" on="1"/>
      </contour>
    </TTGlyph>
    <TTGlyph name="Adieresis" xMin="11" yMin="0" xMax="675" yMax="905">
      <contour>
        <pt x="11" y="5" on="1"/>
        <pt x="308" y="740" on="1"/>
        <pt x="378" y="740" on="1"/>
        <pt x="675" y="5" on="1"/>
        <pt x="675" y="0" on="1"/>
        <pt x="631" y="0" on="1"/>
        <pt x="532" y="245" on="1"/>
        <pt x="154" y="245" on="1"/>
        <pt x="55" y="0" on="1"/>
        <pt x="11" y="0" on="1"/>
      </contour>
      <contour>
        <pt x="516" y="285" on="1"/>
        <pt x="395" y="587" on="1"/>
        <pt x="345" y="709" on="1"/>
        <pt x="341" y="709" on="1"/>
        <pt x="291" y="587" on="1"/>
        <pt x="170" y="285" on="1"/>
      </contour>
      <contour>
        <pt x="210" y="832" on="1"/>
        <pt x="193" y="832" on="0"/>
        <pt x="174" y="849" on="0"/>
        <pt x="174" y="869" on="1"/>
        <pt x="174" y="888" on="0"/>
        <pt x="193" y="905" on="0"/>
        <pt x="210" y="905" on="1"/>
        <pt x="225" y="905" on="0"/>
        <pt x="248" y="889" on="0"/>
        <pt x="248" y="869" on="1"/>
        <pt x="248" y="849" on="0"/>
        <pt x="225" y="832" on="0"/>
      </contour>
      <contour>
        <pt x="479" y="832" on="1"/>
        <pt x="462" y="832" on="0"/>
        <pt x="442" y="849" on="0"/>
        <pt x="442" y="869" on="1"/>
        <pt x="442" y="888" on="0"/>
        <pt x="462" y="905" on="0"/>
        <pt x="479" y="905" on="1"/>
        <pt x="494" y="905" on="0"/>
        <pt x="516" y="889" on="0"/>
        <pt x="516" y="869" on="1"/>
        <pt x="516" y="849" on="0"/>
        <pt x="494" y="832" on="0"/>
      </contour>
    </TTGlyph>
    <TTGlyph name="Adieresis.sc" xMin="19" yMin="0" xMax="596" yMax="713">
      <contour>
        <pt x="191" y="649" on="1"/>
        <pt x="157" y="649" on="0"/>
        <pt x="157" y="681" on="1"/>
        <pt x="157" y="713" on="0"/>
        <pt x="191" y="713" on="1"/>
        <pt x="206" y="713" on="0"/>
        <pt x="226" y="698" on="0"/>
        <pt x="226" y="681" on="1"/>
        <pt x="226" y="664" on="0"/>
        <pt x="206" y="649" on="0"/>
      </contour>
      <contour>
        <pt x="425" y="649" on="1"/>
        <pt x="410" y="649" on="0"/>
        <pt x="391" y="664" on="0"/>
        <pt x="391" y="681" on="1"/>
        <pt x="391" y="698" on="0"/>
        <pt x="410" y="713" on="0"/>
        <pt x="425" y="713" on="1"/>
        <pt x="439" y="713" on="0"/>
        <pt x="460" y="698" on="0"/>
        <pt x="460" y="681" on="1"/>
        <pt x="460" y="664" on="0"/>
        <pt x="439" y="649" on="0"/>
      </contour>
      <contour>
        <pt x="19" y="4" on="1"/>
        <pt x="274" y="577" on="1"/>
        <pt x="342" y="577" on="1"/>
        <pt x="596" y="4" on="1"/>
        <pt x="596" y="0" on="1"/>
        <pt x="553" y="0" on="1"/>
        <pt x="470" y="186" on="1"/>
        <pt x="145" y="186" on="1"/>
        <pt x="62" y="0" on="1"/>
        <pt x="19" y="0" on="1"/>
      </contour>
      <contour>
        <pt x="455" y="223" on="1"/>
        <pt x="353" y="451" on="1"/>
        <pt x="309" y="548" on="1"/>
        <pt x="305" y="548" on="1"/>
        <pt x="263" y="451" on="1"/>
        <pt x="160" y="223" on="1"/>
      </contour>
    </TTGlyph>
    <TTGlyph name="Agrave" xMin="11" yMin="0" xMax="675" yMax="933">
      <contour>
        <pt x="11" y="5" on="1"/>
        <pt x="308" y="740" on="1"/>
        <pt x="378" y="740" on="1"/>
        <pt x="675" y="5" on="1"/>
        <pt x="675" y="0" on="1"/>
        <pt x="631" y="0" on="1"/>
        <pt x="532" y="245" on="1"/>
        <pt x="154" y="245" on="1"/>
        <pt x="55" y="0" on="1"/>
        <pt x="11" y="0" on="1"/>
      </contour>
      <contour>
        <pt x="516" y="285" on="1"/>
        <pt x="395" y="587" on="1"/>
        <pt x="345" y="709" on="1"/>
        <pt x="341" y="709" on="1"/>
        <pt x="291" y="587" on="1"/>
        <pt x="170" y="285" on="1"/>
      </contour>
      <contour>
        <pt x="329" y="804" on="1"/>
        <pt x="242" y="933" on="1"/>
        <pt x="288" y="933" on="1"/>
        <pt x="366" y="818" on="1"/>
      </contour>
    </TTGlyph>
    <TTGlyph name="Agrave.sc" xMin="19" yMin="0" xMax="596" yMax="732">
      <contour>
        <pt x="19" y="4" on="1"/>
        <pt x="274" y="577" on="1"/>
        <pt x="342" y="577" on="1"/>
        <pt x="596" y="4" on="1"/>
        <pt x="596" y="0" on="1"/>
        <pt x="553" y="0" on="1"/>
        <pt x="470" y="186" on="1"/>
        <pt x="145" y="186" on="1"/>
        <pt x="62" y="0" on="1"/>
        <pt x="19" y="0" on="1"/>
      </contour>
      <contour>
        <pt x="455" y="223" on="1"/>
        <pt x="353" y="451" on="1"/>
        <pt x="309" y="548" on="1"/>
        <pt x="305" y="548" on="1"/>
        <pt x="263" y="451" on="1"/>
        <pt x="160" y="223" on="1"/>
      </contour>
      <contour>
        <pt x="293" y="628" on="1"/>
        <pt x="217" y="732" on="1"/>
        <pt x="263" y="732" on="1"/>
        <pt x="328" y="639" on="1"/>
      </contour>
    </TTGlyph>
    <TTGlyph name="Ainvertedbreve" xMin="11" yMin="0" xMax="675" yMax="951">
      <contour>
        <pt x="11" y="5" on="1"/>
        <pt x="308" y="740" on="1"/>
        <pt x="378" y="740" on="1"/>
        <pt x="675" y="5" on="1"/>
        <pt x="675" y="0" on="1"/>
        <pt x="631" y="0" on="1"/>
        <pt x="532" y="245" on="1"/>
        <pt x="154" y="245" on="1"/>
        <pt x="55" y="0" on="1"/>
        <pt x="11" y="0" on="1"/>
      </contour>
      <contour>
        <pt x="516" y="285" on="1"/>
        <pt x="395" y="587" on="1"/>
        <pt x="345" y="709" on="1"/>
        <pt x="341" y="709" on="1"/>
        <pt x="291" y="587" on="1"/>
        <pt x="170" y="285" on="1"/>
      </contour>
      <contour>
        <pt x="474" y="816" on="1"/>
        <pt x="474" y="862" on="0"/>
        <pt x="405" y="914" on="0"/>
        <pt x="344" y="914" on="1"/>
        <pt x="283" y="914" on="0"/>
        <pt x="214" y="862" on="0"/>
        <pt x="214" y="816" on="1"/>
        <pt x="176" y="816" on="1"/>
        <pt x="176" y="879" on="0"/>
        <pt x="264" y="951" on="0"/>
        <pt x="344" y="951" on="1"/>
        <pt x="424" y="951" on="0"/>
        <pt x="513" y="879" on="0"/>
        <pt x="513" y="816" on="1"/>
      </contour>
    </TTGlyph>
    <TTGlyph name="Ainvertedbreve.sc" xMin="19" yMin="0" xMax="596" yMax="745">
      <contour>
        <pt x="160" y="636" on="1"/>
        <pt x="160" y="686" on="0"/>
        <pt x="237" y="745" on="0"/>
        <pt x="308" y="745" on="1"/>
        <pt x="379" y="745" on="0"/>
        <pt x="456" y="686" on="0"/>
        <pt x="456" y="636" on="1"/>
        <pt x="420" y="636" on="1"/>
        <pt x="420" y="672" on="0"/>
        <pt x="362" y="712" on="0"/>
        <pt x="308" y="712" on="1"/>
        <pt x="255" y="712" on="0"/>
        <pt x="197" y="672" on="0"/>
        <pt x="197" y="636" on="1"/>
      </contour>
      <contour>
        <pt x="19" y="4" on="1"/>
        <pt x="274" y="577" on="1"/>
        <pt x="342" y="577" on="1"/>
        <pt x="596" y="4" on="1"/>
        <pt x="596" y="0" on="1"/>
        <pt x="553" y="0" on="1"/>
        <pt x="470" y="186" on="1"/>
        <pt x="145" y="186" on="1"/>
        <pt x="62" y="0" on="1"/>
        <pt x="19" y="0" on="1"/>
      </contour>
      <contour>
        <pt x="455" y="223" on="1"/>
        <pt x="353" y="451" on="1"/>
        <pt x="309" y="548" on="1"/>
        <pt x="305" y="548" on="1"/>
        <pt x="263" y="451" on="1"/>
        <pt x="160" y="223" on="1"/>
      </contour>
    </TTGlyph>
    <TTGlyph name="Amacron" xMin="11" yMin="0" xMax="675" yMax="881">
      <contour>
        <pt x="11" y="5" on="1"/>
        <pt x="308" y="740" on="1"/>
        <pt x="378" y="740" on="1"/>
        <pt x="675" y="5" on="1"/>
        <pt x="675" y="0" on="1"/>
        <pt x="631" y="0" on="1"/>
        <pt x="532" y="245" on="1"/>
        <pt x="154" y="245" on="1"/>
        <pt x="55" y="0" on="1"/>
        <pt x="11" y="0" on="1"/>
      </contour>
      <contour>
        <pt x="516" y="285" on="1"/>
        <pt x="395" y="587" on="1"/>
        <pt x="345" y="709" on="1"/>
        <pt x="341" y="709" on="1"/>
        <pt x="291" y="587" on="1"/>
        <pt x="170" y="285" on="1"/>
      </contour>
      <contour>
        <pt x="193" y="881" on="1"/>
        <pt x="497" y="881" on="1"/>
        <pt x="497" y="842" on="1"/>
        <pt x="193" y="842" on="1"/>
      </contour>
    </TTGlyph>
    <TTGlyph name="Amacron.sc" xMin="19" yMin="0" xMax="596" yMax="692">
      <contour>
        <pt x="19" y="4" on="1"/>
        <pt x="274" y="577" on="1"/>
        <pt x="342" y="577" on="1"/>
        <pt x="596" y="4" on="1"/>
        <pt x="596" y="0" on="1"/>
        <pt x="553" y="0" on="1"/>
        <pt x="470" y="186" on="1"/>
        <pt x="145" y="186" on="1"/>
        <pt x="62" y="0" on="1"/>
        <pt x="19" y="0" on="1"/>
      </contour>
      <contour>
        <pt x="455" y="223" on="1"/>
        <pt x="353" y="451" on="1"/>
        <pt x="309" y="548" on="1"/>
        <pt x="305" y="548" on="1"/>
        <pt x="263" y="451" on="1"/>
        <pt x="160" y="223" on="1"/>
      </contour>
      <contour>
        <pt x="175" y="692" on="1"/>
        <pt x="444" y="692" on="1"/>
        <pt x="444" y="657" on="1"/>
        <pt x="175" y="657" on="1"/>
      </contour>
    </TTGlyph>
    <TTGlyph name="Aogonek" xMin="11" yMin="-220" xMax="675" yMax="740">
      <contour>
        <pt x="600" y="-220" on="1"/>
        <pt x="555" y="-220" on="0"/>
        <pt x="515" y="-184" on="0"/>
        <pt x="515" y="-146" on="1"/>
        <pt x="515" y="-125" on="0"/>
        <pt x="527" y="-91" on="0"/>
        <pt x="556" y="-57" on="0"/>
        <pt x="604" y="-22" on="0"/>
        <pt x="641" y="0" on="1"/>
        <pt x="631" y="0" on="1"/>
        <pt x="532" y="245" on="1"/>
        <pt x="154" y="245" on="1"/>
        <pt x="55" y="0" on="1"/>
        <pt x="11" y="0" on="1"/>
        <pt x="11" y="5" on="1"/>
        <pt x="308" y="740" on="1"/>
        <pt x="378" y="740" on="1"/>
        <pt x="675" y="5" on="1"/>
        <pt x="675" y="-23" on="1"/>
        <pt x="609" y="-54" on="0"/>
        <pt x="552" y="-111" on="0"/>
        <pt x="552" y="-145" on="1"/>
        <pt x="552" y="-168" on="0"/>
        <pt x="578" y="-187" on="0"/>
        <pt x="607" y="-187" on="1"/>
        <pt x="622" y="-187" on="0"/>
        <pt x="656" y="-182" on="0"/>
        <pt x="673" y="-177" on="1"/>
        <pt x="673" y="-208" on="1"/>
        <pt x="659" y="-213" on="0"/>
        <pt x="620" y="-220" on="0"/>
      </contour>
      <contour>
        <pt x="516" y="285" on="1"/>
        <pt x="395" y="587" on="1"/>
        <pt x="345" y="709" on="1"/>
        <pt x="341" y="709" on="1"/>
        <pt x="291" y="587" on="1"/>
        <pt x="170" y="285" on="1"/>
      </contour>
    </TTGlyph>
    <TTGlyph name="Aogonek.sc" xMin="18" yMin="-168" xMax="595" yMax="577">
      <contour>
        <pt x="528" y="-168" on="1"/>
        <pt x="489" y="-168" on="0"/>
        <pt x="454" y="-140" on="0"/>
        <pt x="454" y="-108" on="1"/>
        <pt x="454" y="-93" on="0"/>
        <pt x="463" y="-69" on="0"/>
        <pt x="485" y="-44" on="0"/>
        <pt x="524" y="-17" on="0"/>
        <pt x="553" y="0" on="1"/>
        <pt x="551" y="0" on="1"/>
        <pt x="469" y="186" on="1"/>
        <pt x="144" y="186" on="1"/>
        <pt x="61" y="0" on="1"/>
        <pt x="18" y="0" on="1"/>
        <pt x="18" y="4" on="1"/>
        <pt x="273" y="577" on="1"/>
        <pt x="341" y="577" on="1"/>
        <pt x="595" y="4" on="1"/>
        <pt x="595" y="-13" on="1"/>
        <pt x="545" y="-35" on="0"/>
        <pt x="489" y="-78" on="0"/>
        <pt x="489" y="-107" on="1"/>
        <pt x="489" y="-126" on="0"/>
        <pt x="513" y="-139" on="0"/>
        <pt x="535" y="-139" on="1"/>
        <pt x="564" y="-139" on="0"/>
        <pt x="593" y="-131" on="1"/>
        <pt x="593" y="-158" on="1"/>
        <pt x="581" y="-163" on="0"/>
        <pt x="546" y="-168" on="0"/>
      </contour>
      <contour>
        <pt x="453" y="223" on="1"/>
        <pt x="352" y="454" on="1"/>
        <pt x="308" y="548" on="1"/>
        <pt x="304" y="548" on="1"/>
        <pt x="262" y="454" on="1"/>
        <pt x="159" y="223" on="1"/>
      </contour>
    </TTGlyph>
    <TTGlyph name="Aring" xMin="11" yMin="0" xMax="675" yMax="1018">
      <contour>
        <pt x="11" y="5" on="1"/>
        <pt x="308" y="740" on="1"/>
        <pt x="378" y="740" on="1"/>
        <pt x="675" y="5" on="1"/>
        <pt x="675" y="0" on="1"/>
        <pt x="631" y="0" on="1"/>
        <pt x="532" y="245" on="1"/>
        <pt x="154" y="245" on="1"/>
        <pt x="55" y="0" on="1"/>
        <pt x="11" y="0" on="1"/>
      </contour>
      <contour>
        <pt x="516" y="285" on="1"/>
        <pt x="395" y="587" on="1"/>
        <pt x="345" y="709" on="1"/>
        <pt x="341" y="709" on="1"/>
        <pt x="291" y="587" on="1"/>
        <pt x="170" y="285" on="1"/>
      </contour>
      <contour>
        <pt x="346" y="805" on="1"/>
        <pt x="320" y="805" on="0"/>
        <pt x="276" y="821" on="0"/>
        <pt x="243" y="849" on="0"/>
        <pt x="225" y="887" on="0"/>
        <pt x="225" y="910" on="1"/>
        <pt x="225" y="957" on="0"/>
        <pt x="294" y="1018" on="0"/>
        <pt x="346" y="1018" on="1"/>
        <pt x="371" y="1018" on="0"/>
        <pt x="415" y="1002" on="0"/>
        <pt x="447" y="973" on="0"/>
        <pt x="465" y="933" on="0"/>
        <pt x="465" y="910" on="1"/>
        <pt x="465" y="887" on="0"/>
        <pt x="447" y="849" on="0"/>
        <pt x="415" y="821" on="0"/>
        <pt x="371" y="805" on="0"/>
      </contour>
      <contour>
        <pt x="346" y="840" on="1"/>
        <pt x="384" y="840" on="0"/>
        <pt x="428" y="878" on="0"/>
        <pt x="428" y="910" on="1"/>
        <pt x="428" y="944" on="0"/>
        <pt x="384" y="983" on="0"/>
        <pt x="346" y="983" on="1"/>
        <pt x="307" y="983" on="0"/>
        <pt x="262" y="944" on="0"/>
        <pt x="262" y="910" on="1"/>
        <pt x="262" y="878" on="0"/>
        <pt x="307" y="840" on="0"/>
      </contour>
    </TTGlyph>
    <TTGlyph name="Aring.sc" xMin="19" yMin="0" xMax="596" yMax="799">
      <contour>
        <pt x="19" y="4" on="1"/>
        <pt x="274" y="577" on="1"/>
        <pt x="342" y="577" on="1"/>
        <pt x="596" y="4" on="1"/>
        <pt x="596" y="0" on="1"/>
        <pt x="553" y="0" on="1"/>
        <pt x="470" y="186" on="1"/>
        <pt x="145" y="186" on="1"/>
        <pt x="62" y="0" on="1"/>
        <pt x="19" y="0" on="1"/>
      </contour>
      <contour>
        <pt x="455" y="223" on="1"/>
        <pt x="353" y="451" on="1"/>
        <pt x="309" y="548" on="1"/>
        <pt x="305" y="548" on="1"/>
        <pt x="263" y="451" on="1"/>
        <pt x="160" y="223" on="1"/>
      </contour>
      <contour>
        <pt x="310" y="631" on="1"/>
        <pt x="265" y="631" on="0"/>
        <pt x="205" y="678" on="0"/>
        <pt x="205" y="713" on="1"/>
        <pt x="205" y="750" on="0"/>
        <pt x="265" y="799" on="0"/>
        <pt x="310" y="799" on="1"/>
        <pt x="355" y="799" on="0"/>
        <pt x="413" y="750" on="0"/>
        <pt x="413" y="713" on="1"/>
        <pt x="413" y="678" on="0"/>
        <pt x="354" y="631" on="0"/>
      </contour>
      <contour>
        <pt x="310" y="660" on="1"/>
        <pt x="343" y="660" on="0"/>
        <pt x="380" y="688" on="0"/>
        <pt x="380" y="713" on="1"/>
        <pt x="380" y="739" on="0"/>
        <pt x="343" y="769" on="0"/>
        <pt x="310" y="769" on="1"/>
        <pt x="276" y="769" on="0"/>
        <pt x="238" y="739" on="0"/>
        <pt x="238" y="713" on="1"/>
        <pt x="238" y="688" on="0"/>
        <pt x="276" y="660" on="0"/>
      </contour>
    </TTGlyph>
    <TTGlyph name="Aringacute" xMin="12" yMin="0" xMax="676" yMax="963">
      <contour>
        <pt x="12" y="5" on="1"/>
        <pt x="278" y="662" on="1"/>
        <pt x="250" y="676" on="0"/>
        <pt x="218" y="724" on="0"/>
        <pt x="218" y="754" on="1"/>
        <pt x="218" y="797" on="0"/>
        <pt x="277" y="856" on="0"/>
        <pt x="323" y="862" on="1"/>
        <pt x="393" y="963" on="1"/>
        <pt x="439" y="963" on="1"/>
        <pt x="370" y="860" on="1"/>
        <pt x="412" y="852" on="0"/>
        <pt x="464" y="795" on="0"/>
        <pt x="464" y="754" on="1"/>
        <pt x="464" y="725" on="0"/>
        <pt x="435" y="678" on="0"/>
        <pt x="409" y="664" on="1"/>
        <pt x="676" y="5" on="1"/>
        <pt x="676" y="0" on="1"/>
        <pt x="632" y="0" on="1"/>
        <pt x="533" y="245" on="1"/>
        <pt x="155" y="245" on="1"/>
        <pt x="56" y="0" on="1"/>
        <pt x="12" y="0" on="1"/>
      </contour>
      <contour>
        <pt x="342" y="684" on="1"/>
        <pt x="380" y="684" on="0"/>
        <pt x="425" y="722" on="0"/>
        <pt x="425" y="754" on="1"/>
        <pt x="425" y="788" on="0"/>
        <pt x="380" y="827" on="0"/>
        <pt x="342" y="827" on="1"/>
        <pt x="303" y="827" on="0"/>
        <pt x="257" y="788" on="0"/>
        <pt x="257" y="754" on="1"/>
        <pt x="257" y="722" on="0"/>
        <pt x="303" y="684" on="0"/>
      </contour>
      <contour>
        <pt x="517" y="285" on="1"/>
        <pt x="396" y="587" on="1"/>
        <pt x="370" y="649" on="1"/>
        <pt x="317" y="648" on="1"/>
        <pt x="292" y="587" on="1"/>
        <pt x="171" y="285" on="1"/>
      </contour>
    </TTGlyph>
    <TTGlyph name="Aringacute.sc" xMin="20" yMin="0" xMax="597" yMax="756">
      <contour>
        <pt x="20" y="4" on="1"/>
        <pt x="248" y="518" on="1"/>
        <pt x="225" y="529" on="0"/>
        <pt x="197" y="567" on="0"/>
        <pt x="197" y="590" on="1"/>
        <pt x="197" y="624" on="0"/>
        <pt x="248" y="671" on="0"/>
        <pt x="289" y="676" on="1"/>
        <pt x="348" y="756" on="1"/>
        <pt x="393" y="756" on="1"/>
        <pt x="333" y="674" on="1"/>
        <pt x="369" y="668" on="0"/>
        <pt x="416" y="622" on="0"/>
        <pt x="416" y="590" on="1"/>
        <pt x="416" y="567" on="0"/>
        <pt x="390" y="531" on="0"/>
        <pt x="368" y="519" on="1"/>
        <pt x="597" y="4" on="1"/>
        <pt x="597" y="0" on="1"/>
        <pt x="554" y="0" on="1"/>
        <pt x="471" y="186" on="1"/>
        <pt x="146" y="186" on="1"/>
        <pt x="63" y="0" on="1"/>
        <pt x="20" y="0" on="1"/>
      </contour>
      <contour>
        <pt x="307" y="536" on="1"/>
        <pt x="341" y="536" on="0"/>
        <pt x="379" y="565" on="0"/>
        <pt x="379" y="590" on="1"/>
        <pt x="379" y="616" on="0"/>
        <pt x="341" y="645" on="0"/>
        <pt x="307" y="645" on="1"/>
        <pt x="273" y="645" on="0"/>
        <pt x="233" y="616" on="0"/>
        <pt x="233" y="590" on="1"/>
        <pt x="233" y="565" on="0"/>
        <pt x="273" y="536" on="0"/>
      </contour>
      <contour>
        <pt x="456" y="223" on="1"/>
        <pt x="354" y="451" on="1"/>
        <pt x="330" y="504" on="1"/>
        <pt x="286" y="503" on="1"/>
        <pt x="264" y="451" on="1"/>
        <pt x="161" y="223" on="1"/>
      </contour>
    </TTGlyph>
    <TTGlyph name="Atilde" xMin="11" yMin="0" xMax="675" yMax="918">
      <contour>
        <pt x="11" y="5" on="1"/>
        <pt x="308" y="740" on="1"/>
        <pt x="378" y="740" on="1"/>
        <pt x="675" y="5" on="1"/>
        <pt x="675" y="0" on="1"/>
        <pt x="631" y="0" on="1"/>
        <pt x="532" y="245" on="1"/>
        <pt x="154" y="245" on="1"/>
        <pt x="55" y="0" on="1"/>
        <pt x="11" y="0" on="1"/>
      </contour>
      <contour>
        <pt x="516" y="285" on="1"/>
        <pt x="395" y="587" on="1"/>
        <pt x="345" y="709" on="1"/>
        <pt x="341" y="709" on="1"/>
        <pt x="291" y="587" on="1"/>
        <pt x="170" y="285" on="1"/>
      </contour>
      <contour>
        <pt x="158" y="868" on="1"/>
        <pt x="212" y="918" on="0"/>
        <pt x="273" y="918" on="1"/>
        <pt x="297" y="918" on="0"/>
        <pt x="338" y="905" on="0"/>
        <pt x="377" y="888" on="0"/>
        <pt x="415" y="875" on="0"/>
        <pt x="437" y="875" on="1"/>
        <pt x="488" y="875" on="0"/>
        <pt x="535" y="913" on="1"/>
        <pt x="559" y="889" on="1"/>
        <pt x="533" y="865" on="0"/>
        <pt x="469" y="837" on="0"/>
        <pt x="434" y="837" on="1"/>
        <pt x="413" y="837" on="0"/>
        <pt x="373" y="850" on="0"/>
        <pt x="333" y="867" on="0"/>
        <pt x="293" y="880" on="0"/>
        <pt x="274" y="880" on="1"/>
        <pt x="251" y="880" on="0"/>
        <pt x="205" y="863" on="0"/>
        <pt x="182" y="843" on="1"/>
      </contour>
    </TTGlyph>
    <TTGlyph name="Atilde.sc" xMin="19" yMin="0" xMax="596" yMax="721">
      <contour>
        <pt x="19" y="4" on="1"/>
        <pt x="274" y="577" on="1"/>
        <pt x="342" y="577" on="1"/>
        <pt x="596" y="4" on="1"/>
        <pt x="596" y="0" on="1"/>
        <pt x="553" y="0" on="1"/>
        <pt x="470" y="186" on="1"/>
        <pt x="145" y="186" on="1"/>
        <pt x="62" y="0" on="1"/>
        <pt x="19" y="0" on="1"/>
      </contour>
      <contour>
        <pt x="455" y="223" on="1"/>
        <pt x="353" y="451" on="1"/>
        <pt x="309" y="548" on="1"/>
        <pt x="305" y="548" on="1"/>
        <pt x="263" y="451" on="1"/>
        <pt x="160" y="223" on="1"/>
      </contour>
      <contour>
        <pt x="145" y="677" on="1"/>
        <pt x="193" y="721" on="0"/>
        <pt x="247" y="721" on="1"/>
        <pt x="268" y="721" on="0"/>
        <pt x="304" y="711" on="0"/>
        <pt x="337" y="698" on="0"/>
        <pt x="371" y="688" on="0"/>
        <pt x="390" y="688" on="1"/>
        <pt x="433" y="688" on="0"/>
        <pt x="476" y="717" on="1"/>
        <pt x="496" y="697" on="1"/>
        <pt x="473" y="677" on="0"/>
        <pt x="416" y="653" on="0"/>
        <pt x="386" y="653" on="1"/>
        <pt x="368" y="653" on="0"/>
        <pt x="332" y="663" on="0"/>
        <pt x="297" y="676" on="0"/>
        <pt x="263" y="686" on="0"/>
        <pt x="246" y="686" on="1"/>
        <pt x="226" y="686" on="0"/>
        <pt x="185" y="673" on="0"/>
        <pt x="165" y="657" on="1"/>
      </contour>
    </TTGlyph>
    <TTGlyph name="B" xMin="104" yMin="-10" xMax="610" yMax="748">
      <contour>
        <pt x="321" y="-10" on="1"/>
        <pt x="273" y="-10" on="0"/>
        <pt x="167" y="-3" on="0"/>
        <pt x="104" y="5" on="1"/>
        <pt x="104" y="735" on="1"/>
        <pt x="176" y="742" on="0"/>
        <pt x="275" y="748" on="0"/>
        <pt x="319" y="748" on="1"/>
        <pt x="391" y="748" on="0"/>
        <pt x="492" y="727" on="0"/>
        <pt x="556" y="680" on="0"/>
        <pt x="585" y="606" on="0"/>
        <pt x="585" y="553" on="1"/>
        <pt x="585" y="519" on="0"/>
        <pt x="566" y="460" on="0"/>
        <pt x="531" y="414" on="0"/>
        <pt x="482" y="383" on="0"/>
        <pt x="453" y="377" on="1"/>
        <pt x="453" y="373" on="1"/>
        <pt x="610" y="343" on="0"/>
        <pt x="610" y="191" on="1"/>
        <pt x="610" y="91" on="0"/>
        <pt x="464" y="-10" on="0"/>
      </contour>
      <contour>
        <pt x="320" y="29" on="1"/>
        <pt x="447" y="29" on="0"/>
        <pt x="567" y="108" on="0"/>
        <pt x="567" y="192" on="1"/>
        <pt x="567" y="356" on="0"/>
        <pt x="351" y="356" on="1"/>
        <pt x="146" y="356" on="1"/>
        <pt x="146" y="41" on="1"/>
        <pt x="207" y="29" on="0"/>
      </contour>
      <contour>
        <pt x="349" y="394" on="1"/>
        <pt x="453" y="394" on="0"/>
        <pt x="543" y="468" on="0"/>
        <pt x="543" y="553" on="1"/>
        <pt x="543" y="596" on="0"/>
        <pt x="519" y="655" on="0"/>
        <pt x="466" y="692" on="0"/>
        <pt x="380" y="709" on="0"/>
        <pt x="319" y="709" on="1"/>
        <pt x="263" y="709" on="0"/>
        <pt x="181" y="704" on="0"/>
        <pt x="146" y="699" on="1"/>
        <pt x="146" y="394" on="1"/>
      </contour>
    </TTGlyph>
    <TTGlyph name="B.sc" xMin="98" yMin="-8" xMax="537" yMax="583">
      <contour>
        <pt x="287" y="-8" on="1"/>
        <pt x="246" y="-8" on="0"/>
        <pt x="155" y="-2" on="0"/>
        <pt x="98" y="4" on="1"/>
        <pt x="98" y="573" on="1"/>
        <pt x="159" y="578" on="0"/>
        <pt x="247" y="583" on="0"/>
        <pt x="285" y="583" on="1"/>
        <pt x="348" y="583" on="0"/>
        <pt x="436" y="566" on="0"/>
        <pt x="491" y="530" on="0"/>
        <pt x="516" y="472" on="0"/>
        <pt x="516" y="430" on="1"/>
        <pt x="516" y="378" on="0"/>
        <pt x="454" y="303" on="0"/>
        <pt x="403" y="294" on="1"/>
        <pt x="403" y="291" on="1"/>
        <pt x="537" y="267" on="0"/>
        <pt x="537" y="150" on="1"/>
        <pt x="537" y="-8" on="0"/>
      </contour>
      <contour>
        <pt x="286" y="28" on="1"/>
        <pt x="394" y="28" on="0"/>
        <pt x="495" y="88" on="0"/>
        <pt x="495" y="151" on="1"/>
        <pt x="495" y="275" on="0"/>
        <pt x="314" y="275" on="1"/>
        <pt x="139" y="275" on="1"/>
        <pt x="139" y="37" on="1"/>
        <pt x="191" y="28" on="0"/>
      </contour>
      <contour>
        <pt x="311" y="310" on="1"/>
        <pt x="399" y="310" on="0"/>
        <pt x="475" y="366" on="0"/>
        <pt x="475" y="430" on="1"/>
        <pt x="475" y="494" on="0"/>
        <pt x="390" y="548" on="0"/>
        <pt x="286" y="548" on="1"/>
        <pt x="238" y="548" on="0"/>
        <pt x="168" y="545" on="0"/>
        <pt x="139" y="540" on="1"/>
        <pt x="139" y="310" on="1"/>
      </contour>
    </TTGlyph>
    <TTGlyph name="C" xMin="62" yMin="-7" xMax="567" yMax="749">
      <contour>
        <pt x="378" y="-7" on="1"/>
        <pt x="223" y="-7" on="0"/>
        <pt x="62" y="185" on="0"/>
        <pt x="62" y="368" on="1"/>
        <pt x="62" y="556" on="0"/>
        <pt x="227" y="749" on="0"/>
        <pt x="387" y="749" on="1"/>
        <pt x="405" y="749" on="0"/>
        <pt x="451" y="746" on="0"/>
        <pt x="499" y="740" on="0"/>
        <pt x="546" y="732" on="0"/>
        <pt x="567" y="727" on="1"/>
        <pt x="567" y="686" on="1"/>
        <pt x="516" y="697" on="0"/>
        <pt x="422" y="709" on="0"/>
        <pt x="388" y="709" on="1"/>
        <pt x="251" y="709" on="0"/>
        <pt x="104" y="533" on="0"/>
        <pt x="104" y="369" on="1"/>
        <pt x="104" y="206" on="0"/>
        <pt x="244" y="33" on="0"/>
        <pt x="378" y="33" on="1"/>
        <pt x="396" y="33" on="0"/>
        <pt x="447" y="37" on="0"/>
        <pt x="501" y="45" on="0"/>
        <pt x="550" y="53" on="0"/>
        <pt x="567" y="58" on="1"/>
        <pt x="567" y="19" on="1"/>
        <pt x="549" y="14" on="0"/>
        <pt x="499" y="4" on="0"/>
        <pt x="447" y="-3" on="0"/>
        <pt x="397" y="-7" on="0"/>
      </contour>
    </TTGlyph>
    <TTGlyph name="C.sc" xMin="62" yMin="-6" xMax="499" yMax="584">
      <contour>
        <pt x="335" y="-6" on="1"/>
        <pt x="201" y="-6" on="0"/>
        <pt x="62" y="144" on="0"/>
        <pt x="62" y="287" on="1"/>
        <pt x="62" y="433" on="0"/>
        <pt x="205" y="584" on="0"/>
        <pt x="342" y="584" on="1"/>
        <pt x="358" y="584" on="0"/>
        <pt x="397" y="581" on="0"/>
        <pt x="439" y="577" on="0"/>
        <pt x="481" y="571" on="0"/>
        <pt x="499" y="567" on="1"/>
        <pt x="499" y="528" on="1"/>
        <pt x="454" y="537" on="0"/>
        <pt x="373" y="546" on="0"/>
        <pt x="344" y="546" on="1"/>
        <pt x="229" y="546" on="0"/>
        <pt x="104" y="413" on="0"/>
        <pt x="104" y="288" on="1"/>
        <pt x="104" y="163" on="0"/>
        <pt x="222" y="33" on="0"/>
        <pt x="335" y="33" on="1"/>
        <pt x="351" y="33" on="0"/>
        <pt x="396" y="36" on="0"/>
        <pt x="442" y="41" on="0"/>
        <pt x="485" y="48" on="0"/>
        <pt x="499" y="52" on="1"/>
        <pt x="499" y="15" on="1"/>
        <pt x="483" y="11" on="0"/>
        <pt x="439" y="3" on="0"/>
        <pt x="394" y="-3" on="0"/>
        <pt x="351" y="-6" on="0"/>
      </contour>
    </TTGlyph>
    <TTGlyph name="Cacute" xMin="62" yMin="-7" xMax="567" yMax="933">
      <contour>
        <pt x="378" y="-7" on="1"/>
        <pt x="223" y="-7" on="0"/>
        <pt x="62" y="185" on="0"/>
        <pt x="62" y="368" on="1"/>
        <pt x="62" y="556" on="0"/>
        <pt x="227" y="749" on="0"/>
        <pt x="387" y="749" on="1"/>
        <pt x="405" y="749" on="0"/>
        <pt x="451" y="746" on="0"/>
        <pt x="499" y="740" on="0"/>
        <pt x="546" y="732" on="0"/>
        <pt x="567" y="727" on="1"/>
        <pt x="567" y="686" on="1"/>
        <pt x="516" y="697" on="0"/>
        <pt x="422" y="709" on="0"/>
        <pt x="388" y="709" on="1"/>
        <pt x="251" y="709" on="0"/>
        <pt x="104" y="533" on="0"/>
        <pt x="104" y="369" on="1"/>
        <pt x="104" y="206" on="0"/>
        <pt x="244" y="33" on="0"/>
        <pt x="378" y="33" on="1"/>
        <pt x="396" y="33" on="0"/>
        <pt x="447" y="37" on="0"/>
        <pt x="501" y="45" on="0"/>
        <pt x="550" y="53" on="0"/>
        <pt x="567" y="58" on="1"/>
        <pt x="567" y="19" on="1"/>
        <pt x="549" y="14" on="0"/>
        <pt x="499" y="4" on="0"/>
        <pt x="447" y="-3" on="0"/>
        <pt x="397" y="-7" on="0"/>
      </contour>
      <contour>
        <pt x="336" y="810" on="1"/>
        <pt x="415" y="933" on="1"/>
        <pt x="461" y="933" on="1"/>
        <pt x="374" y="804" on="1"/>
      </contour>
    </TTGlyph>
    <TTGlyph name="Cacute.sc" xMin="62" yMin="-6" xMax="499" yMax="732">
      <contour>
        <pt x="335" y="-6" on="1"/>
        <pt x="201" y="-6" on="0"/>
        <pt x="62" y="144" on="0"/>
        <pt x="62" y="287" on="1"/>
        <pt x="62" y="433" on="0"/>
        <pt x="205" y="584" on="0"/>
        <pt x="342" y="584" on="1"/>
        <pt x="374" y="584" on="0"/>
        <pt x="462" y="575" on="0"/>
        <pt x="499" y="567" on="1"/>
        <pt x="499" y="528" on="1"/>
        <pt x="453" y="537" on="0"/>
        <pt x="372" y="546" on="0"/>
        <pt x="344" y="546" on="1"/>
        <pt x="229" y="546" on="0"/>
        <pt x="104" y="413" on="0"/>
        <pt x="104" y="288" on="1"/>
        <pt x="104" y="163" on="0"/>
        <pt x="222" y="33" on="0"/>
        <pt x="335" y="33" on="1"/>
        <pt x="351" y="33" on="0"/>
        <pt x="396" y="36" on="0"/>
        <pt x="442" y="41" on="0"/>
        <pt x="485" y="48" on="0"/>
        <pt x="499" y="52" on="1"/>
        <pt x="499" y="15" on="1"/>
        <pt x="483" y="11" on="0"/>
        <pt x="439" y="3" on="0"/>
        <pt x="394" y="-3" on="0"/>
        <pt x="351" y="-6" on="0"/>
      </contour>
      <contour>
        <pt x="296" y="633" on="1"/>
        <pt x="363" y="732" on="1"/>
        <pt x="408" y="732" on="1"/>
        <pt x="332" y="628" on="1"/>
      </contour>
    </TTGlyph>
    <TTGlyph name="Ccaron" xMin="62" yMin="-7" xMax="567" yMax="936">
      <contour>
        <pt x="378" y="-7" on="1"/>
        <pt x="223" y="-7" on="0"/>
        <pt x="62" y="185" on="0"/>
        <pt x="62" y="368" on="1"/>
        <pt x="62" y="556" on="0"/>
        <pt x="227" y="749" on="0"/>
        <pt x="387" y="749" on="1"/>
        <pt x="405" y="749" on="0"/>
        <pt x="451" y="746" on="0"/>
        <pt x="499" y="740" on="0"/>
        <pt x="546" y="732" on="0"/>
        <pt x="567" y="727" on="1"/>
        <pt x="567" y="686" on="1"/>
        <pt x="516" y="697" on="0"/>
        <pt x="422" y="709" on="0"/>
        <pt x="388" y="709" on="1"/>
        <pt x="251" y="709" on="0"/>
        <pt x="104" y="533" on="0"/>
        <pt x="104" y="369" on="1"/>
        <pt x="104" y="206" on="0"/>
        <pt x="244" y="33" on="0"/>
        <pt x="378" y="33" on="1"/>
        <pt x="396" y="33" on="0"/>
        <pt x="447" y="37" on="0"/>
        <pt x="501" y="45" on="0"/>
        <pt x="550" y="53" on="0"/>
        <pt x="567" y="58" on="1"/>
        <pt x="567" y="19" on="1"/>
        <pt x="549" y="14" on="0"/>
        <pt x="499" y="4" on="0"/>
        <pt x="447" y="-3" on="0"/>
        <pt x="397" y="-7" on="0"/>
      </contour>
      <contour>
        <pt x="208" y="936" on="1"/>
        <pt x="362" y="864" on="1"/>
        <pt x="517" y="936" on="1"/>
        <pt x="517" y="890" on="1"/>
        <pt x="362" y="818" on="1"/>
        <pt x="208" y="890" on="1"/>
      </contour>
    </TTGlyph>
    <TTGlyph name="Ccaron.sc" xMin="62" yMin="-6" xMax="499" yMax="735">
      <contour>
        <pt x="335" y="-6" on="1"/>
        <pt x="201" y="-6" on="0"/>
        <pt x="62" y="144" on="0"/>
        <pt x="62" y="287" on="1"/>
        <pt x="62" y="433" on="0"/>
        <pt x="205" y="584" on="0"/>
        <pt x="342" y="584" on="1"/>
        <pt x="374" y="584" on="0"/>
        <pt x="462" y="575" on="0"/>
        <pt x="499" y="567" on="1"/>
        <pt x="499" y="528" on="1"/>
        <pt x="453" y="537" on="0"/>
        <pt x="372" y="546" on="0"/>
        <pt x="344" y="546" on="1"/>
        <pt x="229" y="546" on="0"/>
        <pt x="104" y="413" on="0"/>
        <pt x="104" y="288" on="1"/>
        <pt x="104" y="163" on="0"/>
        <pt x="222" y="33" on="0"/>
        <pt x="335" y="33" on="1"/>
        <pt x="351" y="33" on="0"/>
        <pt x="396" y="36" on="0"/>
        <pt x="442" y="41" on="0"/>
        <pt x="485" y="48" on="0"/>
        <pt x="499" y="52" on="1"/>
        <pt x="499" y="15" on="1"/>
        <pt x="483" y="11" on="0"/>
        <pt x="439" y="3" on="0"/>
        <pt x="394" y="-3" on="0"/>
        <pt x="351" y="-6" on="0"/>
      </contour>
      <contour>
        <pt x="185" y="735" on="1"/>
        <pt x="321" y="678" on="1"/>
        <pt x="455" y="735" on="1"/>
        <pt x="455" y="695" on="1"/>
        <pt x="321" y="638" on="1"/>
        <pt x="185" y="695" on="1"/>
      </contour>
    </TTGlyph>
    <TTGlyph name="Ccedilla" xMin="62" yMin="-220" xMax="567" yMax="749">
      <contour>
        <pt x="309" y="-220" on="1"/>
        <pt x="290" y="-220" on="0"/>
        <pt x="246" y="-214" on="0"/>
        <pt x="225" y="-208" on="1"/>
        <pt x="225" y="-170" on="1"/>
        <pt x="249" y="-176" on="0"/>
        <pt x="279" y="-180" on="0"/>
        <pt x="295" y="-180" on="1"/>
        <pt x="346" y="-180" on="0"/>
        <pt x="385" y="-146" on="0"/>
        <pt x="385" y="-104" on="1"/>
        <pt x="385" y="-81" on="0"/>
        <pt x="372" y="-41" on="0"/>
        <pt x="354" y="-6" on="1"/>
        <pt x="211" y="1" on="0"/>
        <pt x="62" y="191" on="0"/>
        <pt x="62" y="368" on="1"/>
        <pt x="62" y="556" on="0"/>
        <pt x="227" y="749" on="0"/>
        <pt x="387" y="749" on="1"/>
        <pt x="405" y="749" on="0"/>
        <pt x="451" y="746" on="0"/>
        <pt x="499" y="740" on="0"/>
        <pt x="546" y="732" on="0"/>
        <pt x="567" y="727" on="1"/>
        <pt x="567" y="686" on="1"/>
        <pt x="516" y="697" on="0"/>
        <pt x="422" y="709" on="0"/>
        <pt x="388" y="709" on="1"/>
        <pt x="251" y="709" on="0"/>
        <pt x="104" y="533" on="0"/>
        <pt x="104" y="369" on="1"/>
        <pt x="104" y="206" on="0"/>
        <pt x="244" y="33" on="0"/>
        <pt x="378" y="33" on="1"/>
        <pt x="396" y="33" on="0"/>
        <pt x="447" y="37" on="0"/>
        <pt x="501" y="45" on="0"/>
        <pt x="550" y="53" on="0"/>
        <pt x="567" y="58" on="1"/>
        <pt x="567" y="19" on="1"/>
        <pt x="550" y="14" on="0"/>
        <pt x="508" y="6" on="0"/>
        <pt x="461" y="-1" on="0"/>
        <pt x="415" y="-5" on="0"/>
        <pt x="396" y="-6" on="1"/>
        <pt x="406" y="-26" on="0"/>
        <pt x="418" y="-54" on="0"/>
        <pt x="425" y="-76" on="0"/>
        <pt x="428" y="-94" on="0"/>
        <pt x="428" y="-104" on="1"/>
        <pt x="428" y="-161" on="0"/>
        <pt x="366" y="-220" on="0"/>
      </contour>
    </TTGlyph>
    <TTGlyph name="Ccedilla.sc" xMin="62" yMin="-172" xMax="499" yMax="584">
      <contour>
        <pt x="278" y="-172" on="1"/>
        <pt x="264" y="-172" on="0"/>
        <pt x="224" y="-167" on="0"/>
        <pt x="204" y="-162" on="1"/>
        <pt x="204" y="-128" on="1"/>
        <pt x="229" y="-137" on="0"/>
        <pt x="263" y="-137" on="1"/>
        <pt x="308" y="-137" on="0"/>
        <pt x="340" y="-108" on="0"/>
        <pt x="340" y="-73" on="1"/>
        <pt x="340" y="-61" on="0"/>
        <pt x="331" y="-34" on="0"/>
        <pt x="314" y="-6" on="1"/>
        <pt x="190" y="-1" on="0"/>
        <pt x="62" y="149" on="0"/>
        <pt x="62" y="287" on="1"/>
        <pt x="62" y="433" on="0"/>
        <pt x="205" y="584" on="0"/>
        <pt x="342" y="584" on="1"/>
        <pt x="374" y="584" on="0"/>
        <pt x="462" y="575" on="0"/>
        <pt x="499" y="567" on="1"/>
        <pt x="499" y="528" on="1"/>
        <pt x="453" y="537" on="0"/>
        <pt x="372" y="546" on="0"/>
        <pt x="344" y="546" on="1"/>
        <pt x="229" y="546" on="0"/>
        <pt x="104" y="413" on="0"/>
        <pt x="104" y="288" on="1"/>
        <pt x="104" y="163" on="0"/>
        <pt x="222" y="33" on="0"/>
        <pt x="335" y="33" on="1"/>
        <pt x="351" y="33" on="0"/>
        <pt x="396" y="36" on="0"/>
        <pt x="442" y="41" on="0"/>
        <pt x="485" y="48" on="0"/>
        <pt x="499" y="52" on="1"/>
        <pt x="499" y="15" on="1"/>
        <pt x="485" y="11" on="0"/>
        <pt x="448" y="5" on="0"/>
        <pt x="408" y="-1" on="0"/>
        <pt x="368" y="-4" on="0"/>
        <pt x="352" y="-5" on="1"/>
        <pt x="368" y="-34" on="0"/>
        <pt x="379" y="-65" on="0"/>
        <pt x="379" y="-80" on="1"/>
        <pt x="379" y="-125" on="0"/>
        <pt x="328" y="-172" on="0"/>
      </contour>
    </TTGlyph>
    <TTGlyph name="Ccircumflex" xMin="62" yMin="-7" xMax="567" yMax="936">
      <contour>
        <pt x="378" y="-7" on="1"/>
        <pt x="223" y="-7" on="0"/>
        <pt x="62" y="185" on="0"/>
        <pt x="62" y="368" on="1"/>
        <pt x="62" y="556" on="0"/>
        <pt x="227" y="749" on="0"/>
        <pt x="387" y="749" on="1"/>
        <pt x="405" y="749" on="0"/>
        <pt x="451" y="746" on="0"/>
        <pt x="499" y="740" on="0"/>
        <pt x="546" y="732" on="0"/>
        <pt x="567" y="727" on="1"/>
        <pt x="567" y="686" on="1"/>
        <pt x="516" y="697" on="0"/>
        <pt x="422" y="709" on="0"/>
        <pt x="388" y="709" on="1"/>
        <pt x="251" y="709" on="0"/>
        <pt x="104" y="533" on="0"/>
        <pt x="104" y="369" on="1"/>
        <pt x="104" y="206" on="0"/>
        <pt x="244" y="33" on="0"/>
        <pt x="378" y="33" on="1"/>
        <pt x="396" y="33" on="0"/>
        <pt x="447" y="37" on="0"/>
        <pt x="501" y="45" on="0"/>
        <pt x="550" y="53" on="0"/>
        <pt x="567" y="58" on="1"/>
        <pt x="567" y="19" on="1"/>
        <pt x="549" y="14" on="0"/>
        <pt x="499" y="4" on="0"/>
        <pt x="447" y="-3" on="0"/>
        <pt x="397" y="-7" on="0"/>
      </contour>
      <contour>
        <pt x="208" y="864" on="1"/>
        <pt x="362" y="936" on="1"/>
        <pt x="517" y="864" on="1"/>
        <pt x="517" y="818" on="1"/>
        <pt x="362" y="890" on="1"/>
        <pt x="208" y="818" on="1"/>
      </contour>
    </TTGlyph>
    <TTGlyph name="Ccircumflex.sc" xMin="62" yMin="-6" xMax="499" yMax="735">
      <contour>
        <pt x="335" y="-6" on="1"/>
        <pt x="201" y="-6" on="0"/>
        <pt x="62" y="144" on="0"/>
        <pt x="62" y="287" on="1"/>
        <pt x="62" y="433" on="0"/>
        <pt x="205" y="584" on="0"/>
        <pt x="342" y="584" on="1"/>
        <pt x="374" y="584" on="0"/>
        <pt x="462" y="575" on="0"/>
        <pt x="499" y="567" on="1"/>
        <pt x="499" y="528" on="1"/>
        <pt x="453" y="537" on="0"/>
        <pt x="372" y="546" on="0"/>
        <pt x="344" y="546" on="1"/>
        <pt x="229" y="546" on="0"/>
        <pt x="104" y="413" on="0"/>
        <pt x="104" y="288" on="1"/>
        <pt x="104" y="163" on="0"/>
        <pt x="222" y="33" on="0"/>
        <pt x="335" y="33" on="1"/>
        <pt x="351" y="33" on="0"/>
        <pt x="396" y="36" on="0"/>
        <pt x="442" y="41" on="0"/>
        <pt x="485" y="48" on="0"/>
        <pt x="499" y="52" on="1"/>
        <pt x="499" y="15" on="1"/>
        <pt x="483" y="11" on="0"/>
        <pt x="439" y="3" on="0"/>
        <pt x="394" y="-3" on="0"/>
        <pt x="351" y="-6" on="0"/>
      </contour>
      <contour>
        <pt x="185" y="677" on="1"/>
        <pt x="321" y="735" on="1"/>
        <pt x="456" y="677" on="1"/>
        <pt x="456" y="637" on="1"/>
        <pt x="321" y="694" on="1"/>
        <pt x="185" y="637" on="1"/>
      </contour>
    </TTGlyph>
    <TTGlyph name="Cdotaccent" xMin="62" yMin="-7" xMax="567" yMax="900">
      <contour>
        <pt x="363" y="827" on="1"/>
        <pt x="346" y="827" on="0"/>
        <pt x="326" y="844" on="0"/>
        <pt x="326" y="863" on="1"/>
        <pt x="326" y="882" on="0"/>
        <pt x="346" y="900" on="0"/>
        <pt x="363" y="900" on="1"/>
        <pt x="378" y="900" on="0"/>
        <pt x="400" y="883" on="0"/>
        <pt x="400" y="863" on="1"/>
        <pt x="400" y="843" on="0"/>
        <pt x="378" y="827" on="0"/>
      </contour>
      <contour>
        <pt x="378" y="-7" on="1"/>
        <pt x="223" y="-7" on="0"/>
        <pt x="62" y="185" on="0"/>
        <pt x="62" y="368" on="1"/>
        <pt x="62" y="556" on="0"/>
        <pt x="227" y="749" on="0"/>
        <pt x="387" y="749" on="1"/>
        <pt x="405" y="749" on="0"/>
        <pt x="451" y="746" on="0"/>
        <pt x="499" y="740" on="0"/>
        <pt x="546" y="732" on="0"/>
        <pt x="567" y="727" on="1"/>
        <pt x="567" y="686" on="1"/>
        <pt x="516" y="697" on="0"/>
        <pt x="422" y="709" on="0"/>
        <pt x="388" y="709" on="1"/>
        <pt x="251" y="709" on="0"/>
        <pt x="104" y="533" on="0"/>
        <pt x="104" y="369" on="1"/>
        <pt x="104" y="206" on="0"/>
        <pt x="244" y="33" on="0"/>
        <pt x="378" y="33" on="1"/>
        <pt x="396" y="33" on="0"/>
        <pt x="447" y="37" on="0"/>
        <pt x="501" y="45" on="0"/>
        <pt x="550" y="53" on="0"/>
        <pt x="567" y="58" on="1"/>
        <pt x="567" y="19" on="1"/>
        <pt x="549" y="14" on="0"/>
        <pt x="499" y="4" on="0"/>
        <pt x="447" y="-3" on="0"/>
        <pt x="397" y="-7" on="0"/>
      </contour>
    </TTGlyph>
    <TTGlyph name="Cdotaccent.sc" xMin="62" yMin="-6" xMax="499" yMax="709">
      <contour>
        <pt x="335" y="-6" on="1"/>
        <pt x="201" y="-6" on="0"/>
        <pt x="62" y="144" on="0"/>
        <pt x="62" y="287" on="1"/>
        <pt x="62" y="433" on="0"/>
        <pt x="205" y="584" on="0"/>
        <pt x="342" y="584" on="1"/>
        <pt x="374" y="584" on="0"/>
        <pt x="462" y="575" on="0"/>
        <pt x="499" y="567" on="1"/>
        <pt x="499" y="528" on="1"/>
        <pt x="453" y="537" on="0"/>
        <pt x="372" y="546" on="0"/>
        <pt x="344" y="546" on="1"/>
        <pt x="229" y="546" on="0"/>
        <pt x="104" y="413" on="0"/>
        <pt x="104" y="288" on="1"/>
        <pt x="104" y="163" on="0"/>
        <pt x="222" y="33" on="0"/>
        <pt x="335" y="33" on="1"/>
        <pt x="351" y="33" on="0"/>
        <pt x="396" y="36" on="0"/>
        <pt x="442" y="41" on="0"/>
        <pt x="485" y="48" on="0"/>
        <pt x="499" y="52" on="1"/>
        <pt x="499" y="15" on="1"/>
        <pt x="483" y="11" on="0"/>
        <pt x="439" y="3" on="0"/>
        <pt x="394" y="-3" on="0"/>
        <pt x="351" y="-6" on="0"/>
      </contour>
      <contour>
        <pt x="323" y="645" on="1"/>
        <pt x="288" y="645" on="0"/>
        <pt x="288" y="677" on="1"/>
        <pt x="288" y="709" on="0"/>
        <pt x="323" y="709" on="1"/>
        <pt x="337" y="709" on="0"/>
        <pt x="357" y="694" on="0"/>
        <pt x="357" y="677" on="1"/>
        <pt x="357" y="660" on="0"/>
        <pt x="337" y="645" on="0"/>
      </contour>
    </TTGlyph>
    <TTGlyph name="D" xMin="104" yMin="-9" xMax="688" yMax="748">
      <contour>
        <pt x="298" y="-9" on="1"/>
        <pt x="231" y="-9" on="0"/>
        <pt x="124" y="1" on="0"/>
        <pt x="104" y="9" on="1"/>
        <pt x="104" y="739" on="1"/>
        <pt x="121" y="740" on="0"/>
        <pt x="173" y="744" on="0"/>
        <pt x="229" y="746" on="0"/>
        <pt x="282" y="748" on="0"/>
        <pt x="300" y="748" on="1"/>
        <pt x="500" y="748" on="0"/>
        <pt x="688" y="565" on="0"/>
        <pt x="688" y="371" on="1"/>
        <pt x="688" y="175" on="0"/>
        <pt x="499" y="-9" on="0"/>
      </contour>
      <contour>
        <pt x="302" y="31" on="1"/>
        <pt x="477" y="31" on="0"/>
        <pt x="645" y="197" on="0"/>
        <pt x="645" y="371" on="1"/>
        <pt x="645" y="544" on="0"/>
        <pt x="479" y="707" on="0"/>
        <pt x="301" y="707" on="1"/>
        <pt x="286" y="707" on="0"/>
        <pt x="246" y="706" on="0"/>
        <pt x="204" y="703" on="0"/>
        <pt x="163" y="700" on="0"/>
        <pt x="147" y="699" on="1"/>
        <pt x="147" y="42" on="1"/>
        <pt x="171" y="39" on="0"/>
        <pt x="209" y="34" on="0"/>
        <pt x="244" y="32" on="0"/>
        <pt x="280" y="31" on="0"/>
      </contour>
    </TTGlyph>
    <TTGlyph name="D.sc" xMin="98" yMin="-7" xMax="606" yMax="583">
      <contour>
        <pt x="269" y="-7" on="1"/>
        <pt x="210" y="-7" on="0"/>
        <pt x="115" y="1" on="0"/>
        <pt x="98" y="8" on="1"/>
        <pt x="98" y="577" on="1"/>
        <pt x="113" y="578" on="0"/>
        <pt x="159" y="580" on="0"/>
        <pt x="208" y="582" on="0"/>
        <pt x="254" y="583" on="0"/>
        <pt x="269" y="583" on="1"/>
        <pt x="443" y="583" on="0"/>
        <pt x="606" y="442" on="0"/>
        <pt x="606" y="289" on="1"/>
        <pt x="606" y="137" on="0"/>
        <pt x="443" y="-7" on="0"/>
      </contour>
      <contour>
        <pt x="274" y="31" on="1"/>
        <pt x="422" y="31" on="0"/>
        <pt x="564" y="156" on="0"/>
        <pt x="564" y="289" on="1"/>
        <pt x="564" y="421" on="0"/>
        <pt x="423" y="544" on="0"/>
        <pt x="272" y="544" on="1"/>
        <pt x="259" y="544" on="0"/>
        <pt x="225" y="543" on="0"/>
        <pt x="188" y="541" on="0"/>
        <pt x="153" y="540" on="0"/>
        <pt x="139" y="539" on="1"/>
        <pt x="139" y="40" on="1"/>
        <pt x="160" y="37" on="0"/>
        <pt x="193" y="34" on="0"/>
        <pt x="224" y="32" on="0"/>
        <pt x="255" y="31" on="0"/>
      </contour>
    </TTGlyph>
    <TTGlyph name="Dcaron" xMin="104" yMin="-9" xMax="688" yMax="936">
      <contour>
        <pt x="185" y="936" on="1"/>
        <pt x="339" y="864" on="1"/>
        <pt x="494" y="936" on="1"/>
        <pt x="494" y="890" on="1"/>
        <pt x="339" y="818" on="1"/>
        <pt x="185" y="890" on="1"/>
      </contour>
      <contour>
        <pt x="298" y="-9" on="1"/>
        <pt x="231" y="-9" on="0"/>
        <pt x="124" y="1" on="0"/>
        <pt x="104" y="9" on="1"/>
        <pt x="104" y="739" on="1"/>
        <pt x="121" y="740" on="0"/>
        <pt x="173" y="744" on="0"/>
        <pt x="229" y="746" on="0"/>
        <pt x="282" y="748" on="0"/>
        <pt x="300" y="748" on="1"/>
        <pt x="500" y="748" on="0"/>
        <pt x="688" y="565" on="0"/>
        <pt x="688" y="371" on="1"/>
        <pt x="688" y="175" on="0"/>
        <pt x="499" y="-9" on="0"/>
      </contour>
      <contour>
        <pt x="302" y="31" on="1"/>
        <pt x="477" y="31" on="0"/>
        <pt x="645" y="197" on="0"/>
        <pt x="645" y="371" on="1"/>
        <pt x="645" y="544" on="0"/>
        <pt x="479" y="707" on="0"/>
        <pt x="301" y="707" on="1"/>
        <pt x="286" y="707" on="0"/>
        <pt x="246" y="706" on="0"/>
        <pt x="204" y="703" on="0"/>
        <pt x="163" y="700" on="0"/>
        <pt x="147" y="699" on="1"/>
        <pt x="147" y="42" on="1"/>
        <pt x="171" y="39" on="0"/>
        <pt x="209" y="34" on="0"/>
        <pt x="244" y="32" on="0"/>
        <pt x="280" y="31" on="0"/>
      </contour>
    </TTGlyph>
    <TTGlyph name="Dcaron.sc" xMin="98" yMin="-7" xMax="606" yMax="735">
      <contour>
        <pt x="269" y="-7" on="1"/>
        <pt x="210" y="-7" on="0"/>
        <pt x="115" y="1" on="0"/>
        <pt x="98" y="8" on="1"/>
        <pt x="98" y="577" on="1"/>
        <pt x="113" y="578" on="0"/>
        <pt x="159" y="580" on="0"/>
        <pt x="208" y="582" on="0"/>
        <pt x="254" y="583" on="0"/>
        <pt x="269" y="583" on="1"/>
        <pt x="443" y="583" on="0"/>
        <pt x="606" y="442" on="0"/>
        <pt x="606" y="289" on="1"/>
        <pt x="606" y="137" on="0"/>
        <pt x="443" y="-7" on="0"/>
      </contour>
      <contour>
        <pt x="274" y="31" on="1"/>
        <pt x="422" y="31" on="0"/>
        <pt x="564" y="156" on="0"/>
        <pt x="564" y="289" on="1"/>
        <pt x="564" y="421" on="0"/>
        <pt x="423" y="544" on="0"/>
        <pt x="272" y="544" on="1"/>
        <pt x="259" y="544" on="0"/>
        <pt x="225" y="543" on="0"/>
        <pt x="188" y="541" on="0"/>
        <pt x="153" y="540" on="0"/>
        <pt x="139" y="539" on="1"/>
        <pt x="139" y="40" on="1"/>
        <pt x="160" y="37" on="0"/>
        <pt x="193" y="34" on="0"/>
        <pt x="224" y="32" on="0"/>
        <pt x="255" y="31" on="0"/>
      </contour>
      <contour>
        <pt x="169" y="695" on="1"/>
        <pt x="169" y="735" on="1"/>
        <pt x="304" y="678" on="1"/>
        <pt x="440" y="735" on="1"/>
        <pt x="440" y="695" on="1"/>
        <pt x="304" y="638" on="1"/>
      </contour>
    </TTGlyph>
    <TTGlyph name="Dcroat" xMin="7" yMin="-9" xMax="693" yMax="748">
      <contour>
        <pt x="7" y="388" on="1"/>
        <pt x="109" y="388" on="1"/>
        <pt x="109" y="739" on="1"/>
        <pt x="126" y="740" on="0"/>
        <pt x="178" y="744" on="0"/>
        <pt x="234" y="746" on="0"/>
        <pt x="287" y="748" on="0"/>
        <pt x="305" y="748" on="1"/>
        <pt x="505" y="748" on="0"/>
        <pt x="693" y="565" on="0"/>
        <pt x="693" y="371" on="1"/>
        <pt x="693" y="175" on="0"/>
        <pt x="504" y="-9" on="0"/>
        <pt x="303" y="-9" on="1"/>
        <pt x="236" y="-9" on="0"/>
        <pt x="129" y="1" on="0"/>
        <pt x="109" y="9" on="1"/>
        <pt x="109" y="348" on="1"/>
        <pt x="7" y="348" on="1"/>
      </contour>
      <contour>
        <pt x="307" y="31" on="1"/>
        <pt x="482" y="31" on="0"/>
        <pt x="650" y="197" on="0"/>
        <pt x="650" y="371" on="1"/>
        <pt x="650" y="544" on="0"/>
        <pt x="484" y="707" on="0"/>
        <pt x="306" y="707" on="1"/>
        <pt x="291" y="707" on="0"/>
        <pt x="251" y="706" on="0"/>
        <pt x="209" y="703" on="0"/>
        <pt x="168" y="700" on="0"/>
        <pt x="152" y="699" on="1"/>
        <pt x="152" y="388" on="1"/>
        <pt x="381" y="388" on="1"/>
        <pt x="381" y="348" on="1"/>
        <pt x="152" y="348" on="1"/>
        <pt x="152" y="42" on="1"/>
        <pt x="176" y="39" on="0"/>
        <pt x="214" y="34" on="0"/>
        <pt x="249" y="32" on="0"/>
        <pt x="285" y="31" on="0"/>
      </contour>
    </TTGlyph>
    <TTGlyph name="Dcroat.sc" xMin="16" yMin="-7" xMax="612" yMax="583">
      <contour>
        <pt x="16" y="306" on="1"/>
        <pt x="104" y="306" on="1"/>
        <pt x="104" y="577" on="1"/>
        <pt x="119" y="578" on="0"/>
        <pt x="165" y="580" on="0"/>
        <pt x="214" y="582" on="0"/>
        <pt x="260" y="583" on="0"/>
        <pt x="275" y="583" on="1"/>
        <pt x="449" y="583" on="0"/>
        <pt x="612" y="441" on="0"/>
        <pt x="612" y="289" on="1"/>
        <pt x="612" y="136" on="0"/>
        <pt x="448" y="-7" on="0"/>
        <pt x="273" y="-7" on="1"/>
        <pt x="214" y="-7" on="0"/>
        <pt x="121" y="1" on="0"/>
        <pt x="104" y="8" on="1"/>
        <pt x="104" y="269" on="1"/>
        <pt x="16" y="269" on="1"/>
      </contour>
      <contour>
        <pt x="280" y="31" on="1"/>
        <pt x="428" y="31" on="0"/>
        <pt x="569" y="156" on="0"/>
        <pt x="569" y="289" on="1"/>
        <pt x="569" y="422" on="0"/>
        <pt x="429" y="544" on="0"/>
        <pt x="278" y="544" on="1"/>
        <pt x="265" y="544" on="0"/>
        <pt x="230" y="543" on="0"/>
        <pt x="194" y="542" on="0"/>
        <pt x="159" y="540" on="0"/>
        <pt x="145" y="539" on="1"/>
        <pt x="145" y="306" on="1"/>
        <pt x="340" y="306" on="1"/>
        <pt x="340" y="269" on="1"/>
        <pt x="145" y="269" on="1"/>
        <pt x="145" y="40" on="1"/>
        <pt x="166" y="37" on="0"/>
        <pt x="199" y="34" on="0"/>
        <pt x="230" y="32" on="0"/>
        <pt x="261" y="31" on="0"/>
      </contour>
    </TTGlyph>
    <TTGlyph name="Ddotbelow" xMin="104" yMin="-172" xMax="688" yMax="748">
      <contour>
        <pt x="355" y="-172" on="1"/>
        <pt x="337" y="-172" on="0"/>
        <pt x="316" y="-154" on="0"/>
        <pt x="316" y="-133" on="1"/>
        <pt x="316" y="-112" on="0"/>
        <pt x="337" y="-93" on="0"/>
        <pt x="355" y="-93" on="1"/>
        <pt x="372" y="-93" on="0"/>
        <pt x="395" y="-111" on="0"/>
        <pt x="395" y="-133" on="1"/>
        <pt x="395" y="-155" on="0"/>
        <pt x="372" y="-172" on="0"/>
      </contour>
      <contour>
        <pt x="298" y="-9" on="1"/>
        <pt x="231" y="-9" on="0"/>
        <pt x="124" y="1" on="0"/>
        <pt x="104" y="9" on="1"/>
        <pt x="104" y="739" on="1"/>
        <pt x="121" y="740" on="0"/>
        <pt x="173" y="744" on="0"/>
        <pt x="229" y="746" on="0"/>
        <pt x="282" y="748" on="0"/>
        <pt x="300" y="748" on="1"/>
        <pt x="500" y="748" on="0"/>
        <pt x="688" y="565" on="0"/>
        <pt x="688" y="371" on="1"/>
        <pt x="688" y="175" on="0"/>
        <pt x="499" y="-9" on="0"/>
      </contour>
      <contour>
        <pt x="302" y="31" on="1"/>
        <pt x="477" y="31" on="0"/>
        <pt x="645" y="197" on="0"/>
        <pt x="645" y="371" on="1"/>
        <pt x="645" y="544" on="0"/>
        <pt x="479" y="707" on="0"/>
        <pt x="301" y="707" on="1"/>
        <pt x="286" y="707" on="0"/>
        <pt x="246" y="706" on="0"/>
        <pt x="204" y="703" on="0"/>
        <pt x="163" y="700" on="0"/>
        <pt x="147" y="699" on="1"/>
        <pt x="147" y="42" on="1"/>
        <pt x="171" y="39" on="0"/>
        <pt x="209" y="34" on="0"/>
        <pt x="244" y="32" on="0"/>
        <pt x="280" y="31" on="0"/>
      </contour>
    </TTGlyph>
    <TTGlyph name="Ddotbelow.sc" xMin="98" yMin="-137" xMax="606" yMax="583">
      <contour>
        <pt x="269" y="-7" on="1"/>
        <pt x="210" y="-7" on="0"/>
        <pt x="115" y="1" on="0"/>
        <pt x="98" y="8" on="1"/>
        <pt x="98" y="577" on="1"/>
        <pt x="113" y="578" on="0"/>
        <pt x="159" y="580" on="0"/>
        <pt x="208" y="582" on="0"/>
        <pt x="254" y="583" on="0"/>
        <pt x="269" y="583" on="1"/>
        <pt x="443" y="583" on="0"/>
        <pt x="606" y="442" on="0"/>
        <pt x="606" y="289" on="1"/>
        <pt x="606" y="137" on="0"/>
        <pt x="443" y="-7" on="0"/>
      </contour>
      <contour>
        <pt x="274" y="31" on="1"/>
        <pt x="422" y="31" on="0"/>
        <pt x="564" y="156" on="0"/>
        <pt x="564" y="289" on="1"/>
        <pt x="564" y="421" on="0"/>
        <pt x="423" y="544" on="0"/>
        <pt x="272" y="544" on="1"/>
        <pt x="259" y="544" on="0"/>
        <pt x="225" y="543" on="0"/>
        <pt x="188" y="541" on="0"/>
        <pt x="153" y="540" on="0"/>
        <pt x="139" y="539" on="1"/>
        <pt x="139" y="40" on="1"/>
        <pt x="160" y="37" on="0"/>
        <pt x="193" y="34" on="0"/>
        <pt x="224" y="32" on="0"/>
        <pt x="255" y="31" on="0"/>
      </contour>
      <contour>
        <pt x="317" y="-137" on="1"/>
        <pt x="282" y="-137" on="0"/>
        <pt x="282" y="-104" on="1"/>
        <pt x="282" y="-70" on="0"/>
        <pt x="317" y="-70" on="1"/>
        <pt x="333" y="-70" on="0"/>
        <pt x="353" y="-86" on="0"/>
        <pt x="353" y="-104" on="1"/>
        <pt x="353" y="-122" on="0"/>
        <pt x="333" y="-137" on="0"/>
      </contour>
    </TTGlyph>
    <TTGlyph name="Delta" xMin="28" yMin="0" xMax="719" yMax="740">
      <contour>
        <pt x="346" y="740" on="1"/>
        <pt x="400" y="740" on="1"/>
        <pt x="719" y="0" on="1"/>
        <pt x="28" y="0" on="1"/>
      </contour>
      <contour>
        <pt x="658" y="40" on="1"/>
        <pt x="373" y="701" on="1"/>
        <pt x="87" y="40" on="1"/>
      </contour>
    </TTGlyph>
    <TTGlyph name="E" xMin="104" yMin="0" xMax="567" yMax="740">
      <contour>
        <pt x="104" y="740" on="1"/>
        <pt x="559" y="740" on="1"/>
        <pt x="559" y="700" on="1"/>
        <pt x="147" y="700" on="1"/>
        <pt x="147" y="398" on="1"/>
        <pt x="541" y="398" on="1"/>
        <pt x="541" y="358" on="1"/>
        <pt x="147" y="358" on="1"/>
        <pt x="147" y="40" on="1"/>
        <pt x="567" y="40" on="1"/>
        <pt x="567" y="0" on="1"/>
        <pt x="104" y="0" on="1"/>
      </contour>
    </TTGlyph>
    <TTGlyph name="E.sc" xMin="99" yMin="0" xMax="502" yMax="577">
      <contour>
        <pt x="99" y="577" on="1"/>
        <pt x="495" y="577" on="1"/>
        <pt x="495" y="540" on="1"/>
        <pt x="140" y="540" on="1"/>
        <pt x="140" y="313" on="1"/>
        <pt x="479" y="313" on="1"/>
        <pt x="479" y="277" on="1"/>
        <pt x="140" y="277" on="1"/>
        <pt x="140" y="37" on="1"/>
        <pt x="502" y="37" on="1"/>
        <pt x="502" y="0" on="1"/>
        <pt x="99" y="0" on="1"/>
      </contour>
    </TTGlyph>
    <TTGlyph name="Eacute" xMin="104" yMin="0" xMax="567" yMax="933">
      <contour>
        <pt x="309" y="810" on="1"/>
        <pt x="388" y="933" on="1"/>
        <pt x="434" y="933" on="1"/>
        <pt x="347" y="804" on="1"/>
      </contour>
      <contour>
        <pt x="104" y="740" on="1"/>
        <pt x="559" y="740" on="1"/>
        <pt x="559" y="700" on="1"/>
        <pt x="147" y="700" on="1"/>
        <pt x="147" y="398" on="1"/>
        <pt x="541" y="398" on="1"/>
        <pt x="541" y="358" on="1"/>
        <pt x="147" y="358" on="1"/>
        <pt x="147" y="40" on="1"/>
        <pt x="567" y="40" on="1"/>
        <pt x="567" y="0" on="1"/>
        <pt x="104" y="0" on="1"/>
      </contour>
    </TTGlyph>
    <TTGlyph name="Eacute.sc" xMin="99" yMin="0" xMax="502" yMax="732">
      <contour>
        <pt x="99" y="577" on="1"/>
        <pt x="495" y="577" on="1"/>
        <pt x="495" y="540" on="1"/>
        <pt x="140" y="540" on="1"/>
        <pt x="140" y="313" on="1"/>
        <pt x="479" y="313" on="1"/>
        <pt x="479" y="277" on="1"/>
        <pt x="140" y="277" on="1"/>
        <pt x="140" y="37" on="1"/>
        <pt x="502" y="37" on="1"/>
        <pt x="502" y="0" on="1"/>
        <pt x="99" y="0" on="1"/>
      </contour>
      <contour>
        <pt x="275" y="633" on="1"/>
        <pt x="342" y="732" on="1"/>
        <pt x="386" y="732" on="1"/>
        <pt x="311" y="628" on="1"/>
      </contour>
    </TTGlyph>
    <TTGlyph name="Ebreve" xMin="104" yMin="0" xMax="567" yMax="950">
      <contour>
        <pt x="334" y="816" on="1"/>
        <pt x="254" y="816" on="0"/>
        <pt x="166" y="887" on="0"/>
        <pt x="166" y="950" on="1"/>
        <pt x="204" y="950" on="1"/>
        <pt x="204" y="905" on="0"/>
        <pt x="273" y="853" on="0"/>
        <pt x="334" y="853" on="1"/>
        <pt x="396" y="853" on="0"/>
        <pt x="464" y="905" on="0"/>
        <pt x="464" y="950" on="1"/>
        <pt x="503" y="950" on="1"/>
        <pt x="503" y="887" on="0"/>
        <pt x="414" y="816" on="0"/>
      </contour>
      <contour>
        <pt x="104" y="740" on="1"/>
        <pt x="559" y="740" on="1"/>
        <pt x="559" y="700" on="1"/>
        <pt x="147" y="700" on="1"/>
        <pt x="147" y="398" on="1"/>
        <pt x="541" y="398" on="1"/>
        <pt x="541" y="358" on="1"/>
        <pt x="147" y="358" on="1"/>
        <pt x="147" y="40" on="1"/>
        <pt x="567" y="40" on="1"/>
        <pt x="567" y="0" on="1"/>
        <pt x="104" y="0" on="1"/>
      </contour>
    </TTGlyph>
    <TTGlyph name="Ebreve.sc" xMin="99" yMin="0" xMax="502" yMax="744">
      <contour>
        <pt x="299" y="636" on="1"/>
        <pt x="228" y="636" on="0"/>
        <pt x="151" y="694" on="0"/>
        <pt x="151" y="744" on="1"/>
        <pt x="187" y="744" on="1"/>
        <pt x="187" y="708" on="0"/>
        <pt x="245" y="669" on="0"/>
        <pt x="299" y="669" on="1"/>
        <pt x="351" y="669" on="0"/>
        <pt x="410" y="708" on="0"/>
        <pt x="410" y="744" on="1"/>
        <pt x="446" y="744" on="1"/>
        <pt x="446" y="694" on="0"/>
        <pt x="370" y="636" on="0"/>
      </contour>
      <contour>
        <pt x="99" y="577" on="1"/>
        <pt x="495" y="577" on="1"/>
        <pt x="495" y="540" on="1"/>
        <pt x="140" y="540" on="1"/>
        <pt x="140" y="313" on="1"/>
        <pt x="479" y="313" on="1"/>
        <pt x="479" y="277" on="1"/>
        <pt x="140" y="277" on="1"/>
        <pt x="140" y="37" on="1"/>
        <pt x="502" y="37" on="1"/>
        <pt x="502" y="0" on="1"/>
        <pt x="99" y="0" on="1"/>
      </contour>
    </TTGlyph>
    <TTGlyph name="Ecaron" xMin="104" yMin="0" xMax="567" yMax="936">
      <contour>
        <pt x="181" y="936" on="1"/>
        <pt x="335" y="864" on="1"/>
        <pt x="490" y="936" on="1"/>
        <pt x="490" y="890" on="1"/>
        <pt x="335" y="818" on="1"/>
        <pt x="181" y="890" on="1"/>
      </contour>
      <contour>
        <pt x="104" y="740" on="1"/>
        <pt x="559" y="740" on="1"/>
        <pt x="559" y="700" on="1"/>
        <pt x="147" y="700" on="1"/>
        <pt x="147" y="398" on="1"/>
        <pt x="541" y="398" on="1"/>
        <pt x="541" y="358" on="1"/>
        <pt x="147" y="358" on="1"/>
        <pt x="147" y="40" on="1"/>
        <pt x="567" y="40" on="1"/>
        <pt x="567" y="0" on="1"/>
        <pt x="104" y="0" on="1"/>
      </contour>
    </TTGlyph>
    <TTGlyph name="Ecaron.sc" xMin="99" yMin="0" xMax="502" yMax="735">
      <contour>
        <pt x="99" y="577" on="1"/>
        <pt x="495" y="577" on="1"/>
        <pt x="495" y="540" on="1"/>
        <pt x="140" y="540" on="1"/>
        <pt x="140" y="313" on="1"/>
        <pt x="479" y="313" on="1"/>
        <pt x="479" y="277" on="1"/>
        <pt x="140" y="277" on="1"/>
        <pt x="140" y="37" on="1"/>
        <pt x="502" y="37" on="1"/>
        <pt x="502" y="0" on="1"/>
        <pt x="99" y="0" on="1"/>
      </contour>
      <contour>
        <pt x="164" y="695" on="1"/>
        <pt x="164" y="735" on="1"/>
        <pt x="300" y="678" on="1"/>
        <pt x="435" y="735" on="1"/>
        <pt x="435" y="695" on="1"/>
        <pt x="300" y="638" on="1"/>
      </contour>
    </TTGlyph>
    <TTGlyph name="Ecircumflex" xMin="104" yMin="0" xMax="567" yMax="936">
      <contour>
        <pt x="104" y="740" on="1"/>
        <pt x="559" y="740" on="1"/>
        <pt x="559" y="700" on="1"/>
        <pt x="147" y="700" on="1"/>
        <pt x="147" y="398" on="1"/>
        <pt x="541" y="398" on="1"/>
        <pt x="541" y="358" on="1"/>
        <pt x="147" y="358" on="1"/>
        <pt x="147" y="40" on="1"/>
        <pt x="567" y="40" on="1"/>
        <pt x="567" y="0" on="1"/>
        <pt x="104" y="0" on="1"/>
      </contour>
      <contour>
        <pt x="182" y="864" on="1"/>
        <pt x="336" y="936" on="1"/>
        <pt x="491" y="864" on="1"/>
        <pt x="491" y="818" on="1"/>
        <pt x="336" y="890" on="1"/>
        <pt x="182" y="818" on="1"/>
      </contour>
    </TTGlyph>
    <TTGlyph name="Ecircumflex.sc" xMin="99" yMin="0" xMax="502" yMax="735">
      <contour>
        <pt x="99" y="577" on="1"/>
        <pt x="495" y="577" on="1"/>
        <pt x="495" y="540" on="1"/>
        <pt x="140" y="540" on="1"/>
        <pt x="140" y="313" on="1"/>
        <pt x="479" y="313" on="1"/>
        <pt x="479" y="277" on="1"/>
        <pt x="140" y="277" on="1"/>
        <pt x="140" y="37" on="1"/>
        <pt x="502" y="37" on="1"/>
        <pt x="502" y="0" on="1"/>
        <pt x="99" y="0" on="1"/>
      </contour>
      <contour>
        <pt x="166" y="677" on="1"/>
        <pt x="301" y="735" on="1"/>
        <pt x="436" y="677" on="1"/>
        <pt x="436" y="637" on="1"/>
        <pt x="301" y="694" on="1"/>
        <pt x="166" y="637" on="1"/>
      </contour>
    </TTGlyph>
    <TTGlyph name="Edblgrave" xMin="104" yMin="0" xMax="567" yMax="924">
      <contour>
        <pt x="104" y="740" on="1"/>
        <pt x="559" y="740" on="1"/>
        <pt x="559" y="700" on="1"/>
        <pt x="147" y="700" on="1"/>
        <pt x="147" y="398" on="1"/>
        <pt x="541" y="398" on="1"/>
        <pt x="541" y="358" on="1"/>
        <pt x="147" y="358" on="1"/>
        <pt x="147" y="40" on="1"/>
        <pt x="567" y="40" on="1"/>
        <pt x="567" y="0" on="1"/>
        <pt x="104" y="0" on="1"/>
      </contour>
      <contour>
        <pt x="252" y="795" on="1"/>
        <pt x="165" y="924" on="1"/>
        <pt x="211" y="924" on="1"/>
        <pt x="289" y="808" on="1"/>
      </contour>
      <contour>
        <pt x="384" y="795" on="1"/>
        <pt x="297" y="924" on="1"/>
        <pt x="343" y="924" on="1"/>
        <pt x="422" y="808" on="1"/>
      </contour>
    </TTGlyph>
    <TTGlyph name="Edblgrave.sc" xMin="99" yMin="0" xMax="502" yMax="724">
      <contour>
        <pt x="99" y="577" on="1"/>
        <pt x="495" y="577" on="1"/>
        <pt x="495" y="540" on="1"/>
        <pt x="140" y="540" on="1"/>
        <pt x="140" y="313" on="1"/>
        <pt x="479" y="313" on="1"/>
        <pt x="479" y="277" on="1"/>
        <pt x="140" y="277" on="1"/>
        <pt x="140" y="37" on="1"/>
        <pt x="502" y="37" on="1"/>
        <pt x="502" y="0" on="1"/>
        <pt x="99" y="0" on="1"/>
      </contour>
      <contour>
        <pt x="150" y="724" on="1"/>
        <pt x="194" y="724" on="1"/>
        <pt x="260" y="631" on="1"/>
        <pt x="224" y="621" on="1"/>
      </contour>
      <contour>
        <pt x="266" y="724" on="1"/>
        <pt x="310" y="724" on="1"/>
        <pt x="377" y="631" on="1"/>
        <pt x="341" y="621" on="1"/>
      </contour>
    </TTGlyph>
    <TTGlyph name="Edieresis" xMin="104" yMin="0" xMax="567" yMax="905">
      <contour>
        <pt x="201" y="832" on="1"/>
        <pt x="184" y="832" on="0"/>
        <pt x="165" y="849" on="0"/>
        <pt x="165" y="869" on="1"/>
        <pt x="165" y="888" on="0"/>
        <pt x="184" y="905" on="0"/>
        <pt x="201" y="905" on="1"/>
        <pt x="216" y="905" on="0"/>
        <pt x="239" y="889" on="0"/>
        <pt x="239" y="869" on="1"/>
        <pt x="239" y="849" on="0"/>
        <pt x="216" y="832" on="0"/>
      </contour>
      <contour>
        <pt x="470" y="832" on="1"/>
        <pt x="453" y="832" on="0"/>
        <pt x="433" y="849" on="0"/>
        <pt x="433" y="869" on="1"/>
        <pt x="433" y="888" on="0"/>
        <pt x="453" y="905" on="0"/>
        <pt x="470" y="905" on="1"/>
        <pt x="485" y="905" on="0"/>
        <pt x="507" y="889" on="0"/>
        <pt x="507" y="869" on="1"/>
        <pt x="507" y="849" on="0"/>
        <pt x="485" y="832" on="0"/>
      </contour>
      <contour>
        <pt x="104" y="740" on="1"/>
        <pt x="559" y="740" on="1"/>
        <pt x="559" y="700" on="1"/>
        <pt x="147" y="700" on="1"/>
        <pt x="147" y="398" on="1"/>
        <pt x="541" y="398" on="1"/>
        <pt x="541" y="358" on="1"/>
        <pt x="147" y="358" on="1"/>
        <pt x="147" y="40" on="1"/>
        <pt x="567" y="40" on="1"/>
        <pt x="567" y="0" on="1"/>
        <pt x="104" y="0" on="1"/>
      </contour>
    </TTGlyph>
    <TTGlyph name="Edieresis.sc" xMin="99" yMin="0" xMax="502" yMax="713">
      <contour>
        <pt x="183" y="649" on="1"/>
        <pt x="168" y="649" on="0"/>
        <pt x="149" y="664" on="0"/>
        <pt x="149" y="681" on="1"/>
        <pt x="149" y="698" on="0"/>
        <pt x="168" y="713" on="0"/>
        <pt x="183" y="713" on="1"/>
        <pt x="197" y="713" on="0"/>
        <pt x="218" y="698" on="0"/>
        <pt x="218" y="681" on="1"/>
        <pt x="218" y="664" on="0"/>
        <pt x="197" y="649" on="0"/>
      </contour>
      <contour>
        <pt x="417" y="649" on="1"/>
        <pt x="383" y="649" on="0"/>
        <pt x="383" y="681" on="1"/>
        <pt x="383" y="713" on="0"/>
        <pt x="417" y="713" on="1"/>
        <pt x="432" y="713" on="0"/>
        <pt x="451" y="698" on="0"/>
        <pt x="451" y="681" on="1"/>
        <pt x="451" y="664" on="0"/>
        <pt x="432" y="649" on="0"/>
      </contour>
      <contour>
        <pt x="99" y="577" on="1"/>
        <pt x="495" y="577" on="1"/>
        <pt x="495" y="540" on="1"/>
        <pt x="140" y="540" on="1"/>
        <pt x="140" y="313" on="1"/>
        <pt x="479" y="313" on="1"/>
        <pt x="479" y="277" on="1"/>
        <pt x="140" y="277" on="1"/>
        <pt x="140" y="37" on="1"/>
        <pt x="502" y="37" on="1"/>
        <pt x="502" y="0" on="1"/>
        <pt x="99" y="0" on="1"/>
      </contour>
    </TTGlyph>
    <TTGlyph name="Edotaccent" xMin="104" yMin="0" xMax="567" yMax="900">
      <contour>
        <pt x="335" y="827" on="1"/>
        <pt x="318" y="827" on="0"/>
        <pt x="298" y="844" on="0"/>
        <pt x="298" y="863" on="1"/>
        <pt x="298" y="882" on="0"/>
        <pt x="318" y="900" on="0"/>
        <pt x="335" y="900" on="1"/>
        <pt x="350" y="900" on="0"/>
        <pt x="372" y="883" on="0"/>
        <pt x="372" y="863" on="1"/>
        <pt x="372" y="843" on="0"/>
        <pt x="350" y="827" on="0"/>
      </contour>
      <contour>
        <pt x="104" y="740" on="1"/>
        <pt x="559" y="740" on="1"/>
        <pt x="559" y="700" on="1"/>
        <pt x="147" y="700" on="1"/>
        <pt x="147" y="398" on="1"/>
        <pt x="541" y="398" on="1"/>
        <pt x="541" y="358" on="1"/>
        <pt x="147" y="358" on="1"/>
        <pt x="147" y="40" on="1"/>
        <pt x="567" y="40" on="1"/>
        <pt x="567" y="0" on="1"/>
        <pt x="104" y="0" on="1"/>
      </contour>
    </TTGlyph>
    <TTGlyph name="Edotaccent.sc" xMin="99" yMin="0" xMax="502" yMax="709">
      <contour>
        <pt x="300" y="645" on="1"/>
        <pt x="284" y="645" on="0"/>
        <pt x="265" y="660" on="0"/>
        <pt x="265" y="677" on="1"/>
        <pt x="265" y="694" on="0"/>
        <pt x="284" y="709" on="0"/>
        <pt x="300" y="709" on="1"/>
        <pt x="314" y="709" on="0"/>
        <pt x="334" y="694" on="0"/>
        <pt x="334" y="677" on="1"/>
        <pt x="334" y="660" on="0"/>
        <pt x="314" y="645" on="0"/>
      </contour>
      <contour>
        <pt x="99" y="577" on="1"/>
        <pt x="495" y="577" on="1"/>
        <pt x="495" y="540" on="1"/>
        <pt x="140" y="540" on="1"/>
        <pt x="140" y="313" on="1"/>
        <pt x="479" y="313" on="1"/>
        <pt x="479" y="277" on="1"/>
        <pt x="140" y="277" on="1"/>
        <pt x="140" y="37" on="1"/>
        <pt x="502" y="37" on="1"/>
        <pt x="502" y="0" on="1"/>
        <pt x="99" y="0" on="1"/>
      </contour>
    </TTGlyph>
    <TTGlyph name="Edotbelow" xMin="104" yMin="-172" xMax="567" yMax="740">
      <contour>
        <pt x="104" y="740" on="1"/>
        <pt x="559" y="740" on="1"/>
        <pt x="559" y="700" on="1"/>
        <pt x="147" y="700" on="1"/>
        <pt x="147" y="398" on="1"/>
        <pt x="541" y="398" on="1"/>
        <pt x="541" y="358" on="1"/>
        <pt x="147" y="358" on="1"/>
        <pt x="147" y="40" on="1"/>
        <pt x="567" y="40" on="1"/>
        <pt x="567" y="0" on="1"/>
        <pt x="104" y="0" on="1"/>
      </contour>
      <contour>
        <pt x="354" y="-172" on="1"/>
        <pt x="336" y="-172" on="0"/>
        <pt x="315" y="-154" on="0"/>
        <pt x="315" y="-133" on="1"/>
        <pt x="315" y="-112" on="0"/>
        <pt x="336" y="-93" on="0"/>
        <pt x="354" y="-93" on="1"/>
        <pt x="371" y="-93" on="0"/>
        <pt x="394" y="-111" on="0"/>
        <pt x="394" y="-133" on="1"/>
        <pt x="394" y="-155" on="0"/>
        <pt x="371" y="-172" on="0"/>
      </contour>
    </TTGlyph>
    <TTGlyph name="Edotbelow.sc" xMin="99" yMin="-137" xMax="502" yMax="577">
      <contour>
        <pt x="315" y="-137" on="1"/>
        <pt x="280" y="-137" on="0"/>
        <pt x="280" y="-104" on="1"/>
        <pt x="280" y="-70" on="0"/>
        <pt x="315" y="-70" on="1"/>
        <pt x="331" y="-70" on="0"/>
        <pt x="351" y="-86" on="0"/>
        <pt x="351" y="-104" on="1"/>
        <pt x="351" y="-122" on="0"/>
        <pt x="331" y="-137" on="0"/>
      </contour>
      <contour>
        <pt x="99" y="577" on="1"/>
        <pt x="495" y="577" on="1"/>
        <pt x="495" y="540" on="1"/>
        <pt x="140" y="540" on="1"/>
        <pt x="140" y="313" on="1"/>
        <pt x="479" y="313" on="1"/>
        <pt x="479" y="277" on="1"/>
        <pt x="140" y="277" on="1"/>
        <pt x="140" y="37" on="1"/>
        <pt x="502" y="37" on="1"/>
        <pt x="502" y="0" on="1"/>
        <pt x="99" y="0" on="1"/>
      </contour>
    </TTGlyph>
    <TTGlyph name="Egrave" xMin="104" yMin="0" xMax="567" yMax="933">
      <contour>
        <pt x="322" y="804" on="1"/>
        <pt x="235" y="933" on="1"/>
        <pt x="281" y="933" on="1"/>
        <pt x="359" y="818" on="1"/>
      </contour>
      <contour>
        <pt x="104" y="740" on="1"/>
        <pt x="559" y="740" on="1"/>
        <pt x="559" y="700" on="1"/>
        <pt x="147" y="700" on="1"/>
        <pt x="147" y="398" on="1"/>
        <pt x="541" y="398" on="1"/>
        <pt x="541" y="358" on="1"/>
        <pt x="147" y="358" on="1"/>
        <pt x="147" y="40" on="1"/>
        <pt x="567" y="40" on="1"/>
        <pt x="567" y="0" on="1"/>
        <pt x="104" y="0" on="1"/>
      </contour>
    </TTGlyph>
    <TTGlyph name="Egrave.sc" xMin="99" yMin="0" xMax="502" yMax="732">
      <contour>
        <pt x="99" y="577" on="1"/>
        <pt x="495" y="577" on="1"/>
        <pt x="495" y="540" on="1"/>
        <pt x="140" y="540" on="1"/>
        <pt x="140" y="313" on="1"/>
        <pt x="479" y="313" on="1"/>
        <pt x="479" y="277" on="1"/>
        <pt x="140" y="277" on="1"/>
        <pt x="140" y="37" on="1"/>
        <pt x="502" y="37" on="1"/>
        <pt x="502" y="0" on="1"/>
        <pt x="99" y="0" on="1"/>
      </contour>
      <contour>
        <pt x="213" y="732" on="1"/>
        <pt x="257" y="732" on="1"/>
        <pt x="324" y="639" on="1"/>
        <pt x="288" y="628" on="1"/>
      </contour>
    </TTGlyph>
    <TTGlyph name="Einvertedbreve" xMin="104" yMin="0" xMax="567" yMax="951">
      <contour>
        <pt x="104" y="740" on="1"/>
        <pt x="559" y="740" on="1"/>
        <pt x="559" y="700" on="1"/>
        <pt x="147" y="700" on="1"/>
        <pt x="147" y="398" on="1"/>
        <pt x="541" y="398" on="1"/>
        <pt x="541" y="358" on="1"/>
        <pt x="147" y="358" on="1"/>
        <pt x="147" y="40" on="1"/>
        <pt x="567" y="40" on="1"/>
        <pt x="567" y="0" on="1"/>
        <pt x="104" y="0" on="1"/>
      </contour>
      <contour>
        <pt x="464" y="816" on="1"/>
        <pt x="464" y="862" on="0"/>
        <pt x="395" y="914" on="0"/>
        <pt x="334" y="914" on="1"/>
        <pt x="273" y="914" on="0"/>
        <pt x="204" y="862" on="0"/>
        <pt x="204" y="816" on="1"/>
        <pt x="166" y="816" on="1"/>
        <pt x="166" y="879" on="0"/>
        <pt x="254" y="951" on="0"/>
        <pt x="334" y="951" on="1"/>
        <pt x="414" y="951" on="0"/>
        <pt x="503" y="879" on="0"/>
        <pt x="503" y="816" on="1"/>
      </contour>
    </TTGlyph>
    <TTGlyph name="Einvertedbreve.sc" xMin="99" yMin="0" xMax="502" yMax="745">
      <contour>
        <pt x="151" y="636" on="1"/>
        <pt x="151" y="686" on="0"/>
        <pt x="228" y="745" on="0"/>
        <pt x="299" y="745" on="1"/>
        <pt x="370" y="745" on="0"/>
        <pt x="447" y="686" on="0"/>
        <pt x="447" y="636" on="1"/>
        <pt x="410" y="636" on="1"/>
        <pt x="410" y="672" on="0"/>
        <pt x="353" y="712" on="0"/>
        <pt x="299" y="712" on="1"/>
        <pt x="246" y="712" on="0"/>
        <pt x="188" y="672" on="0"/>
        <pt x="188" y="636" on="1"/>
      </contour>
      <contour>
        <pt x="99" y="577" on="1"/>
        <pt x="495" y="577" on="1"/>
        <pt x="495" y="540" on="1"/>
        <pt x="140" y="540" on="1"/>
        <pt x="140" y="313" on="1"/>
        <pt x="479" y="313" on="1"/>
        <pt x="479" y="277" on="1"/>
        <pt x="140" y="277" on="1"/>
        <pt x="140" y="37" on="1"/>
        <pt x="502" y="37" on="1"/>
        <pt x="502" y="0" on="1"/>
        <pt x="99" y="0" on="1"/>
      </contour>
    </TTGlyph>
    <TTGlyph name="Emacron" xMin="104" yMin="0" xMax="567" yMax="881">
      <contour>
        <pt x="184" y="881" on="1"/>
        <pt x="488" y="881" on="1"/>
        <pt x="488" y="842" on="1"/>
        <pt x="184" y="842" on="1"/>
      </contour>
      <contour>
        <pt x="104" y="740" on="1"/>
        <pt x="559" y="740" on="1"/>
        <pt x="559" y="700" on="1"/>
        <pt x="147" y="700" on="1"/>
        <pt x="147" y="398" on="1"/>
        <pt x="541" y="398" on="1"/>
        <pt x="541" y="358" on="1"/>
        <pt x="147" y="358" on="1"/>
        <pt x="147" y="40" on="1"/>
        <pt x="567" y="40" on="1"/>
        <pt x="567" y="0" on="1"/>
        <pt x="104" y="0" on="1"/>
      </contour>
    </TTGlyph>
    <TTGlyph name="Emacron.sc" xMin="99" yMin="0" xMax="502" yMax="692">
      <contour>
        <pt x="99" y="577" on="1"/>
        <pt x="495" y="577" on="1"/>
        <pt x="495" y="540" on="1"/>
        <pt x="140" y="540" on="1"/>
        <pt x="140" y="313" on="1"/>
        <pt x="479" y="313" on="1"/>
        <pt x="479" y="277" on="1"/>
        <pt x="140" y="277" on="1"/>
        <pt x="140" y="37" on="1"/>
        <pt x="502" y="37" on="1"/>
        <pt x="502" y="0" on="1"/>
        <pt x="99" y="0" on="1"/>
      </contour>
      <contour>
        <pt x="167" y="692" on="1"/>
        <pt x="435" y="692" on="1"/>
        <pt x="435" y="657" on="1"/>
        <pt x="167" y="657" on="1"/>
      </contour>
    </TTGlyph>
    <TTGlyph name="Eng" xMin="104" yMin="-183" xMax="697" yMax="740">
      <contour>
        <pt x="578" y="-175" on="1"/>
        <pt x="590" y="-154" on="0"/>
        <pt x="613" y="-103" on="0"/>
        <pt x="631" y="-52" on="0"/>
        <pt x="644" y="-4" on="0"/>
        <pt x="646" y="14" on="1"/>
        <pt x="209" y="588" on="1"/>
        <pt x="151" y="671" on="1"/>
        <pt x="145" y="671" on="1"/>
        <pt x="145" y="0" on="1"/>
        <pt x="104" y="0" on="1"/>
        <pt x="104" y="740" on="1"/>
        <pt x="143" y="740" on="1"/>
        <pt x="586" y="159" on="1"/>
        <pt x="651" y="67" on="1"/>
        <pt x="656" y="67" on="1"/>
        <pt x="656" y="740" on="1"/>
        <pt x="697" y="740" on="1"/>
        <pt x="697" y="75" on="1"/>
        <pt x="697" y="45" on="0"/>
        <pt x="684" y="-25" on="0"/>
        <pt x="662" y="-95" on="0"/>
        <pt x="631" y="-159" on="0"/>
        <pt x="613" y="-183" on="1"/>
      </contour>
    </TTGlyph>
    <TTGlyph name="Eng.sc" xMin="99" yMin="-145" xMax="612" yMax="577">
      <contour>
        <pt x="506" y="-137" on="1"/>
        <pt x="516" y="-120" on="0"/>
        <pt x="535" y="-80" on="0"/>
        <pt x="551" y="-39" on="0"/>
        <pt x="562" y="-2" on="0"/>
        <pt x="564" y="13" on="1"/>
        <pt x="193" y="447" on="1"/>
        <pt x="143" y="512" on="1"/>
        <pt x="138" y="512" on="1"/>
        <pt x="138" y="0" on="1"/>
        <pt x="99" y="0" on="1"/>
        <pt x="99" y="577" on="1"/>
        <pt x="136" y="577" on="1"/>
        <pt x="511" y="136" on="1"/>
        <pt x="567" y="64" on="1"/>
        <pt x="571" y="64" on="1"/>
        <pt x="571" y="577" on="1"/>
        <pt x="612" y="577" on="1"/>
        <pt x="612" y="62" on="1"/>
        <pt x="612" y="38" on="0"/>
        <pt x="601" y="-18" on="0"/>
        <pt x="581" y="-73" on="0"/>
        <pt x="554" y="-125" on="0"/>
        <pt x="539" y="-145" on="1"/>
      </contour>
    </TTGlyph>
    <TTGlyph name="Eogonek" xMin="104" yMin="-220" xMax="567" yMax="740">
      <contour>
        <pt x="104" y="740" on="1"/>
        <pt x="559" y="740" on="1"/>
        <pt x="559" y="700" on="1"/>
        <pt x="147" y="700" on="1"/>
        <pt x="147" y="398" on="1"/>
        <pt x="541" y="398" on="1"/>
        <pt x="541" y="358" on="1"/>
        <pt x="147" y="358" on="1"/>
        <pt x="147" y="40" on="1"/>
        <pt x="567" y="40" on="1"/>
        <pt x="567" y="-23" on="1"/>
        <pt x="501" y="-54" on="0"/>
        <pt x="444" y="-111" on="0"/>
        <pt x="444" y="-145" on="1"/>
        <pt x="444" y="-168" on="0"/>
        <pt x="470" y="-187" on="0"/>
        <pt x="499" y="-187" on="1"/>
        <pt x="514" y="-187" on="0"/>
        <pt x="548" y="-182" on="0"/>
        <pt x="565" y="-177" on="1"/>
        <pt x="565" y="-208" on="1"/>
        <pt x="551" y="-213" on="0"/>
        <pt x="512" y="-220" on="0"/>
        <pt x="492" y="-220" on="1"/>
        <pt x="447" y="-220" on="0"/>
        <pt x="407" y="-184" on="0"/>
        <pt x="407" y="-146" on="1"/>
        <pt x="407" y="-125" on="0"/>
        <pt x="419" y="-91" on="0"/>
        <pt x="448" y="-57" on="0"/>
        <pt x="496" y="-22" on="0"/>
        <pt x="533" y="0" on="1"/>
        <pt x="104" y="0" on="1"/>
      </contour>
    </TTGlyph>
    <TTGlyph name="Eogonek.sc" xMin="99" yMin="-172" xMax="502" yMax="577">
      <contour>
        <pt x="435" y="-172" on="1"/>
        <pt x="396" y="-172" on="0"/>
        <pt x="360" y="-143" on="0"/>
        <pt x="360" y="-112" on="1"/>
        <pt x="360" y="-97" on="0"/>
        <pt x="369" y="-71" on="0"/>
        <pt x="392" y="-46" on="0"/>
        <pt x="433" y="-18" on="0"/>
        <pt x="465" y="0" on="1"/>
        <pt x="99" y="0" on="1"/>
        <pt x="99" y="577" on="1"/>
        <pt x="495" y="577" on="1"/>
        <pt x="495" y="540" on="1"/>
        <pt x="140" y="540" on="1"/>
        <pt x="140" y="313" on="1"/>
        <pt x="479" y="313" on="1"/>
        <pt x="479" y="277" on="1"/>
        <pt x="140" y="277" on="1"/>
        <pt x="140" y="37" on="1"/>
        <pt x="502" y="37" on="1"/>
        <pt x="502" y="-17" on="1"/>
        <pt x="452" y="-39" on="0"/>
        <pt x="396" y="-82" on="0"/>
        <pt x="396" y="-111" on="1"/>
        <pt x="396" y="-130" on="0"/>
        <pt x="420" y="-143" on="0"/>
        <pt x="441" y="-143" on="1"/>
        <pt x="455" y="-143" on="0"/>
        <pt x="486" y="-138" on="0"/>
        <pt x="500" y="-134" on="1"/>
        <pt x="500" y="-162" on="1"/>
        <pt x="488" y="-167" on="0"/>
        <pt x="453" y="-172" on="0"/>
      </contour>
    </TTGlyph>
    <TTGlyph name="Eth" xMin="7" yMin="-9" xMax="693" yMax="748">
      <contour>
        <pt x="7" y="388" on="1"/>
        <pt x="109" y="388" on="1"/>
        <pt x="109" y="739" on="1"/>
        <pt x="126" y="740" on="0"/>
        <pt x="178" y="744" on="0"/>
        <pt x="234" y="746" on="0"/>
        <pt x="287" y="748" on="0"/>
        <pt x="305" y="748" on="1"/>
        <pt x="505" y="748" on="0"/>
        <pt x="693" y="565" on="0"/>
        <pt x="693" y="371" on="1"/>
        <pt x="693" y="175" on="0"/>
        <pt x="504" y="-9" on="0"/>
        <pt x="303" y="-9" on="1"/>
        <pt x="236" y="-9" on="0"/>
        <pt x="129" y="1" on="0"/>
        <pt x="109" y="9" on="1"/>
        <pt x="109" y="348" on="1"/>
        <pt x="7" y="348" on="1"/>
      </contour>
      <contour>
        <pt x="307" y="31" on="1"/>
        <pt x="482" y="31" on="0"/>
        <pt x="650" y="197" on="0"/>
        <pt x="650" y="371" on="1"/>
        <pt x="650" y="544" on="0"/>
        <pt x="484" y="707" on="0"/>
        <pt x="306" y="707" on="1"/>
        <pt x="291" y="707" on="0"/>
        <pt x="251" y="706" on="0"/>
        <pt x="209" y="703" on="0"/>
        <pt x="168" y="700" on="0"/>
        <pt x="152" y="699" on="1"/>
        <pt x="152" y="388" on="1"/>
        <pt x="381" y="388" on="1"/>
        <pt x="381" y="348" on="1"/>
        <pt x="152" y="348" on="1"/>
        <pt x="152" y="42" on="1"/>
        <pt x="176" y="39" on="0"/>
        <pt x="214" y="34" on="0"/>
        <pt x="249" y="32" on="0"/>
        <pt x="285" y="31" on="0"/>
      </contour>
    </TTGlyph>
    <TTGlyph name="Eth.sc" xMin="16" yMin="-7" xMax="611" yMax="583">
      <contour>
        <pt x="16" y="306" on="1"/>
        <pt x="103" y="306" on="1"/>
        <pt x="103" y="577" on="1"/>
        <pt x="118" y="578" on="0"/>
        <pt x="164" y="580" on="0"/>
        <pt x="213" y="582" on="0"/>
        <pt x="260" y="583" on="0"/>
        <pt x="275" y="583" on="1"/>
        <pt x="449" y="583" on="0"/>
        <pt x="611" y="441" on="0"/>
        <pt x="611" y="289" on="1"/>
        <pt x="611" y="136" on="0"/>
        <pt x="448" y="-7" on="0"/>
        <pt x="273" y="-7" on="1"/>
        <pt x="244" y="-7" on="0"/>
        <pt x="190" y="-5" on="0"/>
        <pt x="145" y="-1" on="0"/>
        <pt x="112" y="5" on="0"/>
        <pt x="103" y="8" on="1"/>
        <pt x="103" y="269" on="1"/>
        <pt x="16" y="269" on="1"/>
      </contour>
      <contour>
        <pt x="280" y="31" on="1"/>
        <pt x="428" y="31" on="0"/>
        <pt x="569" y="156" on="0"/>
        <pt x="569" y="289" on="1"/>
        <pt x="569" y="422" on="0"/>
        <pt x="429" y="544" on="0"/>
        <pt x="278" y="544" on="1"/>
        <pt x="265" y="544" on="0"/>
        <pt x="230" y="543" on="0"/>
        <pt x="194" y="542" on="0"/>
        <pt x="159" y="540" on="0"/>
        <pt x="145" y="539" on="1"/>
        <pt x="145" y="306" on="1"/>
        <pt x="339" y="306" on="1"/>
        <pt x="339" y="269" on="1"/>
        <pt x="145" y="269" on="1"/>
        <pt x="145" y="40" on="1"/>
        <pt x="186" y="35" on="0"/>
        <pt x="242" y="31" on="0"/>
      </contour>
    </TTGlyph>
    <TTGlyph name="Etilde" xMin="104" yMin="0" xMax="567" yMax="918">
      <contour>
        <pt x="148" y="868" on="1"/>
        <pt x="202" y="918" on="0"/>
        <pt x="263" y="918" on="1"/>
        <pt x="287" y="918" on="0"/>
        <pt x="328" y="905" on="0"/>
        <pt x="367" y="888" on="0"/>
        <pt x="405" y="875" on="0"/>
        <pt x="427" y="875" on="1"/>
        <pt x="478" y="875" on="0"/>
        <pt x="525" y="913" on="1"/>
        <pt x="549" y="889" on="1"/>
        <pt x="523" y="865" on="0"/>
        <pt x="459" y="837" on="0"/>
        <pt x="424" y="837" on="1"/>
        <pt x="403" y="837" on="0"/>
        <pt x="363" y="850" on="0"/>
        <pt x="323" y="867" on="0"/>
        <pt x="283" y="880" on="0"/>
        <pt x="264" y="880" on="1"/>
        <pt x="241" y="880" on="0"/>
        <pt x="195" y="863" on="0"/>
        <pt x="172" y="843" on="1"/>
      </contour>
      <contour>
        <pt x="104" y="740" on="1"/>
        <pt x="559" y="740" on="1"/>
        <pt x="559" y="700" on="1"/>
        <pt x="147" y="700" on="1"/>
        <pt x="147" y="398" on="1"/>
        <pt x="541" y="398" on="1"/>
        <pt x="541" y="358" on="1"/>
        <pt x="147" y="358" on="1"/>
        <pt x="147" y="40" on="1"/>
        <pt x="567" y="40" on="1"/>
        <pt x="567" y="0" on="1"/>
        <pt x="104" y="0" on="1"/>
      </contour>
    </TTGlyph>
    <TTGlyph name="Etilde.sc" xMin="99" yMin="0" xMax="502" yMax="721">
      <contour>
        <pt x="136" y="677" on="1"/>
        <pt x="184" y="721" on="0"/>
        <pt x="238" y="721" on="1"/>
        <pt x="259" y="721" on="0"/>
        <pt x="295" y="711" on="0"/>
        <pt x="328" y="698" on="0"/>
        <pt x="362" y="688" on="0"/>
        <pt x="381" y="688" on="1"/>
        <pt x="424" y="688" on="0"/>
        <pt x="467" y="717" on="1"/>
        <pt x="487" y="697" on="1"/>
        <pt x="464" y="677" on="0"/>
        <pt x="407" y="653" on="0"/>
        <pt x="377" y="653" on="1"/>
        <pt x="359" y="653" on="0"/>
        <pt x="323" y="663" on="0"/>
        <pt x="288" y="676" on="0"/>
        <pt x="254" y="686" on="0"/>
        <pt x="237" y="686" on="1"/>
        <pt x="217" y="686" on="0"/>
        <pt x="176" y="673" on="0"/>
        <pt x="156" y="657" on="1"/>
      </contour>
      <contour>
        <pt x="99" y="577" on="1"/>
        <pt x="495" y="577" on="1"/>
        <pt x="495" y="540" on="1"/>
        <pt x="140" y="540" on="1"/>
        <pt x="140" y="313" on="1"/>
        <pt x="479" y="313" on="1"/>
        <pt x="479" y="277" on="1"/>
        <pt x="140" y="277" on="1"/>
        <pt x="140" y="37" on="1"/>
        <pt x="502" y="37" on="1"/>
        <pt x="502" y="0" on="1"/>
        <pt x="99" y="0" on="1"/>
      </contour>
    </TTGlyph>
    <TTGlyph name="Euro" xMin="51" yMin="-10" xMax="586" yMax="749">
      <contour>
        <pt x="51" y="472" on="1"/>
        <pt x="149" y="472" on="1"/>
        <pt x="158" y="546" on="0"/>
        <pt x="210" y="651" on="0"/>
        <pt x="298" y="718" on="0"/>
        <pt x="425" y="749" on="0"/>
        <pt x="511" y="749" on="1"/>
        <pt x="537" y="749" on="0"/>
        <pt x="568" y="747" on="0"/>
        <pt x="586" y="746" on="1"/>
        <pt x="564" y="706" on="1"/>
        <pt x="556" y="707" on="0"/>
        <pt x="534" y="708" on="0"/>
        <pt x="517" y="708" on="1"/>
        <pt x="440" y="708" on="0"/>
        <pt x="326" y="682" on="0"/>
        <pt x="247" y="625" on="0"/>
        <pt x="201" y="536" on="0"/>
        <pt x="192" y="472" on="1"/>
        <pt x="493" y="472" on="1"/>
        <pt x="476" y="435" on="1"/>
        <pt x="188" y="435" on="1"/>
        <pt x="186" y="419" on="0"/>
        <pt x="186" y="387" on="0"/>
        <pt x="186" y="370" on="1"/>
        <pt x="186" y="335" on="0"/>
        <pt x="189" y="305" on="1"/>
        <pt x="451" y="305" on="1"/>
        <pt x="435" y="268" on="1"/>
        <pt x="193" y="268" on="1"/>
        <pt x="212" y="144" on="0"/>
        <pt x="364" y="31" on="0"/>
        <pt x="512" y="31" on="1"/>
        <pt x="520" y="31" on="0"/>
        <pt x="549" y="32" on="0"/>
        <pt x="566" y="33" on="1"/>
        <pt x="566" y="-8" on="1"/>
        <pt x="557" y="-10" on="0"/>
        <pt x="533" y="-10" on="0"/>
        <pt x="513" y="-10" on="1"/>
        <pt x="346" y="-8" on="0"/>
        <pt x="169" y="124" on="0"/>
        <pt x="149" y="268" on="1"/>
        <pt x="51" y="268" on="1"/>
        <pt x="51" y="305" on="1"/>
        <pt x="145" y="305" on="1"/>
        <pt x="144" y="320" on="0"/>
        <pt x="143" y="353" on="0"/>
        <pt x="143" y="370" on="1"/>
        <pt x="143" y="387" on="0"/>
        <pt x="144" y="419" on="0"/>
        <pt x="145" y="435" on="1"/>
        <pt x="51" y="435" on="1"/>
      </contour>
    </TTGlyph>
    <TTGlyph name="Euro.tab" xMin="19" yMin="-10" xMax="531" yMax="749">
      <contour>
        <pt x="19" y="472" on="1"/>
        <pt x="113" y="472" on="1"/>
        <pt x="122" y="546" on="0"/>
        <pt x="171" y="651" on="0"/>
        <pt x="255" y="718" on="0"/>
        <pt x="377" y="749" on="0"/>
        <pt x="458" y="749" on="1"/>
        <pt x="483" y="749" on="0"/>
        <pt x="514" y="747" on="0"/>
        <pt x="531" y="746" on="1"/>
        <pt x="510" y="706" on="1"/>
        <pt x="502" y="707" on="0"/>
        <pt x="481" y="708" on="0"/>
        <pt x="465" y="708" on="1"/>
        <pt x="392" y="708" on="0"/>
        <pt x="283" y="682" on="0"/>
        <pt x="208" y="625" on="0"/>
        <pt x="164" y="536" on="0"/>
        <pt x="155" y="472" on="1"/>
        <pt x="442" y="472" on="1"/>
        <pt x="427" y="435" on="1"/>
        <pt x="151" y="435" on="1"/>
        <pt x="150" y="420" on="0"/>
        <pt x="149" y="387" on="0"/>
        <pt x="149" y="370" on="1"/>
        <pt x="149" y="335" on="0"/>
        <pt x="152" y="305" on="1"/>
        <pt x="402" y="305" on="1"/>
        <pt x="387" y="268" on="1"/>
        <pt x="156" y="268" on="1"/>
        <pt x="174" y="144" on="0"/>
        <pt x="320" y="31" on="0"/>
        <pt x="460" y="31" on="1"/>
        <pt x="468" y="31" on="0"/>
        <pt x="496" y="32" on="0"/>
        <pt x="513" y="33" on="1"/>
        <pt x="513" y="-8" on="1"/>
        <pt x="503" y="-10" on="0"/>
        <pt x="481" y="-10" on="0"/>
        <pt x="461" y="-10" on="1"/>
        <pt x="381" y="-9" on="0"/>
        <pt x="259" y="24" on="0"/>
        <pt x="174" y="92" on="0"/>
        <pt x="123" y="196" on="0"/>
        <pt x="113" y="268" on="1"/>
        <pt x="19" y="268" on="1"/>
        <pt x="19" y="305" on="1"/>
        <pt x="109" y="305" on="1"/>
        <pt x="108" y="320" on="0"/>
        <pt x="107" y="353" on="0"/>
        <pt x="107" y="370" on="1"/>
        <pt x="107" y="387" on="0"/>
        <pt x="107" y="420" on="0"/>
        <pt x="109" y="435" on="1"/>
        <pt x="19" y="435" on="1"/>
      </contour>
    </TTGlyph>
    <TTGlyph name="F" xMin="104" yMin="0" xMax="559" yMax="740">
      <contour>
        <pt x="104" y="740" on="1"/>
        <pt x="559" y="740" on="1"/>
        <pt x="559" y="700" on="1"/>
        <pt x="147" y="700" on="1"/>
        <pt x="147" y="396" on="1"/>
        <pt x="522" y="396" on="1"/>
        <pt x="522" y="357" on="1"/>
        <pt x="147" y="357" on="1"/>
        <pt x="147" y="0" on="1"/>
        <pt x="104" y="0" on="1"/>
      </contour>
    </TTGlyph>
    <TTGlyph name="F.sc" xMin="99" yMin="0" xMax="496" yMax="577">
      <contour>
        <pt x="99" y="577" on="1"/>
        <pt x="496" y="577" on="1"/>
        <pt x="496" y="540" on="1"/>
        <pt x="140" y="540" on="1"/>
        <pt x="140" y="310" on="1"/>
        <pt x="463" y="310" on="1"/>
        <pt x="463" y="274" on="1"/>
        <pt x="140" y="274" on="1"/>
        <pt x="140" y="0" on="1"/>
        <pt x="99" y="0" on="1"/>
      </contour>
    </TTGlyph>
    <TTGlyph name="F_B.sc" xMin="99" yMin="-8" xMax="1048" yMax="583">
      <contour>
        <pt x="99" y="577" on="1"/>
        <pt x="496" y="577" on="1"/>
        <pt x="496" y="540" on="1"/>
        <pt x="140" y="540" on="1"/>
        <pt x="140" y="310" on="1"/>
        <pt x="463" y="310" on="1"/>
        <pt x="463" y="274" on="1"/>
        <pt x="140" y="274" on="1"/>
        <pt x="140" y="0" on="1"/>
        <pt x="99" y="0" on="1"/>
      </contour>
      <contour>
        <pt x="798" y="-8" on="1"/>
        <pt x="757" y="-8" on="0"/>
        <pt x="666" y="-2" on="0"/>
        <pt x="609" y="4" on="1"/>
        <pt x="609" y="573" on="1"/>
        <pt x="670" y="578" on="0"/>
        <pt x="758" y="583" on="0"/>
        <pt x="796" y="583" on="1"/>
        <pt x="859" y="583" on="0"/>
        <pt x="947" y="566" on="0"/>
        <pt x="1002" y="530" on="0"/>
        <pt x="1027" y="472" on="0"/>
        <pt x="1027" y="430" on="1"/>
        <pt x="1027" y="378" on="0"/>
        <pt x="965" y="303" on="0"/>
        <pt x="914" y="294" on="1"/>
        <pt x="914" y="291" on="1"/>
        <pt x="1048" y="267" on="0"/>
        <pt x="1048" y="150" on="1"/>
        <pt x="1048" y="-8" on="0"/>
      </contour>
      <contour>
        <pt x="797" y="28" on="1"/>
        <pt x="905" y="28" on="0"/>
        <pt x="1006" y="88" on="0"/>
        <pt x="1006" y="151" on="1"/>
        <pt x="1006" y="275" on="0"/>
        <pt x="825" y="275" on="1"/>
        <pt x="650" y="275" on="1"/>
        <pt x="650" y="37" on="1"/>
        <pt x="702" y="28" on="0"/>
      </contour>
      <contour>
        <pt x="822" y="310" on="1"/>
        <pt x="910" y="310" on="0"/>
        <pt x="986" y="366" on="0"/>
        <pt x="986" y="430" on="1"/>
        <pt x="986" y="494" on="0"/>
        <pt x="901" y="548" on="0"/>
        <pt x="797" y="548" on="1"/>
        <pt x="749" y="548" on="0"/>
        <pt x="679" y="545" on="0"/>
        <pt x="650" y="540" on="1"/>
        <pt x="650" y="310" on="1"/>
      </contour>
    </TTGlyph>
    <TTGlyph name="F_F.sc" xMin="99" yMin="0" xMax="1006" yMax="577">
      <contour>
        <pt x="99" y="577" on="1"/>
        <pt x="496" y="577" on="1"/>
        <pt x="496" y="540" on="1"/>
        <pt x="140" y="540" on="1"/>
        <pt x="140" y="310" on="1"/>
        <pt x="463" y="310" on="1"/>
        <pt x="463" y="274" on="1"/>
        <pt x="140" y="274" on="1"/>
        <pt x="140" y="0" on="1"/>
        <pt x="99" y="0" on="1"/>
      </contour>
      <contour>
        <pt x="609" y="577" on="1"/>
        <pt x="1006" y="577" on="1"/>
        <pt x="1006" y="540" on="1"/>
        <pt x="650" y="540" on="1"/>
        <pt x="650" y="310" on="1"/>
        <pt x="973" y="310" on="1"/>
        <pt x="973" y="274" on="1"/>
        <pt x="650" y="274" on="1"/>
        <pt x="650" y="0" on="1"/>
        <pt x="609" y="0" on="1"/>
      </contour>
    </TTGlyph>
    <TTGlyph name="F_F_B.sc" xMin="99" yMin="-8" xMax="1558" yMax="583">
      <contour>
        <pt x="99" y="577" on="1"/>
        <pt x="496" y="577" on="1"/>
        <pt x="496" y="540" on="1"/>
        <pt x="140" y="540" on="1"/>
        <pt x="140" y="310" on="1"/>
        <pt x="463" y="310" on="1"/>
        <pt x="463" y="274" on="1"/>
        <pt x="140" y="274" on="1"/>
        <pt x="140" y="0" on="1"/>
        <pt x="99" y="0" on="1"/>
      </contour>
      <contour>
        <pt x="609" y="577" on="1"/>
        <pt x="1006" y="577" on="1"/>
        <pt x="1006" y="540" on="1"/>
        <pt x="650" y="540" on="1"/>
        <pt x="650" y="310" on="1"/>
        <pt x="973" y="310" on="1"/>
        <pt x="973" y="274" on="1"/>
        <pt x="650" y="274" on="1"/>
        <pt x="650" y="0" on="1"/>
        <pt x="609" y="0" on="1"/>
      </contour>
      <contour>
        <pt x="1308" y="-8" on="1"/>
        <pt x="1267" y="-8" on="0"/>
        <pt x="1176" y="-2" on="0"/>
        <pt x="1119" y="4" on="1"/>
        <pt x="1119" y="573" on="1"/>
        <pt x="1180" y="578" on="0"/>
        <pt x="1268" y="583" on="0"/>
        <pt x="1306" y="583" on="1"/>
        <pt x="1369" y="583" on="0"/>
        <pt x="1457" y="566" on="0"/>
        <pt x="1512" y="530" on="0"/>
        <pt x="1537" y="472" on="0"/>
        <pt x="1537" y="430" on="1"/>
        <pt x="1537" y="378" on="0"/>
        <pt x="1475" y="303" on="0"/>
        <pt x="1424" y="294" on="1"/>
        <pt x="1424" y="291" on="1"/>
        <pt x="1558" y="267" on="0"/>
        <pt x="1558" y="150" on="1"/>
        <pt x="1558" y="-8" on="0"/>
      </contour>
      <contour>
        <pt x="1307" y="28" on="1"/>
        <pt x="1415" y="28" on="0"/>
        <pt x="1516" y="88" on="0"/>
        <pt x="1516" y="151" on="1"/>
        <pt x="1516" y="275" on="0"/>
        <pt x="1335" y="275" on="1"/>
        <pt x="1160" y="275" on="1"/>
        <pt x="1160" y="37" on="1"/>
        <pt x="1212" y="28" on="0"/>
      </contour>
      <contour>
        <pt x="1332" y="310" on="1"/>
        <pt x="1420" y="310" on="0"/>
        <pt x="1496" y="366" on="0"/>
        <pt x="1496" y="430" on="1"/>
        <pt x="1496" y="494" on="0"/>
        <pt x="1411" y="548" on="0"/>
        <pt x="1307" y="548" on="1"/>
        <pt x="1259" y="548" on="0"/>
        <pt x="1189" y="545" on="0"/>
        <pt x="1160" y="540" on="1"/>
        <pt x="1160" y="310" on="1"/>
      </contour>
    </TTGlyph>
    <TTGlyph name="F_F_H.sc" xMin="99" yMin="0" xMax="1619" yMax="577">
      <contour>
        <pt x="99" y="577" on="1"/>
        <pt x="496" y="577" on="1"/>
        <pt x="496" y="540" on="1"/>
        <pt x="140" y="540" on="1"/>
        <pt x="140" y="310" on="1"/>
        <pt x="463" y="310" on="1"/>
        <pt x="463" y="274" on="1"/>
        <pt x="140" y="274" on="1"/>
        <pt x="140" y="0" on="1"/>
        <pt x="99" y="0" on="1"/>
      </contour>
      <contour>
        <pt x="609" y="577" on="1"/>
        <pt x="1006" y="577" on="1"/>
        <pt x="1006" y="540" on="1"/>
        <pt x="650" y="540" on="1"/>
        <pt x="650" y="310" on="1"/>
        <pt x="973" y="310" on="1"/>
        <pt x="973" y="274" on="1"/>
        <pt x="650" y="274" on="1"/>
        <pt x="650" y="0" on="1"/>
        <pt x="609" y="0" on="1"/>
      </contour>
      <contour>
        <pt x="1119" y="577" on="1"/>
        <pt x="1160" y="577" on="1"/>
        <pt x="1160" y="315" on="1"/>
        <pt x="1578" y="315" on="1"/>
        <pt x="1578" y="577" on="1"/>
        <pt x="1619" y="577" on="1"/>
        <pt x="1619" y="0" on="1"/>
        <pt x="1578" y="0" on="1"/>
        <pt x="1578" y="278" on="1"/>
        <pt x="1160" y="278" on="1"/>
        <pt x="1160" y="0" on="1"/>
        <pt x="1119" y="0" on="1"/>
      </contour>
    </TTGlyph>
    <TTGlyph name="F_F_I.sc" xMin="99" yMin="0" xMax="1160" yMax="577">
      <contour>
        <pt x="99" y="577" on="1"/>
        <pt x="496" y="577" on="1"/>
        <pt x="496" y="540" on="1"/>
        <pt x="140" y="540" on="1"/>
        <pt x="140" y="310" on="1"/>
        <pt x="463" y="310" on="1"/>
        <pt x="463" y="274" on="1"/>
        <pt x="140" y="274" on="1"/>
        <pt x="140" y="0" on="1"/>
        <pt x="99" y="0" on="1"/>
      </contour>
      <contour>
        <pt x="609" y="577" on="1"/>
        <pt x="1006" y="577" on="1"/>
        <pt x="1006" y="540" on="1"/>
        <pt x="650" y="540" on="1"/>
        <pt x="650" y="310" on="1"/>
        <pt x="973" y="310" on="1"/>
        <pt x="973" y="274" on="1"/>
        <pt x="650" y="274" on="1"/>
        <pt x="650" y="0" on="1"/>
        <pt x="609" y="0" on="1"/>
      </contour>
      <contour>
        <pt x="1119" y="577" on="1"/>
        <pt x="1160" y="577" on="1"/>
        <pt x="1160" y="0" on="1"/>
        <pt x="1119" y="0" on="1"/>
      </contour>
    </TTGlyph>
    <TTGlyph name="F_F_J.sc" xMin="99" yMin="-142" xMax="1170" yMax="577">
      <contour>
        <pt x="99" y="577" on="1"/>
        <pt x="496" y="577" on="1"/>
        <pt x="496" y="540" on="1"/>
        <pt x="140" y="540" on="1"/>
        <pt x="140" y="310" on="1"/>
        <pt x="463" y="310" on="1"/>
        <pt x="463" y="274" on="1"/>
        <pt x="140" y="274" on="1"/>
        <pt x="140" y="0" on="1"/>
        <pt x="99" y="0" on="1"/>
      </contour>
      <contour>
        <pt x="609" y="577" on="1"/>
        <pt x="1006" y="577" on="1"/>
        <pt x="1006" y="540" on="1"/>
        <pt x="650" y="540" on="1"/>
        <pt x="650" y="310" on="1"/>
        <pt x="973" y="310" on="1"/>
        <pt x="973" y="274" on="1"/>
        <pt x="650" y="274" on="1"/>
        <pt x="650" y="0" on="1"/>
        <pt x="609" y="0" on="1"/>
      </contour>
      <contour>
        <pt x="1062" y="-125" on="1"/>
        <pt x="1081" y="-90" on="0"/>
        <pt x="1107" y="-27" on="0"/>
        <pt x="1122" y="35" on="0"/>
        <pt x="1129" y="102" on="0"/>
        <pt x="1129" y="142" on="1"/>
        <pt x="1129" y="577" on="1"/>
        <pt x="1170" y="577" on="1"/>
        <pt x="1170" y="141" on="1"/>
        <pt x="1170" y="102" on="0"/>
        <pt x="1163" y="37" on="0"/>
        <pt x="1146" y="-27" on="0"/>
        <pt x="1116" y="-97" on="0"/>
        <pt x="1094" y="-142" on="1"/>
      </contour>
    </TTGlyph>
    <TTGlyph name="F_F_K.sc" xMin="99" yMin="0" xMax="1595" yMax="577">
      <contour>
        <pt x="99" y="577" on="1"/>
        <pt x="496" y="577" on="1"/>
        <pt x="496" y="540" on="1"/>
        <pt x="140" y="540" on="1"/>
        <pt x="140" y="310" on="1"/>
        <pt x="463" y="310" on="1"/>
        <pt x="463" y="274" on="1"/>
        <pt x="140" y="274" on="1"/>
        <pt x="140" y="0" on="1"/>
        <pt x="99" y="0" on="1"/>
      </contour>
      <contour>
        <pt x="609" y="577" on="1"/>
        <pt x="1006" y="577" on="1"/>
        <pt x="1006" y="540" on="1"/>
        <pt x="650" y="540" on="1"/>
        <pt x="650" y="310" on="1"/>
        <pt x="973" y="310" on="1"/>
        <pt x="973" y="274" on="1"/>
        <pt x="650" y="274" on="1"/>
        <pt x="650" y="0" on="1"/>
        <pt x="609" y="0" on="1"/>
      </contour>
      <contour>
        <pt x="1119" y="577" on="1"/>
        <pt x="1160" y="577" on="1"/>
        <pt x="1160" y="313" on="1"/>
        <pt x="1319" y="313" on="1"/>
        <pt x="1530" y="577" on="1"/>
        <pt x="1580" y="577" on="1"/>
        <pt x="1373" y="318" on="1"/>
        <pt x="1351" y="300" on="1"/>
        <pt x="1351" y="294" on="1"/>
        <pt x="1375" y="275" on="1"/>
        <pt x="1595" y="0" on="1"/>
        <pt x="1544" y="0" on="1"/>
        <pt x="1323" y="276" on="1"/>
        <pt x="1160" y="276" on="1"/>
        <pt x="1160" y="0" on="1"/>
        <pt x="1119" y="0" on="1"/>
      </contour>
    </TTGlyph>
    <TTGlyph name="F_F_L.sc" xMin="99" yMin="0" xMax="1487" yMax="577">
      <contour>
        <pt x="1119" y="577" on="1"/>
        <pt x="1160" y="577" on="1"/>
        <pt x="1160" y="37" on="1"/>
        <pt x="1487" y="37" on="1"/>
        <pt x="1487" y="0" on="1"/>
        <pt x="1119" y="0" on="1"/>
      </contour>
      <contour>
        <pt x="99" y="577" on="1"/>
        <pt x="496" y="577" on="1"/>
        <pt x="496" y="540" on="1"/>
        <pt x="140" y="540" on="1"/>
        <pt x="140" y="310" on="1"/>
        <pt x="463" y="310" on="1"/>
        <pt x="463" y="274" on="1"/>
        <pt x="140" y="274" on="1"/>
        <pt x="140" y="0" on="1"/>
        <pt x="99" y="0" on="1"/>
      </contour>
      <contour>
        <pt x="609" y="577" on="1"/>
        <pt x="1006" y="577" on="1"/>
        <pt x="1006" y="540" on="1"/>
        <pt x="650" y="540" on="1"/>
        <pt x="650" y="310" on="1"/>
        <pt x="973" y="310" on="1"/>
        <pt x="973" y="274" on="1"/>
        <pt x="650" y="274" on="1"/>
        <pt x="650" y="0" on="1"/>
        <pt x="609" y="0" on="1"/>
      </contour>
    </TTGlyph>
    <TTGlyph name="F_F_T.sc" xMin="99" yMin="0" xMax="1548" yMax="577">
      <contour>
        <pt x="1274" y="540" on="1"/>
        <pt x="1041" y="540" on="1"/>
        <pt x="1041" y="577" on="1"/>
        <pt x="1548" y="577" on="1"/>
        <pt x="1548" y="540" on="1"/>
        <pt x="1316" y="540" on="1"/>
        <pt x="1316" y="0" on="1"/>
        <pt x="1274" y="0" on="1"/>
      </contour>
      <contour>
        <pt x="99" y="577" on="1"/>
        <pt x="496" y="577" on="1"/>
        <pt x="496" y="540" on="1"/>
        <pt x="140" y="540" on="1"/>
        <pt x="140" y="310" on="1"/>
        <pt x="463" y="310" on="1"/>
        <pt x="463" y="274" on="1"/>
        <pt x="140" y="274" on="1"/>
        <pt x="140" y="0" on="1"/>
        <pt x="99" y="0" on="1"/>
      </contour>
      <contour>
        <pt x="609" y="577" on="1"/>
        <pt x="1006" y="577" on="1"/>
        <pt x="1006" y="540" on="1"/>
        <pt x="650" y="540" on="1"/>
        <pt x="650" y="310" on="1"/>
        <pt x="973" y="310" on="1"/>
        <pt x="973" y="274" on="1"/>
        <pt x="650" y="274" on="1"/>
        <pt x="650" y="0" on="1"/>
        <pt x="609" y="0" on="1"/>
      </contour>
    </TTGlyph>
    <TTGlyph name="F_H.sc" xMin="99" yMin="0" xMax="1109" yMax="577">
      <contour>
        <pt x="99" y="577" on="1"/>
        <pt x="496" y="577" on="1"/>
        <pt x="496" y="540" on="1"/>
        <pt x="140" y="540" on="1"/>
        <pt x="140" y="310" on="1"/>
        <pt x="463" y="310" on="1"/>
        <pt x="463" y="274" on="1"/>
        <pt x="140" y="274" on="1"/>
        <pt x="140" y="0" on="1"/>
        <pt x="99" y="0" on="1"/>
      </contour>
      <contour>
        <pt x="609" y="577" on="1"/>
        <pt x="650" y="577" on="1"/>
        <pt x="650" y="315" on="1"/>
        <pt x="1068" y="315" on="1"/>
        <pt x="1068" y="577" on="1"/>
        <pt x="1109" y="577" on="1"/>
        <pt x="1109" y="0" on="1"/>
        <pt x="1068" y="0" on="1"/>
        <pt x="1068" y="278" on="1"/>
        <pt x="650" y="278" on="1"/>
        <pt x="650" y="0" on="1"/>
        <pt x="609" y="0" on="1"/>
      </contour>
    </TTGlyph>
    <TTGlyph name="F_I.sc" xMin="99" yMin="0" xMax="650" yMax="577">
      <contour>
        <pt x="99" y="577" on="1"/>
        <pt x="496" y="577" on="1"/>
        <pt x="496" y="540" on="1"/>
        <pt x="140" y="540" on="1"/>
        <pt x="140" y="310" on="1"/>
        <pt x="463" y="310" on="1"/>
        <pt x="463" y="274" on="1"/>
        <pt x="140" y="274" on="1"/>
        <pt x="140" y="0" on="1"/>
        <pt x="99" y="0" on="1"/>
      </contour>
      <contour>
        <pt x="609" y="577" on="1"/>
        <pt x="650" y="577" on="1"/>
        <pt x="650" y="0" on="1"/>
        <pt x="609" y="0" on="1"/>
      </contour>
    </TTGlyph>
    <TTGlyph name="F_J.sc" xMin="99" yMin="-142" xMax="660" yMax="577">
      <contour>
        <pt x="99" y="577" on="1"/>
        <pt x="496" y="577" on="1"/>
        <pt x="496" y="540" on="1"/>
        <pt x="140" y="540" on="1"/>
        <pt x="140" y="310" on="1"/>
        <pt x="463" y="310" on="1"/>
        <pt x="463" y="274" on="1"/>
        <pt x="140" y="274" on="1"/>
        <pt x="140" y="0" on="1"/>
        <pt x="99" y="0" on="1"/>
      </contour>
      <contour>
        <pt x="552" y="-125" on="1"/>
        <pt x="571" y="-90" on="0"/>
        <pt x="597" y="-27" on="0"/>
        <pt x="612" y="35" on="0"/>
        <pt x="619" y="102" on="0"/>
        <pt x="619" y="142" on="1"/>
        <pt x="619" y="577" on="1"/>
        <pt x="660" y="577" on="1"/>
        <pt x="660" y="141" on="1"/>
        <pt x="660" y="102" on="0"/>
        <pt x="653" y="37" on="0"/>
        <pt x="636" y="-27" on="0"/>
        <pt x="606" y="-97" on="0"/>
        <pt x="584" y="-142" on="1"/>
      </contour>
    </TTGlyph>
    <TTGlyph name="F_K.sc" xMin="99" yMin="0" xMax="1085" yMax="577">
      <contour>
        <pt x="99" y="577" on="1"/>
        <pt x="496" y="577" on="1"/>
        <pt x="496" y="540" on="1"/>
        <pt x="140" y="540" on="1"/>
        <pt x="140" y="310" on="1"/>
        <pt x="463" y="310" on="1"/>
        <pt x="463" y="274" on="1"/>
        <pt x="140" y="274" on="1"/>
        <pt x="140" y="0" on="1"/>
        <pt x="99" y="0" on="1"/>
      </contour>
      <contour>
        <pt x="609" y="577" on="1"/>
        <pt x="650" y="577" on="1"/>
        <pt x="650" y="313" on="1"/>
        <pt x="809" y="313" on="1"/>
        <pt x="1020" y="577" on="1"/>
        <pt x="1070" y="577" on="1"/>
        <pt x="863" y="318" on="1"/>
        <pt x="841" y="300" on="1"/>
        <pt x="841" y="294" on="1"/>
        <pt x="865" y="275" on="1"/>
        <pt x="1085" y="0" on="1"/>
        <pt x="1034" y="0" on="1"/>
        <pt x="813" y="276" on="1"/>
        <pt x="650" y="276" on="1"/>
        <pt x="650" y="0" on="1"/>
        <pt x="609" y="0" on="1"/>
      </contour>
    </TTGlyph>
    <TTGlyph name="F_L.sc" xMin="99" yMin="0" xMax="977" yMax="577">
      <contour>
        <pt x="609" y="577" on="1"/>
        <pt x="650" y="577" on="1"/>
        <pt x="650" y="37" on="1"/>
        <pt x="977" y="37" on="1"/>
        <pt x="977" y="0" on="1"/>
        <pt x="609" y="0" on="1"/>
      </contour>
      <contour>
        <pt x="99" y="577" on="1"/>
        <pt x="496" y="577" on="1"/>
        <pt x="496" y="540" on="1"/>
        <pt x="140" y="540" on="1"/>
        <pt x="140" y="310" on="1"/>
        <pt x="463" y="310" on="1"/>
        <pt x="463" y="274" on="1"/>
        <pt x="140" y="274" on="1"/>
        <pt x="140" y="0" on="1"/>
        <pt x="99" y="0" on="1"/>
      </contour>
    </TTGlyph>
    <TTGlyph name="F_T.sc" xMin="99" yMin="0" xMax="1038" yMax="577">
      <contour>
        <pt x="764" y="540" on="1"/>
        <pt x="531" y="540" on="1"/>
        <pt x="531" y="577" on="1"/>
        <pt x="1038" y="577" on="1"/>
        <pt x="1038" y="540" on="1"/>
        <pt x="806" y="540" on="1"/>
        <pt x="806" y="0" on="1"/>
        <pt x="764" y="0" on="1"/>
      </contour>
      <contour>
        <pt x="99" y="577" on="1"/>
        <pt x="496" y="577" on="1"/>
        <pt x="496" y="540" on="1"/>
        <pt x="140" y="540" on="1"/>
        <pt x="140" y="310" on="1"/>
        <pt x="463" y="310" on="1"/>
        <pt x="463" y="274" on="1"/>
        <pt x="140" y="274" on="1"/>
        <pt x="140" y="0" on="1"/>
        <pt x="99" y="0" on="1"/>
      </contour>
    </TTGlyph>
    <TTGlyph name="G" xMin="62" yMin="-7" xMax="596" yMax="749">
      <contour>
        <pt x="393" y="-7" on="1"/>
        <pt x="231" y="-7" on="0"/>
        <pt x="62" y="185" on="0"/>
        <pt x="62" y="368" on="1"/>
        <pt x="62" y="555" on="0"/>
        <pt x="235" y="749" on="0"/>
        <pt x="403" y="749" on="1"/>
        <pt x="448" y="749" on="0"/>
        <pt x="537" y="735" on="0"/>
        <pt x="590" y="721" on="1"/>
        <pt x="590" y="680" on="1"/>
        <pt x="557" y="689" on="0"/>
        <pt x="507" y="700" on="0"/>
        <pt x="465" y="706" on="0"/>
        <pt x="426" y="709" on="0"/>
        <pt x="404" y="709" on="1"/>
        <pt x="260" y="709" on="0"/>
        <pt x="104" y="533" on="0"/>
        <pt x="104" y="369" on="1"/>
        <pt x="104" y="206" on="0"/>
        <pt x="252" y="33" on="0"/>
        <pt x="392" y="33" on="1"/>
        <pt x="408" y="33" on="0"/>
        <pt x="450" y="37" on="0"/>
        <pt x="494" y="43" on="0"/>
        <pt x="538" y="51" on="0"/>
        <pt x="555" y="55" on="1"/>
        <pt x="555" y="376" on="1"/>
        <pt x="596" y="376" on="1"/>
        <pt x="596" y="26" on="1"/>
        <pt x="573" y="19" on="0"/>
        <pt x="520" y="7" on="0"/>
        <pt x="465" y="-2" on="0"/>
        <pt x="414" y="-7" on="0"/>
      </contour>
    </TTGlyph>
    <TTGlyph name="G.sc" xMin="62" yMin="-6" xMax="526" yMax="584">
      <contour>
        <pt x="347" y="-6" on="1"/>
        <pt x="208" y="-6" on="0"/>
        <pt x="62" y="144" on="0"/>
        <pt x="62" y="287" on="1"/>
        <pt x="62" y="433" on="0"/>
        <pt x="212" y="584" on="0"/>
        <pt x="356" y="584" on="1"/>
        <pt x="395" y="584" on="0"/>
        <pt x="474" y="573" on="0"/>
        <pt x="520" y="562" on="1"/>
        <pt x="520" y="524" on="1"/>
        <pt x="491" y="530" on="0"/>
        <pt x="448" y="539" on="0"/>
        <pt x="411" y="544" on="0"/>
        <pt x="377" y="546" on="0"/>
        <pt x="358" y="546" on="1"/>
        <pt x="236" y="546" on="0"/>
        <pt x="104" y="413" on="0"/>
        <pt x="104" y="288" on="1"/>
        <pt x="104" y="163" on="0"/>
        <pt x="229" y="33" on="0"/>
        <pt x="347" y="33" on="1"/>
        <pt x="360" y="33" on="0"/>
        <pt x="397" y="35" on="0"/>
        <pt x="435" y="40" on="0"/>
        <pt x="471" y="46" on="0"/>
        <pt x="485" y="49" on="1"/>
        <pt x="485" y="293" on="1"/>
        <pt x="526" y="293" on="1"/>
        <pt x="526" y="21" on="1"/>
        <pt x="506" y="15" on="0"/>
        <pt x="459" y="6" on="0"/>
        <pt x="411" y="-2" on="0"/>
        <pt x="365" y="-6" on="0"/>
      </contour>
    </TTGlyph>
    <TTGlyph name="Gacute" xMin="62" yMin="-7" xMax="596" yMax="933">
      <contour>
        <pt x="336" y="810" on="1"/>
        <pt x="415" y="933" on="1"/>
        <pt x="461" y="933" on="1"/>
        <pt x="374" y="804" on="1"/>
      </contour>
      <contour>
        <pt x="393" y="-7" on="1"/>
        <pt x="231" y="-7" on="0"/>
        <pt x="62" y="185" on="0"/>
        <pt x="62" y="368" on="1"/>
        <pt x="62" y="555" on="0"/>
        <pt x="235" y="749" on="0"/>
        <pt x="403" y="749" on="1"/>
        <pt x="448" y="749" on="0"/>
        <pt x="537" y="735" on="0"/>
        <pt x="590" y="721" on="1"/>
        <pt x="590" y="680" on="1"/>
        <pt x="557" y="689" on="0"/>
        <pt x="507" y="700" on="0"/>
        <pt x="465" y="706" on="0"/>
        <pt x="426" y="709" on="0"/>
        <pt x="404" y="709" on="1"/>
        <pt x="260" y="709" on="0"/>
        <pt x="104" y="533" on="0"/>
        <pt x="104" y="369" on="1"/>
        <pt x="104" y="206" on="0"/>
        <pt x="252" y="33" on="0"/>
        <pt x="392" y="33" on="1"/>
        <pt x="408" y="33" on="0"/>
        <pt x="450" y="37" on="0"/>
        <pt x="494" y="43" on="0"/>
        <pt x="538" y="51" on="0"/>
        <pt x="555" y="55" on="1"/>
        <pt x="555" y="376" on="1"/>
        <pt x="596" y="376" on="1"/>
        <pt x="596" y="26" on="1"/>
        <pt x="573" y="19" on="0"/>
        <pt x="520" y="7" on="0"/>
        <pt x="465" y="-2" on="0"/>
        <pt x="414" y="-7" on="0"/>
      </contour>
    </TTGlyph>
    <TTGlyph name="Gacute.sc" xMin="62" yMin="-6" xMax="526" yMax="732">
      <contour>
        <pt x="347" y="-6" on="1"/>
        <pt x="208" y="-6" on="0"/>
        <pt x="62" y="144" on="0"/>
        <pt x="62" y="287" on="1"/>
        <pt x="62" y="433" on="0"/>
        <pt x="212" y="584" on="0"/>
        <pt x="356" y="584" on="1"/>
        <pt x="395" y="584" on="0"/>
        <pt x="474" y="573" on="0"/>
        <pt x="520" y="562" on="1"/>
        <pt x="520" y="524" on="1"/>
        <pt x="491" y="530" on="0"/>
        <pt x="448" y="539" on="0"/>
        <pt x="411" y="544" on="0"/>
        <pt x="377" y="546" on="0"/>
        <pt x="358" y="546" on="1"/>
        <pt x="236" y="546" on="0"/>
        <pt x="104" y="413" on="0"/>
        <pt x="104" y="288" on="1"/>
        <pt x="104" y="163" on="0"/>
        <pt x="229" y="33" on="0"/>
        <pt x="347" y="33" on="1"/>
        <pt x="360" y="33" on="0"/>
        <pt x="397" y="35" on="0"/>
        <pt x="435" y="40" on="0"/>
        <pt x="471" y="46" on="0"/>
        <pt x="485" y="49" on="1"/>
        <pt x="485" y="293" on="1"/>
        <pt x="526" y="293" on="1"/>
        <pt x="526" y="21" on="1"/>
        <pt x="506" y="15" on="0"/>
        <pt x="459" y="6" on="0"/>
        <pt x="411" y="-2" on="0"/>
        <pt x="365" y="-6" on="0"/>
      </contour>
      <contour>
        <pt x="297" y="633" on="1"/>
        <pt x="362" y="732" on="1"/>
        <pt x="408" y="732" on="1"/>
        <pt x="332" y="628" on="1"/>
      </contour>
    </TTGlyph>
    <TTGlyph name="Gbreve" xMin="62" yMin="-7" xMax="596" yMax="950">
      <contour>
        <pt x="361" y="816" on="1"/>
        <pt x="281" y="816" on="0"/>
        <pt x="193" y="887" on="0"/>
        <pt x="193" y="950" on="1"/>
        <pt x="231" y="950" on="1"/>
        <pt x="231" y="905" on="0"/>
        <pt x="300" y="853" on="0"/>
        <pt x="361" y="853" on="1"/>
        <pt x="423" y="853" on="0"/>
        <pt x="491" y="905" on="0"/>
        <pt x="491" y="950" on="1"/>
        <pt x="530" y="950" on="1"/>
        <pt x="530" y="887" on="0"/>
        <pt x="441" y="816" on="0"/>
      </contour>
      <contour>
        <pt x="393" y="-7" on="1"/>
        <pt x="231" y="-7" on="0"/>
        <pt x="62" y="185" on="0"/>
        <pt x="62" y="368" on="1"/>
        <pt x="62" y="555" on="0"/>
        <pt x="235" y="749" on="0"/>
        <pt x="403" y="749" on="1"/>
        <pt x="448" y="749" on="0"/>
        <pt x="537" y="735" on="0"/>
        <pt x="590" y="721" on="1"/>
        <pt x="590" y="680" on="1"/>
        <pt x="557" y="689" on="0"/>
        <pt x="507" y="700" on="0"/>
        <pt x="465" y="706" on="0"/>
        <pt x="426" y="709" on="0"/>
        <pt x="404" y="709" on="1"/>
        <pt x="260" y="709" on="0"/>
        <pt x="104" y="533" on="0"/>
        <pt x="104" y="369" on="1"/>
        <pt x="104" y="206" on="0"/>
        <pt x="252" y="33" on="0"/>
        <pt x="392" y="33" on="1"/>
        <pt x="408" y="33" on="0"/>
        <pt x="450" y="37" on="0"/>
        <pt x="494" y="43" on="0"/>
        <pt x="538" y="51" on="0"/>
        <pt x="555" y="55" on="1"/>
        <pt x="555" y="376" on="1"/>
        <pt x="596" y="376" on="1"/>
        <pt x="596" y="26" on="1"/>
        <pt x="573" y="19" on="0"/>
        <pt x="520" y="7" on="0"/>
        <pt x="465" y="-2" on="0"/>
        <pt x="414" y="-7" on="0"/>
      </contour>
    </TTGlyph>
    <TTGlyph name="Gbreve.sc" xMin="62" yMin="-6" xMax="526" yMax="744">
      <contour>
        <pt x="347" y="-6" on="1"/>
        <pt x="208" y="-6" on="0"/>
        <pt x="62" y="144" on="0"/>
        <pt x="62" y="287" on="1"/>
        <pt x="62" y="433" on="0"/>
        <pt x="212" y="584" on="0"/>
        <pt x="356" y="584" on="1"/>
        <pt x="395" y="584" on="0"/>
        <pt x="474" y="573" on="0"/>
        <pt x="520" y="562" on="1"/>
        <pt x="520" y="524" on="1"/>
        <pt x="491" y="530" on="0"/>
        <pt x="448" y="539" on="0"/>
        <pt x="411" y="544" on="0"/>
        <pt x="377" y="546" on="0"/>
        <pt x="358" y="546" on="1"/>
        <pt x="236" y="546" on="0"/>
        <pt x="104" y="413" on="0"/>
        <pt x="104" y="288" on="1"/>
        <pt x="104" y="163" on="0"/>
        <pt x="229" y="33" on="0"/>
        <pt x="347" y="33" on="1"/>
        <pt x="360" y="33" on="0"/>
        <pt x="397" y="35" on="0"/>
        <pt x="435" y="40" on="0"/>
        <pt x="471" y="46" on="0"/>
        <pt x="485" y="49" on="1"/>
        <pt x="485" y="293" on="1"/>
        <pt x="526" y="293" on="1"/>
        <pt x="526" y="21" on="1"/>
        <pt x="506" y="15" on="0"/>
        <pt x="459" y="6" on="0"/>
        <pt x="411" y="-2" on="0"/>
        <pt x="365" y="-6" on="0"/>
      </contour>
      <contour>
        <pt x="321" y="636" on="1"/>
        <pt x="250" y="636" on="0"/>
        <pt x="173" y="694" on="0"/>
        <pt x="173" y="744" on="1"/>
        <pt x="209" y="744" on="1"/>
        <pt x="209" y="708" on="0"/>
        <pt x="267" y="669" on="0"/>
        <pt x="321" y="669" on="1"/>
        <pt x="373" y="669" on="0"/>
        <pt x="431" y="708" on="0"/>
        <pt x="431" y="744" on="1"/>
        <pt x="468" y="744" on="1"/>
        <pt x="468" y="694" on="0"/>
        <pt x="391" y="636" on="0"/>
      </contour>
    </TTGlyph>
    <TTGlyph name="Gcircumflex" xMin="62" yMin="-7" xMax="596" yMax="936">
      <contour>
        <pt x="393" y="-7" on="1"/>
        <pt x="231" y="-7" on="0"/>
        <pt x="62" y="185" on="0"/>
        <pt x="62" y="368" on="1"/>
        <pt x="62" y="555" on="0"/>
        <pt x="235" y="749" on="0"/>
        <pt x="403" y="749" on="1"/>
        <pt x="448" y="749" on="0"/>
        <pt x="537" y="735" on="0"/>
        <pt x="590" y="721" on="1"/>
        <pt x="590" y="680" on="1"/>
        <pt x="557" y="689" on="0"/>
        <pt x="507" y="700" on="0"/>
        <pt x="465" y="706" on="0"/>
        <pt x="426" y="709" on="0"/>
        <pt x="404" y="709" on="1"/>
        <pt x="260" y="709" on="0"/>
        <pt x="104" y="533" on="0"/>
        <pt x="104" y="369" on="1"/>
        <pt x="104" y="206" on="0"/>
        <pt x="252" y="33" on="0"/>
        <pt x="392" y="33" on="1"/>
        <pt x="408" y="33" on="0"/>
        <pt x="450" y="37" on="0"/>
        <pt x="494" y="43" on="0"/>
        <pt x="538" y="51" on="0"/>
        <pt x="555" y="55" on="1"/>
        <pt x="555" y="376" on="1"/>
        <pt x="596" y="376" on="1"/>
        <pt x="596" y="26" on="1"/>
        <pt x="573" y="19" on="0"/>
        <pt x="520" y="7" on="0"/>
        <pt x="465" y="-2" on="0"/>
        <pt x="414" y="-7" on="0"/>
      </contour>
      <contour>
        <pt x="207" y="864" on="1"/>
        <pt x="361" y="936" on="1"/>
        <pt x="516" y="864" on="1"/>
        <pt x="516" y="818" on="1"/>
        <pt x="361" y="890" on="1"/>
        <pt x="207" y="818" on="1"/>
      </contour>
    </TTGlyph>
    <TTGlyph name="Gcircumflex.sc" xMin="62" yMin="-6" xMax="526" yMax="735">
      <contour>
        <pt x="347" y="-6" on="1"/>
        <pt x="208" y="-6" on="0"/>
        <pt x="62" y="144" on="0"/>
        <pt x="62" y="287" on="1"/>
        <pt x="62" y="433" on="0"/>
        <pt x="212" y="584" on="0"/>
        <pt x="356" y="584" on="1"/>
        <pt x="395" y="584" on="0"/>
        <pt x="474" y="573" on="0"/>
        <pt x="520" y="562" on="1"/>
        <pt x="520" y="524" on="1"/>
        <pt x="491" y="530" on="0"/>
        <pt x="448" y="539" on="0"/>
        <pt x="411" y="544" on="0"/>
        <pt x="377" y="546" on="0"/>
        <pt x="358" y="546" on="1"/>
        <pt x="236" y="546" on="0"/>
        <pt x="104" y="413" on="0"/>
        <pt x="104" y="288" on="1"/>
        <pt x="104" y="163" on="0"/>
        <pt x="229" y="33" on="0"/>
        <pt x="347" y="33" on="1"/>
        <pt x="360" y="33" on="0"/>
        <pt x="397" y="35" on="0"/>
        <pt x="435" y="40" on="0"/>
        <pt x="471" y="46" on="0"/>
        <pt x="485" y="49" on="1"/>
        <pt x="485" y="293" on="1"/>
        <pt x="526" y="293" on="1"/>
        <pt x="526" y="21" on="1"/>
        <pt x="506" y="15" on="0"/>
        <pt x="459" y="6" on="0"/>
        <pt x="411" y="-2" on="0"/>
        <pt x="365" y="-6" on="0"/>
      </contour>
      <contour>
        <pt x="185" y="677" on="1"/>
        <pt x="320" y="735" on="1"/>
        <pt x="456" y="677" on="1"/>
        <pt x="456" y="637" on="1"/>
        <pt x="320" y="694" on="1"/>
        <pt x="185" y="637" on="1"/>
      </contour>
    </TTGlyph>
    <TTGlyph name="Gcommaaccent" xMin="62" yMin="-220" xMax="596" yMax="749">
      <contour>
        <pt x="350" y="-70" on="1"/>
        <pt x="396" y="-70" on="1"/>
        <pt x="340" y="-220" on="1"/>
        <pt x="300" y="-220" on="1"/>
      </contour>
      <contour>
        <pt x="393" y="-7" on="1"/>
        <pt x="231" y="-7" on="0"/>
        <pt x="62" y="185" on="0"/>
        <pt x="62" y="368" on="1"/>
        <pt x="62" y="555" on="0"/>
        <pt x="235" y="749" on="0"/>
        <pt x="403" y="749" on="1"/>
        <pt x="448" y="749" on="0"/>
        <pt x="537" y="735" on="0"/>
        <pt x="590" y="721" on="1"/>
        <pt x="590" y="680" on="1"/>
        <pt x="557" y="689" on="0"/>
        <pt x="507" y="700" on="0"/>
        <pt x="465" y="706" on="0"/>
        <pt x="426" y="709" on="0"/>
        <pt x="404" y="709" on="1"/>
        <pt x="260" y="709" on="0"/>
        <pt x="104" y="533" on="0"/>
        <pt x="104" y="369" on="1"/>
        <pt x="104" y="206" on="0"/>
        <pt x="252" y="33" on="0"/>
        <pt x="392" y="33" on="1"/>
        <pt x="408" y="33" on="0"/>
        <pt x="450" y="37" on="0"/>
        <pt x="494" y="43" on="0"/>
        <pt x="538" y="51" on="0"/>
        <pt x="555" y="55" on="1"/>
        <pt x="555" y="376" on="1"/>
        <pt x="596" y="376" on="1"/>
        <pt x="596" y="26" on="1"/>
        <pt x="573" y="19" on="0"/>
        <pt x="520" y="7" on="0"/>
        <pt x="465" y="-2" on="0"/>
        <pt x="414" y="-7" on="0"/>
      </contour>
    </TTGlyph>
    <TTGlyph name="Gcommaaccent.sc" xMin="62" yMin="-172" xMax="526" yMax="584">
      <contour>
        <pt x="347" y="-6" on="1"/>
        <pt x="208" y="-6" on="0"/>
        <pt x="62" y="144" on="0"/>
        <pt x="62" y="287" on="1"/>
        <pt x="62" y="433" on="0"/>
        <pt x="212" y="584" on="0"/>
        <pt x="356" y="584" on="1"/>
        <pt x="395" y="584" on="0"/>
        <pt x="474" y="573" on="0"/>
        <pt x="520" y="562" on="1"/>
        <pt x="520" y="524" on="1"/>
        <pt x="491" y="530" on="0"/>
        <pt x="448" y="539" on="0"/>
        <pt x="411" y="544" on="0"/>
        <pt x="377" y="546" on="0"/>
        <pt x="358" y="546" on="1"/>
        <pt x="236" y="546" on="0"/>
        <pt x="104" y="413" on="0"/>
        <pt x="104" y="288" on="1"/>
        <pt x="104" y="163" on="0"/>
        <pt x="229" y="33" on="0"/>
        <pt x="347" y="33" on="1"/>
        <pt x="360" y="33" on="0"/>
        <pt x="397" y="35" on="0"/>
        <pt x="435" y="40" on="0"/>
        <pt x="471" y="46" on="0"/>
        <pt x="485" y="49" on="1"/>
        <pt x="485" y="293" on="1"/>
        <pt x="526" y="293" on="1"/>
        <pt x="526" y="21" on="1"/>
        <pt x="506" y="15" on="0"/>
        <pt x="459" y="6" on="0"/>
        <pt x="411" y="-2" on="0"/>
        <pt x="365" y="-6" on="0"/>
      </contour>
      <contour>
        <pt x="307" y="-55" on="1"/>
        <pt x="353" y="-55" on="1"/>
        <pt x="304" y="-172" on="1"/>
        <pt x="265" y="-172" on="1"/>
      </contour>
    </TTGlyph>
    <TTGlyph name="Gdotaccent" xMin="62" yMin="-7" xMax="596" yMax="900">
      <contour>
        <pt x="363" y="827" on="1"/>
        <pt x="346" y="827" on="0"/>
        <pt x="326" y="844" on="0"/>
        <pt x="326" y="863" on="1"/>
        <pt x="326" y="882" on="0"/>
        <pt x="346" y="900" on="0"/>
        <pt x="363" y="900" on="1"/>
        <pt x="378" y="900" on="0"/>
        <pt x="400" y="883" on="0"/>
        <pt x="400" y="863" on="1"/>
        <pt x="400" y="843" on="0"/>
        <pt x="378" y="827" on="0"/>
      </contour>
      <contour>
        <pt x="393" y="-7" on="1"/>
        <pt x="231" y="-7" on="0"/>
        <pt x="62" y="185" on="0"/>
        <pt x="62" y="368" on="1"/>
        <pt x="62" y="555" on="0"/>
        <pt x="235" y="749" on="0"/>
        <pt x="403" y="749" on="1"/>
        <pt x="448" y="749" on="0"/>
        <pt x="537" y="735" on="0"/>
        <pt x="590" y="721" on="1"/>
        <pt x="590" y="680" on="1"/>
        <pt x="557" y="689" on="0"/>
        <pt x="507" y="700" on="0"/>
        <pt x="465" y="706" on="0"/>
        <pt x="426" y="709" on="0"/>
        <pt x="404" y="709" on="1"/>
        <pt x="260" y="709" on="0"/>
        <pt x="104" y="533" on="0"/>
        <pt x="104" y="369" on="1"/>
        <pt x="104" y="206" on="0"/>
        <pt x="252" y="33" on="0"/>
        <pt x="392" y="33" on="1"/>
        <pt x="408" y="33" on="0"/>
        <pt x="450" y="37" on="0"/>
        <pt x="494" y="43" on="0"/>
        <pt x="538" y="51" on="0"/>
        <pt x="555" y="55" on="1"/>
        <pt x="555" y="376" on="1"/>
        <pt x="596" y="376" on="1"/>
        <pt x="596" y="26" on="1"/>
        <pt x="573" y="19" on="0"/>
        <pt x="520" y="7" on="0"/>
        <pt x="465" y="-2" on="0"/>
        <pt x="414" y="-7" on="0"/>
      </contour>
    </TTGlyph>
    <TTGlyph name="Gdotaccent.sc" xMin="62" yMin="-6" xMax="526" yMax="709">
      <contour>
        <pt x="347" y="-6" on="1"/>
        <pt x="208" y="-6" on="0"/>
        <pt x="62" y="144" on="0"/>
        <pt x="62" y="287" on="1"/>
        <pt x="62" y="433" on="0"/>
        <pt x="212" y="584" on="0"/>
        <pt x="356" y="584" on="1"/>
        <pt x="395" y="584" on="0"/>
        <pt x="474" y="573" on="0"/>
        <pt x="520" y="562" on="1"/>
        <pt x="520" y="524" on="1"/>
        <pt x="491" y="530" on="0"/>
        <pt x="448" y="539" on="0"/>
        <pt x="411" y="544" on="0"/>
        <pt x="377" y="546" on="0"/>
        <pt x="358" y="546" on="1"/>
        <pt x="236" y="546" on="0"/>
        <pt x="104" y="413" on="0"/>
        <pt x="104" y="288" on="1"/>
        <pt x="104" y="163" on="0"/>
        <pt x="229" y="33" on="0"/>
        <pt x="347" y="33" on="1"/>
        <pt x="360" y="33" on="0"/>
        <pt x="397" y="35" on="0"/>
        <pt x="435" y="40" on="0"/>
        <pt x="471" y="46" on="0"/>
        <pt x="485" y="49" on="1"/>
        <pt x="485" y="293" on="1"/>
        <pt x="526" y="293" on="1"/>
        <pt x="526" y="21" on="1"/>
        <pt x="506" y="15" on="0"/>
        <pt x="459" y="6" on="0"/>
        <pt x="411" y="-2" on="0"/>
        <pt x="365" y="-6" on="0"/>
      </contour>
      <contour>
        <pt x="322" y="645" on="1"/>
        <pt x="288" y="645" on="0"/>
        <pt x="288" y="677" on="1"/>
        <pt x="288" y="709" on="0"/>
        <pt x="322" y="709" on="1"/>
        <pt x="336" y="709" on="0"/>
        <pt x="356" y="694" on="0"/>
        <pt x="356" y="677" on="1"/>
        <pt x="356" y="660" on="0"/>
        <pt x="336" y="645" on="0"/>
      </contour>
    </TTGlyph>
    <TTGlyph name="H" xMin="104" yMin="0" xMax="680" yMax="740">
      <contour>
        <pt x="104" y="740" on="1"/>
        <pt x="147" y="740" on="1"/>
        <pt x="147" y="400" on="1"/>
        <pt x="637" y="400" on="1"/>
        <pt x="637" y="740" on="1"/>
        <pt x="680" y="740" on="1"/>
        <pt x="680" y="0" on="1"/>
        <pt x="637" y="0" on="1"/>
        <pt x="637" y="360" on="1"/>
        <pt x="147" y="360" on="1"/>
        <pt x="147" y="0" on="1"/>
        <pt x="104" y="0" on="1"/>
      </contour>
    </TTGlyph>
    <TTGlyph name="H.sc" xMin="99" yMin="0" xMax="599" yMax="577">
      <contour>
        <pt x="99" y="577" on="1"/>
        <pt x="140" y="577" on="1"/>
        <pt x="140" y="315" on="1"/>
        <pt x="558" y="315" on="1"/>
        <pt x="558" y="577" on="1"/>
        <pt x="599" y="577" on="1"/>
        <pt x="599" y="0" on="1"/>
        <pt x="558" y="0" on="1"/>
        <pt x="558" y="278" on="1"/>
        <pt x="140" y="278" on="1"/>
        <pt x="140" y="0" on="1"/>
        <pt x="99" y="0" on="1"/>
      </contour>
    </TTGlyph>
    <TTGlyph name="Hbar" xMin="9" yMin="0" xMax="784" yMax="740">
      <contour>
        <pt x="9" y="586" on="1"/>
        <pt x="108" y="586" on="1"/>
        <pt x="108" y="740" on="1"/>
        <pt x="151" y="740" on="1"/>
        <pt x="151" y="586" on="1"/>
        <pt x="641" y="586" on="1"/>
        <pt x="641" y="740" on="1"/>
        <pt x="684" y="740" on="1"/>
        <pt x="684" y="586" on="1"/>
        <pt x="784" y="586" on="1"/>
        <pt x="784" y="549" on="1"/>
        <pt x="684" y="549" on="1"/>
        <pt x="684" y="0" on="1"/>
        <pt x="641" y="0" on="1"/>
        <pt x="641" y="360" on="1"/>
        <pt x="151" y="360" on="1"/>
        <pt x="151" y="0" on="1"/>
        <pt x="108" y="0" on="1"/>
        <pt x="108" y="549" on="1"/>
        <pt x="9" y="549" on="1"/>
      </contour>
      <contour>
        <pt x="641" y="400" on="1"/>
        <pt x="641" y="549" on="1"/>
        <pt x="151" y="549" on="1"/>
        <pt x="151" y="400" on="1"/>
      </contour>
    </TTGlyph>
    <TTGlyph name="Hbar.sc" xMin="19" yMin="0" xMax="688" yMax="577">
      <contour>
        <pt x="19" y="460" on="1"/>
        <pt x="103" y="460" on="1"/>
        <pt x="103" y="577" on="1"/>
        <pt x="144" y="577" on="1"/>
        <pt x="144" y="460" on="1"/>
        <pt x="562" y="460" on="1"/>
        <pt x="562" y="577" on="1"/>
        <pt x="603" y="577" on="1"/>
        <pt x="603" y="460" on="1"/>
        <pt x="688" y="460" on="1"/>
        <pt x="688" y="427" on="1"/>
        <pt x="603" y="427" on="1"/>
        <pt x="603" y="0" on="1"/>
        <pt x="562" y="0" on="1"/>
        <pt x="562" y="277" on="1"/>
        <pt x="144" y="277" on="1"/>
        <pt x="144" y="0" on="1"/>
        <pt x="103" y="0" on="1"/>
        <pt x="103" y="427" on="1"/>
        <pt x="19" y="427" on="1"/>
      </contour>
      <contour>
        <pt x="562" y="314" on="1"/>
        <pt x="562" y="427" on="1"/>
        <pt x="144" y="427" on="1"/>
        <pt x="144" y="314" on="1"/>
      </contour>
    </TTGlyph>
    <TTGlyph name="Hcircumflex" xMin="104" yMin="0" xMax="680" yMax="936">
      <contour>
        <pt x="104" y="740" on="1"/>
        <pt x="147" y="740" on="1"/>
        <pt x="147" y="400" on="1"/>
        <pt x="637" y="400" on="1"/>
        <pt x="637" y="740" on="1"/>
        <pt x="680" y="740" on="1"/>
        <pt x="680" y="0" on="1"/>
        <pt x="637" y="0" on="1"/>
        <pt x="637" y="360" on="1"/>
        <pt x="147" y="360" on="1"/>
        <pt x="147" y="0" on="1"/>
        <pt x="104" y="0" on="1"/>
      </contour>
      <contour>
        <pt x="230" y="864" on="1"/>
        <pt x="384" y="936" on="1"/>
        <pt x="539" y="864" on="1"/>
        <pt x="539" y="818" on="1"/>
        <pt x="384" y="890" on="1"/>
        <pt x="230" y="818" on="1"/>
      </contour>
    </TTGlyph>
    <TTGlyph name="Hcircumflex.sc" xMin="99" yMin="0" xMax="599" yMax="735">
      <contour>
        <pt x="99" y="577" on="1"/>
        <pt x="140" y="577" on="1"/>
        <pt x="140" y="315" on="1"/>
        <pt x="558" y="315" on="1"/>
        <pt x="558" y="577" on="1"/>
        <pt x="599" y="577" on="1"/>
        <pt x="599" y="0" on="1"/>
        <pt x="558" y="0" on="1"/>
        <pt x="558" y="278" on="1"/>
        <pt x="140" y="278" on="1"/>
        <pt x="140" y="0" on="1"/>
        <pt x="99" y="0" on="1"/>
      </contour>
      <contour>
        <pt x="208" y="677" on="1"/>
        <pt x="343" y="735" on="1"/>
        <pt x="479" y="677" on="1"/>
        <pt x="479" y="637" on="1"/>
        <pt x="343" y="694" on="1"/>
        <pt x="208" y="637" on="1"/>
      </contour>
    </TTGlyph>
    <TTGlyph name="Hdotbelow" xMin="104" yMin="-172" xMax="680" yMax="740">
      <contour>
        <pt x="104" y="740" on="1"/>
        <pt x="147" y="740" on="1"/>
        <pt x="147" y="400" on="1"/>
        <pt x="637" y="400" on="1"/>
        <pt x="637" y="740" on="1"/>
        <pt x="680" y="740" on="1"/>
        <pt x="680" y="0" on="1"/>
        <pt x="637" y="0" on="1"/>
        <pt x="637" y="360" on="1"/>
        <pt x="147" y="360" on="1"/>
        <pt x="147" y="0" on="1"/>
        <pt x="104" y="0" on="1"/>
      </contour>
      <contour>
        <pt x="404" y="-172" on="1"/>
        <pt x="386" y="-172" on="0"/>
        <pt x="365" y="-154" on="0"/>
        <pt x="365" y="-133" on="1"/>
        <pt x="365" y="-112" on="0"/>
        <pt x="386" y="-93" on="0"/>
        <pt x="404" y="-93" on="1"/>
        <pt x="421" y="-93" on="0"/>
        <pt x="444" y="-111" on="0"/>
        <pt x="444" y="-133" on="1"/>
        <pt x="444" y="-155" on="0"/>
        <pt x="421" y="-172" on="0"/>
      </contour>
    </TTGlyph>
    <TTGlyph name="Hdotbelow.sc" xMin="99" yMin="-137" xMax="599" yMax="577">
      <contour>
        <pt x="99" y="577" on="1"/>
        <pt x="140" y="577" on="1"/>
        <pt x="140" y="315" on="1"/>
        <pt x="558" y="315" on="1"/>
        <pt x="558" y="577" on="1"/>
        <pt x="599" y="577" on="1"/>
        <pt x="599" y="0" on="1"/>
        <pt x="558" y="0" on="1"/>
        <pt x="558" y="278" on="1"/>
        <pt x="140" y="278" on="1"/>
        <pt x="140" y="0" on="1"/>
        <pt x="99" y="0" on="1"/>
      </contour>
      <contour>
        <pt x="359" y="-137" on="1"/>
        <pt x="343" y="-137" on="0"/>
        <pt x="324" y="-121" on="0"/>
        <pt x="324" y="-104" on="1"/>
        <pt x="324" y="-87" on="0"/>
        <pt x="343" y="-70" on="0"/>
        <pt x="359" y="-70" on="1"/>
        <pt x="375" y="-70" on="0"/>
        <pt x="394" y="-86" on="0"/>
        <pt x="394" y="-104" on="1"/>
        <pt x="394" y="-122" on="0"/>
        <pt x="375" y="-137" on="0"/>
      </contour>
    </TTGlyph>
    <TTGlyph name="I" xMin="104" yMin="0" xMax="147" yMax="740">
      <contour>
        <pt x="104" y="740" on="1"/>
        <pt x="147" y="740" on="1"/>
        <pt x="147" y="0" on="1"/>
        <pt x="104" y="0" on="1"/>
      </contour>
    </TTGlyph>
    <TTGlyph name="I.sc" xMin="99" yMin="0" xMax="140" yMax="577">
      <contour>
        <pt x="99" y="577" on="1"/>
        <pt x="140" y="577" on="1"/>
        <pt x="140" y="0" on="1"/>
        <pt x="99" y="0" on="1"/>
      </contour>
    </TTGlyph>
    <TTGlyph name="IJ" xMin="104" yMin="-179" xMax="400" yMax="740">
      <contour>
        <pt x="104" y="740" on="1"/>
        <pt x="147" y="740" on="1"/>
        <pt x="147" y="0" on="1"/>
        <pt x="104" y="0" on="1"/>
      </contour>
      <contour>
        <pt x="279" y="-161" on="1"/>
        <pt x="301" y="-115" on="0"/>
        <pt x="331" y="-35" on="0"/>
        <pt x="349" y="45" on="0"/>
        <pt x="357" y="130" on="0"/>
        <pt x="357" y="181" on="1"/>
        <pt x="357" y="740" on="1"/>
        <pt x="400" y="740" on="1"/>
        <pt x="400" y="180" on="1"/>
        <pt x="400" y="130" on="0"/>
        <pt x="392" y="48" on="0"/>
        <pt x="372" y="-34" on="0"/>
        <pt x="338" y="-123" on="0"/>
        <pt x="312" y="-179" on="1"/>
      </contour>
    </TTGlyph>
    <TTGlyph name="Iacute" xMin="101" yMin="0" xMax="226" yMax="933">
      <contour>
        <pt x="104" y="740" on="1"/>
        <pt x="147" y="740" on="1"/>
        <pt x="147" y="0" on="1"/>
        <pt x="104" y="0" on="1"/>
      </contour>
      <contour>
        <pt x="101" y="810" on="1"/>
        <pt x="180" y="933" on="1"/>
        <pt x="226" y="933" on="1"/>
        <pt x="139" y="804" on="1"/>
      </contour>
    </TTGlyph>
    <TTGlyph name="Iacute.sc" xMin="96" yMin="0" xMax="207" yMax="732">
      <contour>
        <pt x="99" y="577" on="1"/>
        <pt x="140" y="577" on="1"/>
        <pt x="140" y="0" on="1"/>
        <pt x="99" y="0" on="1"/>
      </contour>
      <contour>
        <pt x="96" y="633" on="1"/>
        <pt x="162" y="732" on="1"/>
        <pt x="207" y="732" on="1"/>
        <pt x="132" y="628" on="1"/>
      </contour>
    </TTGlyph>
    <TTGlyph name="Ibreve" xMin="-43" yMin="0" xMax="294" yMax="950">
      <contour>
        <pt x="104" y="740" on="1"/>
        <pt x="147" y="740" on="1"/>
        <pt x="147" y="0" on="1"/>
        <pt x="104" y="0" on="1"/>
      </contour>
      <contour>
        <pt x="125" y="816" on="1"/>
        <pt x="45" y="816" on="0"/>
        <pt x="-43" y="887" on="0"/>
        <pt x="-43" y="950" on="1"/>
        <pt x="-5" y="950" on="1"/>
        <pt x="-5" y="905" on="0"/>
        <pt x="64" y="853" on="0"/>
        <pt x="125" y="853" on="1"/>
        <pt x="187" y="853" on="0"/>
        <pt x="255" y="905" on="0"/>
        <pt x="255" y="950" on="1"/>
        <pt x="294" y="950" on="1"/>
        <pt x="294" y="887" on="0"/>
        <pt x="205" y="816" on="0"/>
      </contour>
    </TTGlyph>
    <TTGlyph name="Ibreve.sc" xMin="-28" yMin="0" xMax="267" yMax="744">
      <contour>
        <pt x="99" y="577" on="1"/>
        <pt x="140" y="577" on="1"/>
        <pt x="140" y="0" on="1"/>
        <pt x="99" y="0" on="1"/>
      </contour>
      <contour>
        <pt x="119" y="636" on="1"/>
        <pt x="48" y="636" on="0"/>
        <pt x="-28" y="694" on="0"/>
        <pt x="-28" y="744" on="1"/>
        <pt x="8" y="744" on="1"/>
        <pt x="8" y="708" on="0"/>
        <pt x="66" y="669" on="0"/>
        <pt x="119" y="669" on="1"/>
        <pt x="173" y="669" on="0"/>
        <pt x="231" y="708" on="0"/>
        <pt x="231" y="744" on="1"/>
        <pt x="267" y="744" on="1"/>
        <pt x="267" y="694" on="0"/>
        <pt x="190" y="636" on="0"/>
      </contour>
    </TTGlyph>
    <TTGlyph name="Icircumflex" xMin="-28" yMin="0" xMax="281" yMax="936">
      <contour>
        <pt x="104" y="740" on="1"/>
        <pt x="147" y="740" on="1"/>
        <pt x="147" y="0" on="1"/>
        <pt x="104" y="0" on="1"/>
      </contour>
      <contour>
        <pt x="-28" y="864" on="1"/>
        <pt x="126" y="936" on="1"/>
        <pt x="281" y="864" on="1"/>
        <pt x="281" y="818" on="1"/>
        <pt x="126" y="890" on="1"/>
        <pt x="-28" y="818" on="1"/>
      </contour>
    </TTGlyph>
    <TTGlyph name="Icircumflex.sc" xMin="-15" yMin="0" xMax="255" yMax="735">
      <contour>
        <pt x="99" y="577" on="1"/>
        <pt x="140" y="577" on="1"/>
        <pt x="140" y="0" on="1"/>
        <pt x="99" y="0" on="1"/>
      </contour>
      <contour>
        <pt x="-15" y="677" on="1"/>
        <pt x="120" y="735" on="1"/>
        <pt x="255" y="677" on="1"/>
        <pt x="255" y="637" on="1"/>
        <pt x="120" y="694" on="1"/>
        <pt x="-15" y="637" on="1"/>
      </contour>
    </TTGlyph>
    <TTGlyph name="Idblgrave" xMin="-43" yMin="0" xMax="214" yMax="924">
      <contour>
        <pt x="104" y="740" on="1"/>
        <pt x="147" y="740" on="1"/>
        <pt x="147" y="0" on="1"/>
        <pt x="104" y="0" on="1"/>
      </contour>
      <contour>
        <pt x="44" y="795" on="1"/>
        <pt x="-43" y="924" on="1"/>
        <pt x="3" y="924" on="1"/>
        <pt x="81" y="808" on="1"/>
      </contour>
      <contour>
        <pt x="176" y="795" on="1"/>
        <pt x="89" y="924" on="1"/>
        <pt x="135" y="924" on="1"/>
        <pt x="214" y="808" on="1"/>
      </contour>
    </TTGlyph>
    <TTGlyph name="Idblgrave.sc" xMin="-29" yMin="0" xMax="198" yMax="724">
      <contour>
        <pt x="99" y="577" on="1"/>
        <pt x="140" y="577" on="1"/>
        <pt x="140" y="0" on="1"/>
        <pt x="99" y="0" on="1"/>
      </contour>
      <contour>
        <pt x="46" y="621" on="1"/>
        <pt x="-29" y="724" on="1"/>
        <pt x="15" y="724" on="1"/>
        <pt x="82" y="631" on="1"/>
      </contour>
      <contour>
        <pt x="163" y="621" on="1"/>
        <pt x="87" y="724" on="1"/>
        <pt x="132" y="724" on="1"/>
        <pt x="198" y="631" on="1"/>
      </contour>
    </TTGlyph>
    <TTGlyph name="Idieresis" xMin="-45" yMin="0" xMax="297" yMax="905">
      <contour>
        <pt x="104" y="740" on="1"/>
        <pt x="147" y="740" on="1"/>
        <pt x="147" y="0" on="1"/>
        <pt x="104" y="0" on="1"/>
      </contour>
      <contour>
        <pt x="-9" y="832" on="1"/>
        <pt x="-26" y="832" on="0"/>
        <pt x="-45" y="849" on="0"/>
        <pt x="-45" y="869" on="1"/>
        <pt x="-45" y="888" on="0"/>
        <pt x="-26" y="905" on="0"/>
        <pt x="-9" y="905" on="1"/>
        <pt x="6" y="905" on="0"/>
        <pt x="29" y="889" on="0"/>
        <pt x="29" y="869" on="1"/>
        <pt x="29" y="849" on="0"/>
        <pt x="6" y="832" on="0"/>
      </contour>
      <contour>
        <pt x="260" y="832" on="1"/>
        <pt x="243" y="832" on="0"/>
        <pt x="223" y="849" on="0"/>
        <pt x="223" y="869" on="1"/>
        <pt x="223" y="888" on="0"/>
        <pt x="243" y="905" on="0"/>
        <pt x="260" y="905" on="1"/>
        <pt x="275" y="905" on="0"/>
        <pt x="297" y="889" on="0"/>
        <pt x="297" y="869" on="1"/>
        <pt x="297" y="849" on="0"/>
        <pt x="275" y="832" on="0"/>
      </contour>
    </TTGlyph>
    <TTGlyph name="Idieresis.sc" xMin="-31" yMin="0" xMax="271" yMax="713">
      <contour>
        <pt x="99" y="577" on="1"/>
        <pt x="140" y="577" on="1"/>
        <pt x="140" y="0" on="1"/>
        <pt x="99" y="0" on="1"/>
      </contour>
      <contour>
        <pt x="3" y="649" on="1"/>
        <pt x="-31" y="649" on="0"/>
        <pt x="-31" y="681" on="1"/>
        <pt x="-31" y="713" on="0"/>
        <pt x="3" y="713" on="1"/>
        <pt x="17" y="713" on="0"/>
        <pt x="38" y="698" on="0"/>
        <pt x="38" y="681" on="1"/>
        <pt x="38" y="664" on="0"/>
        <pt x="17" y="649" on="0"/>
      </contour>
      <contour>
        <pt x="237" y="649" on="1"/>
        <pt x="203" y="649" on="0"/>
        <pt x="203" y="681" on="1"/>
        <pt x="203" y="713" on="0"/>
        <pt x="237" y="713" on="1"/>
        <pt x="251" y="713" on="0"/>
        <pt x="271" y="698" on="0"/>
        <pt x="271" y="681" on="1"/>
        <pt x="271" y="664" on="0"/>
        <pt x="251" y="649" on="0"/>
      </contour>
    </TTGlyph>
    <TTGlyph name="Idotaccent" xMin="90" yMin="0" xMax="164" yMax="900">
      <contour>
        <pt x="104" y="740" on="1"/>
        <pt x="147" y="740" on="1"/>
        <pt x="147" y="0" on="1"/>
        <pt x="104" y="0" on="1"/>
      </contour>
      <contour>
        <pt x="127" y="827" on="1"/>
        <pt x="110" y="827" on="0"/>
        <pt x="90" y="844" on="0"/>
        <pt x="90" y="863" on="1"/>
        <pt x="90" y="882" on="0"/>
        <pt x="110" y="900" on="0"/>
        <pt x="127" y="900" on="1"/>
        <pt x="142" y="900" on="0"/>
        <pt x="164" y="883" on="0"/>
        <pt x="164" y="863" on="1"/>
        <pt x="164" y="843" on="0"/>
        <pt x="142" y="827" on="0"/>
      </contour>
    </TTGlyph>
    <TTGlyph name="Idotaccent.sc" xMin="86" yMin="0" xMax="155" yMax="709">
      <contour>
        <pt x="99" y="577" on="1"/>
        <pt x="140" y="577" on="1"/>
        <pt x="140" y="0" on="1"/>
        <pt x="99" y="0" on="1"/>
      </contour>
      <contour>
        <pt x="120" y="645" on="1"/>
        <pt x="86" y="645" on="0"/>
        <pt x="86" y="677" on="1"/>
        <pt x="86" y="709" on="0"/>
        <pt x="120" y="709" on="1"/>
        <pt x="134" y="709" on="0"/>
        <pt x="155" y="694" on="0"/>
        <pt x="155" y="677" on="1"/>
        <pt x="155" y="660" on="0"/>
        <pt x="134" y="645" on="0"/>
      </contour>
    </TTGlyph>
    <TTGlyph name="Idotbelow" xMin="87" yMin="-172" xMax="166" yMax="740">
      <contour>
        <pt x="104" y="740" on="1"/>
        <pt x="147" y="740" on="1"/>
        <pt x="147" y="0" on="1"/>
        <pt x="104" y="0" on="1"/>
      </contour>
      <contour>
        <pt x="126" y="-172" on="1"/>
        <pt x="108" y="-172" on="0"/>
        <pt x="87" y="-154" on="0"/>
        <pt x="87" y="-133" on="1"/>
        <pt x="87" y="-112" on="0"/>
        <pt x="108" y="-93" on="0"/>
        <pt x="126" y="-93" on="1"/>
        <pt x="143" y="-93" on="0"/>
        <pt x="166" y="-111" on="0"/>
        <pt x="166" y="-133" on="1"/>
        <pt x="166" y="-155" on="0"/>
        <pt x="143" y="-172" on="0"/>
      </contour>
    </TTGlyph>
    <TTGlyph name="Idotbelow.sc" xMin="85" yMin="-137" xMax="156" yMax="577">
      <contour>
        <pt x="99" y="577" on="1"/>
        <pt x="140" y="577" on="1"/>
        <pt x="140" y="0" on="1"/>
        <pt x="99" y="0" on="1"/>
      </contour>
      <contour>
        <pt x="120" y="-137" on="1"/>
        <pt x="104" y="-137" on="0"/>
        <pt x="85" y="-121" on="0"/>
        <pt x="85" y="-104" on="1"/>
        <pt x="85" y="-87" on="0"/>
        <pt x="104" y="-70" on="0"/>
        <pt x="120" y="-70" on="1"/>
        <pt x="136" y="-70" on="0"/>
        <pt x="156" y="-86" on="0"/>
        <pt x="156" y="-104" on="1"/>
        <pt x="156" y="-122" on="0"/>
        <pt x="136" y="-137" on="0"/>
      </contour>
    </TTGlyph>
    <TTGlyph name="Igrave" xMin="25" yMin="0" xMax="149" yMax="933">
      <contour>
        <pt x="104" y="740" on="1"/>
        <pt x="147" y="740" on="1"/>
        <pt x="147" y="0" on="1"/>
        <pt x="104" y="0" on="1"/>
      </contour>
      <contour>
        <pt x="112" y="804" on="1"/>
        <pt x="25" y="933" on="1"/>
        <pt x="71" y="933" on="1"/>
        <pt x="149" y="818" on="1"/>
      </contour>
    </TTGlyph>
    <TTGlyph name="Igrave.sc" xMin="32" yMin="0" xMax="143" yMax="732">
      <contour>
        <pt x="99" y="577" on="1"/>
        <pt x="140" y="577" on="1"/>
        <pt x="140" y="0" on="1"/>
        <pt x="99" y="0" on="1"/>
      </contour>
      <contour>
        <pt x="107" y="628" on="1"/>
        <pt x="32" y="732" on="1"/>
        <pt x="76" y="732" on="1"/>
        <pt x="143" y="639" on="1"/>
      </contour>
    </TTGlyph>
    <TTGlyph name="Iinvertedbreve" xMin="-43" yMin="0" xMax="294" yMax="951">
      <contour>
        <pt x="104" y="740" on="1"/>
        <pt x="147" y="740" on="1"/>
        <pt x="147" y="0" on="1"/>
        <pt x="104" y="0" on="1"/>
      </contour>
      <contour>
        <pt x="255" y="816" on="1"/>
        <pt x="255" y="862" on="0"/>
        <pt x="186" y="914" on="0"/>
        <pt x="125" y="914" on="1"/>
        <pt x="64" y="914" on="0"/>
        <pt x="-5" y="862" on="0"/>
        <pt x="-5" y="816" on="1"/>
        <pt x="-43" y="816" on="1"/>
        <pt x="-43" y="879" on="0"/>
        <pt x="45" y="951" on="0"/>
        <pt x="125" y="951" on="1"/>
        <pt x="205" y="951" on="0"/>
        <pt x="294" y="879" on="0"/>
        <pt x="294" y="816" on="1"/>
      </contour>
    </TTGlyph>
    <TTGlyph name="Iinvertedbreve.sc" xMin="-28" yMin="0" xMax="267" yMax="745">
      <contour>
        <pt x="99" y="577" on="1"/>
        <pt x="140" y="577" on="1"/>
        <pt x="140" y="0" on="1"/>
        <pt x="99" y="0" on="1"/>
      </contour>
      <contour>
        <pt x="231" y="636" on="1"/>
        <pt x="231" y="672" on="0"/>
        <pt x="173" y="712" on="0"/>
        <pt x="120" y="712" on="1"/>
        <pt x="66" y="712" on="0"/>
        <pt x="8" y="672" on="0"/>
        <pt x="8" y="636" on="1"/>
        <pt x="-28" y="636" on="1"/>
        <pt x="-28" y="686" on="0"/>
        <pt x="49" y="745" on="0"/>
        <pt x="120" y="745" on="1"/>
        <pt x="191" y="745" on="0"/>
        <pt x="267" y="686" on="0"/>
        <pt x="267" y="636" on="1"/>
      </contour>
    </TTGlyph>
    <TTGlyph name="Imacron" xMin="-25" yMin="0" xMax="279" yMax="881">
      <contour>
        <pt x="104" y="740" on="1"/>
        <pt x="147" y="740" on="1"/>
        <pt x="147" y="0" on="1"/>
        <pt x="104" y="0" on="1"/>
      </contour>
      <contour>
        <pt x="-25" y="881" on="1"/>
        <pt x="279" y="881" on="1"/>
        <pt x="279" y="842" on="1"/>
        <pt x="-25" y="842" on="1"/>
      </contour>
    </TTGlyph>
    <TTGlyph name="Imacron.sc" xMin="-13" yMin="0" xMax="255" yMax="692">
      <contour>
        <pt x="99" y="577" on="1"/>
        <pt x="140" y="577" on="1"/>
        <pt x="140" y="0" on="1"/>
        <pt x="99" y="0" on="1"/>
      </contour>
      <contour>
        <pt x="-13" y="692" on="1"/>
        <pt x="255" y="692" on="1"/>
        <pt x="255" y="657" on="1"/>
        <pt x="-13" y="657" on="1"/>
      </contour>
    </TTGlyph>
    <TTGlyph name="Iogonek" xMin="-13" yMin="-220" xMax="147" yMax="740">
      <contour>
        <pt x="104" y="740" on="1"/>
        <pt x="147" y="740" on="1"/>
        <pt x="147" y="-23" on="1"/>
        <pt x="81" y="-54" on="0"/>
        <pt x="24" y="-111" on="0"/>
        <pt x="24" y="-145" on="1"/>
        <pt x="24" y="-168" on="0"/>
        <pt x="50" y="-187" on="0"/>
        <pt x="79" y="-187" on="1"/>
        <pt x="94" y="-187" on="0"/>
        <pt x="128" y="-182" on="0"/>
        <pt x="145" y="-177" on="1"/>
        <pt x="145" y="-208" on="1"/>
        <pt x="131" y="-213" on="0"/>
        <pt x="92" y="-220" on="0"/>
        <pt x="72" y="-220" on="1"/>
        <pt x="27" y="-220" on="0"/>
        <pt x="-13" y="-184" on="0"/>
        <pt x="-13" y="-146" on="1"/>
        <pt x="-13" y="-125" on="0"/>
        <pt x="-1" y="-91" on="0"/>
        <pt x="28" y="-57" on="0"/>
        <pt x="76" y="-22" on="0"/>
        <pt x="113" y="0" on="1"/>
        <pt x="104" y="0" on="1"/>
      </contour>
    </TTGlyph>
    <TTGlyph name="Iogonek.sc" xMin="-2" yMin="-172" xMax="140" yMax="577">
      <contour>
        <pt x="99" y="577" on="1"/>
        <pt x="140" y="577" on="1"/>
        <pt x="140" y="-17" on="1"/>
        <pt x="90" y="-39" on="0"/>
        <pt x="34" y="-82" on="0"/>
        <pt x="34" y="-111" on="1"/>
        <pt x="34" y="-130" on="0"/>
        <pt x="58" y="-143" on="0"/>
        <pt x="80" y="-143" on="1"/>
        <pt x="94" y="-143" on="0"/>
        <pt x="124" y="-138" on="0"/>
        <pt x="138" y="-134" on="1"/>
        <pt x="138" y="-162" on="1"/>
        <pt x="126" y="-167" on="0"/>
        <pt x="91" y="-172" on="0"/>
        <pt x="73" y="-172" on="1"/>
        <pt x="34" y="-172" on="0"/>
        <pt x="-2" y="-143" on="0"/>
        <pt x="-2" y="-112" on="1"/>
        <pt x="-2" y="-97" on="0"/>
        <pt x="7" y="-71" on="0"/>
        <pt x="30" y="-46" on="0"/>
        <pt x="71" y="-18" on="0"/>
        <pt x="103" y="0" on="1"/>
        <pt x="99" y="0" on="1"/>
      </contour>
    </TTGlyph>
    <TTGlyph name="Itilde" xMin="-61" yMin="0" xMax="340" yMax="918">
      <contour>
        <pt x="104" y="740" on="1"/>
        <pt x="147" y="740" on="1"/>
        <pt x="147" y="0" on="1"/>
        <pt x="104" y="0" on="1"/>
      </contour>
      <contour>
        <pt x="-61" y="868" on="1"/>
        <pt x="-7" y="918" on="0"/>
        <pt x="54" y="918" on="1"/>
        <pt x="78" y="918" on="0"/>
        <pt x="119" y="905" on="0"/>
        <pt x="158" y="888" on="0"/>
        <pt x="196" y="875" on="0"/>
        <pt x="218" y="875" on="1"/>
        <pt x="269" y="875" on="0"/>
        <pt x="316" y="913" on="1"/>
        <pt x="340" y="889" on="1"/>
        <pt x="314" y="865" on="0"/>
        <pt x="250" y="837" on="0"/>
        <pt x="215" y="837" on="1"/>
        <pt x="194" y="837" on="0"/>
        <pt x="154" y="850" on="0"/>
        <pt x="114" y="867" on="0"/>
        <pt x="74" y="880" on="0"/>
        <pt x="55" y="880" on="1"/>
        <pt x="32" y="880" on="0"/>
        <pt x="-14" y="863" on="0"/>
        <pt x="-37" y="843" on="1"/>
      </contour>
    </TTGlyph>
    <TTGlyph name="Itilde.sc" xMin="-44" yMin="0" xMax="306" yMax="721">
      <contour>
        <pt x="99" y="577" on="1"/>
        <pt x="140" y="577" on="1"/>
        <pt x="140" y="0" on="1"/>
        <pt x="99" y="0" on="1"/>
      </contour>
      <contour>
        <pt x="-44" y="677" on="1"/>
        <pt x="4" y="721" on="0"/>
        <pt x="58" y="721" on="1"/>
        <pt x="79" y="721" on="0"/>
        <pt x="114" y="711" on="0"/>
        <pt x="148" y="698" on="0"/>
        <pt x="182" y="688" on="0"/>
        <pt x="201" y="688" on="1"/>
        <pt x="245" y="688" on="0"/>
        <pt x="286" y="717" on="1"/>
        <pt x="306" y="697" on="1"/>
        <pt x="283" y="677" on="0"/>
        <pt x="226" y="653" on="0"/>
        <pt x="197" y="653" on="1"/>
        <pt x="179" y="653" on="0"/>
        <pt x="143" y="663" on="0"/>
        <pt x="108" y="676" on="0"/>
        <pt x="73" y="686" on="0"/>
        <pt x="56" y="686" on="1"/>
        <pt x="36" y="686" on="0"/>
        <pt x="-4" y="673" on="0"/>
        <pt x="-24" y="657" on="1"/>
      </contour>
    </TTGlyph>
    <TTGlyph name="J" xMin="28" yMin="-179" xMax="149" yMax="740">
      <contour>
        <pt x="28" y="-161" on="1"/>
        <pt x="50" y="-115" on="0"/>
        <pt x="80" y="-35" on="0"/>
        <pt x="98" y="45" on="0"/>
        <pt x="106" y="130" on="0"/>
        <pt x="106" y="181" on="1"/>
        <pt x="106" y="740" on="1"/>
        <pt x="149" y="740" on="1"/>
        <pt x="149" y="180" on="1"/>
        <pt x="149" y="130" on="0"/>
        <pt x="141" y="48" on="0"/>
        <pt x="121" y="-34" on="0"/>
        <pt x="87" y="-123" on="0"/>
        <pt x="61" y="-179" on="1"/>
      </contour>
    </TTGlyph>
    <TTGlyph name="J.sc" xMin="34" yMin="-142" xMax="142" yMax="577">
      <contour>
        <pt x="34" y="-125" on="1"/>
        <pt x="53" y="-90" on="0"/>
        <pt x="79" y="-27" on="0"/>
        <pt x="94" y="35" on="0"/>
        <pt x="101" y="102" on="0"/>
        <pt x="101" y="142" on="1"/>
        <pt x="101" y="577" on="1"/>
        <pt x="142" y="577" on="1"/>
        <pt x="142" y="141" on="1"/>
        <pt x="142" y="102" on="0"/>
        <pt x="135" y="37" on="0"/>
        <pt x="118" y="-27" on="0"/>
        <pt x="88" y="-97" on="0"/>
        <pt x="66" y="-142" on="1"/>
      </contour>
    </TTGlyph>
    <TTGlyph name="Jcircumflex" xMin="-24" yMin="-179" xMax="285" yMax="936">
      <contour>
        <pt x="28" y="-161" on="1"/>
        <pt x="50" y="-115" on="0"/>
        <pt x="80" y="-35" on="0"/>
        <pt x="98" y="45" on="0"/>
        <pt x="106" y="130" on="0"/>
        <pt x="106" y="181" on="1"/>
        <pt x="106" y="740" on="1"/>
        <pt x="149" y="740" on="1"/>
        <pt x="149" y="180" on="1"/>
        <pt x="149" y="130" on="0"/>
        <pt x="141" y="48" on="0"/>
        <pt x="121" y="-34" on="0"/>
        <pt x="87" y="-123" on="0"/>
        <pt x="61" y="-179" on="1"/>
      </contour>
      <contour>
        <pt x="-24" y="864" on="1"/>
        <pt x="130" y="936" on="1"/>
        <pt x="285" y="864" on="1"/>
        <pt x="285" y="818" on="1"/>
        <pt x="130" y="890" on="1"/>
        <pt x="-24" y="818" on="1"/>
      </contour>
    </TTGlyph>
    <TTGlyph name="Jcircumflex.sc" xMin="-12" yMin="-142" xMax="258" yMax="735">
      <contour>
        <pt x="33" y="-125" on="1"/>
        <pt x="52" y="-90" on="0"/>
        <pt x="78" y="-27" on="0"/>
        <pt x="93" y="35" on="0"/>
        <pt x="100" y="102" on="0"/>
        <pt x="100" y="142" on="1"/>
        <pt x="100" y="577" on="1"/>
        <pt x="141" y="577" on="1"/>
        <pt x="141" y="141" on="1"/>
        <pt x="141" y="102" on="0"/>
        <pt x="134" y="37" on="0"/>
        <pt x="117" y="-27" on="0"/>
        <pt x="87" y="-97" on="0"/>
        <pt x="65" y="-142" on="1"/>
      </contour>
      <contour>
        <pt x="-12" y="677" on="1"/>
        <pt x="123" y="735" on="1"/>
        <pt x="258" y="677" on="1"/>
        <pt x="258" y="637" on="1"/>
        <pt x="123" y="694" on="1"/>
        <pt x="-12" y="637" on="1"/>
      </contour>
    </TTGlyph>
    <TTGlyph name="K" xMin="104" yMin="0" xMax="651" yMax="740">
      <contour>
        <pt x="104" y="740" on="1"/>
        <pt x="147" y="740" on="1"/>
        <pt x="147" y="399" on="1"/>
        <pt x="332" y="399" on="1"/>
        <pt x="583" y="740" on="1"/>
        <pt x="634" y="740" on="1"/>
        <pt x="389" y="407" on="1"/>
        <pt x="365" y="383" on="1"/>
        <pt x="365" y="376" on="1"/>
        <pt x="392" y="352" on="1"/>
        <pt x="651" y="0" on="1"/>
        <pt x="600" y="0" on="1"/>
        <pt x="336" y="359" on="1"/>
        <pt x="147" y="359" on="1"/>
        <pt x="147" y="0" on="1"/>
        <pt x="104" y="0" on="1"/>
      </contour>
    </TTGlyph>
    <TTGlyph name="K.sc" xMin="99" yMin="0" xMax="575" yMax="577">
      <contour>
        <pt x="99" y="577" on="1"/>
        <pt x="140" y="577" on="1"/>
        <pt x="140" y="313" on="1"/>
        <pt x="299" y="313" on="1"/>
        <pt x="510" y="577" on="1"/>
        <pt x="560" y="577" on="1"/>
        <pt x="353" y="318" on="1"/>
        <pt x="331" y="300" on="1"/>
        <pt x="331" y="294" on="1"/>
        <pt x="355" y="275" on="1"/>
        <pt x="575" y="0" on="1"/>
        <pt x="524" y="0" on="1"/>
        <pt x="303" y="276" on="1"/>
        <pt x="140" y="276" on="1"/>
        <pt x="140" y="0" on="1"/>
        <pt x="99" y="0" on="1"/>
      </contour>
    </TTGlyph>
    <TTGlyph name="Kcommaaccent" xMin="104" yMin="-220" xMax="651" yMax="740">
      <contour>
        <pt x="336" y="-70" on="1"/>
        <pt x="382" y="-70" on="1"/>
        <pt x="326" y="-220" on="1"/>
        <pt x="286" y="-220" on="1"/>
      </contour>
      <contour>
        <pt x="104" y="740" on="1"/>
        <pt x="147" y="740" on="1"/>
        <pt x="147" y="399" on="1"/>
        <pt x="332" y="399" on="1"/>
        <pt x="583" y="740" on="1"/>
        <pt x="634" y="740" on="1"/>
        <pt x="389" y="407" on="1"/>
        <pt x="365" y="383" on="1"/>
        <pt x="365" y="376" on="1"/>
        <pt x="392" y="352" on="1"/>
        <pt x="651" y="0" on="1"/>
        <pt x="600" y="0" on="1"/>
        <pt x="336" y="359" on="1"/>
        <pt x="147" y="359" on="1"/>
        <pt x="147" y="0" on="1"/>
        <pt x="104" y="0" on="1"/>
      </contour>
    </TTGlyph>
    <TTGlyph name="Kcommaaccent.sc" xMin="99" yMin="-172" xMax="575" yMax="577">
      <contour>
        <pt x="99" y="577" on="1"/>
        <pt x="140" y="577" on="1"/>
        <pt x="140" y="313" on="1"/>
        <pt x="299" y="313" on="1"/>
        <pt x="510" y="577" on="1"/>
        <pt x="560" y="577" on="1"/>
        <pt x="353" y="318" on="1"/>
        <pt x="331" y="300" on="1"/>
        <pt x="331" y="294" on="1"/>
        <pt x="355" y="275" on="1"/>
        <pt x="575" y="0" on="1"/>
        <pt x="524" y="0" on="1"/>
        <pt x="303" y="276" on="1"/>
        <pt x="140" y="276" on="1"/>
        <pt x="140" y="0" on="1"/>
        <pt x="99" y="0" on="1"/>
      </contour>
      <contour>
        <pt x="299" y="-55" on="1"/>
        <pt x="344" y="-55" on="1"/>
        <pt x="295" y="-172" on="1"/>
        <pt x="256" y="-172" on="1"/>
      </contour>
    </TTGlyph>
    <TTGlyph name="L" xMin="104" yMin="0" xMax="526" yMax="740">
      <contour>
        <pt x="104" y="740" on="1"/>
        <pt x="147" y="740" on="1"/>
        <pt x="147" y="40" on="1"/>
        <pt x="526" y="40" on="1"/>
        <pt x="526" y="0" on="1"/>
        <pt x="104" y="0" on="1"/>
      </contour>
    </TTGlyph>
    <TTGlyph name="L.sc" xMin="99" yMin="0" xMax="467" yMax="577">
      <contour>
        <pt x="99" y="577" on="1"/>
        <pt x="140" y="577" on="1"/>
        <pt x="140" y="37" on="1"/>
        <pt x="467" y="37" on="1"/>
        <pt x="467" y="0" on="1"/>
        <pt x="99" y="0" on="1"/>
      </contour>
    </TTGlyph>
    <TTGlyph name="Lacute" xMin="103" yMin="0" xMax="526" yMax="933">
      <contour>
        <pt x="103" y="810" on="1"/>
        <pt x="182" y="933" on="1"/>
        <pt x="228" y="933" on="1"/>
        <pt x="141" y="804" on="1"/>
      </contour>
      <contour>
        <pt x="104" y="740" on="1"/>
        <pt x="147" y="740" on="1"/>
        <pt x="147" y="40" on="1"/>
        <pt x="526" y="40" on="1"/>
        <pt x="526" y="0" on="1"/>
        <pt x="104" y="0" on="1"/>
      </contour>
    </TTGlyph>
    <TTGlyph name="Lacute.sc" xMin="98" yMin="0" xMax="468" yMax="732">
      <contour>
        <pt x="99" y="577" on="1"/>
        <pt x="140" y="577" on="1"/>
        <pt x="140" y="37" on="1"/>
        <pt x="468" y="37" on="1"/>
        <pt x="468" y="0" on="1"/>
        <pt x="99" y="0" on="1"/>
      </contour>
      <contour>
        <pt x="98" y="633" on="1"/>
        <pt x="165" y="732" on="1"/>
        <pt x="209" y="732" on="1"/>
        <pt x="134" y="628" on="1"/>
      </contour>
    </TTGlyph>
    <TTGlyph name="Lcaron" xMin="104" yMin="0" xMax="526" yMax="743">
      <contour>
        <pt x="413" y="743" on="1"/>
        <pt x="453" y="743" on="1"/>
        <pt x="432" y="515" on="1"/>
        <pt x="413" y="515" on="1"/>
      </contour>
      <contour>
        <pt x="104" y="740" on="1"/>
        <pt x="147" y="740" on="1"/>
        <pt x="147" y="40" on="1"/>
        <pt x="526" y="40" on="1"/>
        <pt x="526" y="0" on="1"/>
        <pt x="104" y="0" on="1"/>
      </contour>
    </TTGlyph>
    <TTGlyph name="Lcaron.sc" xMin="99" yMin="0" xMax="467" yMax="583">
      <contour>
        <pt x="99" y="577" on="1"/>
        <pt x="140" y="577" on="1"/>
        <pt x="140" y="37" on="1"/>
        <pt x="467" y="37" on="1"/>
        <pt x="467" y="0" on="1"/>
        <pt x="99" y="0" on="1"/>
      </contour>
      <contour>
        <pt x="367" y="583" on="1"/>
        <pt x="406" y="583" on="1"/>
        <pt x="386" y="405" on="1"/>
        <pt x="367" y="405" on="1"/>
      </contour>
    </TTGlyph>
    <TTGlyph name="Lcommaaccent" xMin="104" yMin="-220" xMax="526" yMax="740">
      <contour>
        <pt x="304" y="-70" on="1"/>
        <pt x="350" y="-70" on="1"/>
        <pt x="294" y="-220" on="1"/>
        <pt x="254" y="-220" on="1"/>
      </contour>
      <contour>
        <pt x="104" y="740" on="1"/>
        <pt x="147" y="740" on="1"/>
        <pt x="147" y="40" on="1"/>
        <pt x="526" y="40" on="1"/>
        <pt x="526" y="0" on="1"/>
        <pt x="104" y="0" on="1"/>
      </contour>
    </TTGlyph>
    <TTGlyph name="Lcommaaccent.sc" xMin="99" yMin="-172" xMax="467" yMax="577">
      <contour>
        <pt x="99" y="577" on="1"/>
        <pt x="140" y="577" on="1"/>
        <pt x="140" y="37" on="1"/>
        <pt x="467" y="37" on="1"/>
        <pt x="467" y="0" on="1"/>
        <pt x="99" y="0" on="1"/>
      </contour>
      <contour>
        <pt x="269" y="-55" on="1"/>
        <pt x="315" y="-55" on="1"/>
        <pt x="265" y="-172" on="1"/>
        <pt x="226" y="-172" on="1"/>
      </contour>
    </TTGlyph>
    <TTGlyph name="Ldot" xMin="104" yMin="0" xMax="526" yMax="740">
      <contour>
        <pt x="104" y="740" on="1"/>
        <pt x="147" y="740" on="1"/>
        <pt x="147" y="40" on="1"/>
        <pt x="526" y="40" on="1"/>
        <pt x="526" y="0" on="1"/>
        <pt x="104" y="0" on="1"/>
      </contour>
      <contour>
        <pt x="450" y="335" on="1"/>
        <pt x="433" y="335" on="0"/>
        <pt x="413" y="352" on="0"/>
        <pt x="413" y="371" on="1"/>
        <pt x="413" y="390" on="0"/>
        <pt x="433" y="408" on="0"/>
        <pt x="450" y="408" on="1"/>
        <pt x="465" y="408" on="0"/>
        <pt x="487" y="391" on="0"/>
        <pt x="487" y="371" on="1"/>
        <pt x="487" y="351" on="0"/>
        <pt x="465" y="335" on="0"/>
      </contour>
    </TTGlyph>
    <TTGlyph name="Ldot.sc" xMin="99" yMin="0" xMax="467" yMax="577">
      <contour>
        <pt x="99" y="577" on="1"/>
        <pt x="140" y="577" on="1"/>
        <pt x="140" y="37" on="1"/>
        <pt x="467" y="37" on="1"/>
        <pt x="467" y="0" on="1"/>
        <pt x="99" y="0" on="1"/>
      </contour>
      <contour>
        <pt x="403" y="259" on="1"/>
        <pt x="369" y="259" on="0"/>
        <pt x="369" y="291" on="1"/>
        <pt x="369" y="324" on="0"/>
        <pt x="403" y="324" on="1"/>
        <pt x="417" y="324" on="0"/>
        <pt x="437" y="309" on="0"/>
        <pt x="437" y="291" on="1"/>
        <pt x="437" y="274" on="0"/>
        <pt x="417" y="259" on="0"/>
      </contour>
    </TTGlyph>
    <TTGlyph name="Lslash" xMin="18" yMin="0" xMax="548" yMax="740">
      <contour>
        <pt x="18" y="269" on="1"/>
        <pt x="126" y="338" on="1"/>
        <pt x="126" y="740" on="1"/>
        <pt x="169" y="740" on="1"/>
        <pt x="169" y="365" on="1"/>
        <pt x="365" y="490" on="1"/>
        <pt x="365" y="446" on="1"/>
        <pt x="169" y="321" on="1"/>
        <pt x="169" y="40" on="1"/>
        <pt x="548" y="40" on="1"/>
        <pt x="548" y="0" on="1"/>
        <pt x="126" y="0" on="1"/>
        <pt x="126" y="294" on="1"/>
        <pt x="18" y="225" on="1"/>
      </contour>
    </TTGlyph>
    <TTGlyph name="Lslash.sc" xMin="25" yMin="0" xMax="487" yMax="577">
      <contour>
        <pt x="25" y="216" on="1"/>
        <pt x="117" y="268" on="1"/>
        <pt x="117" y="577" on="1"/>
        <pt x="159" y="577" on="1"/>
        <pt x="159" y="289" on="1"/>
        <pt x="329" y="386" on="1"/>
        <pt x="329" y="347" on="1"/>
        <pt x="159" y="250" on="1"/>
        <pt x="159" y="37" on="1"/>
        <pt x="487" y="37" on="1"/>
        <pt x="487" y="0" on="1"/>
        <pt x="117" y="0" on="1"/>
        <pt x="117" y="228" on="1"/>
        <pt x="25" y="176" on="1"/>
      </contour>
    </TTGlyph>
    <TTGlyph name="M" xMin="104" yMin="0" xMax="831" yMax="740">
      <contour>
        <pt x="104" y="740" on="1"/>
        <pt x="165" y="740" on="1"/>
        <pt x="384" y="257" on="1"/>
        <pt x="465" y="71" on="1"/>
        <pt x="469" y="71" on="1"/>
        <pt x="551" y="257" on="1"/>
        <pt x="770" y="740" on="1"/>
        <pt x="831" y="740" on="1"/>
        <pt x="831" y="0" on="1"/>
        <pt x="790" y="0" on="1"/>
        <pt x="790" y="680" on="1"/>
        <pt x="786" y="680" on="1"/>
        <pt x="675" y="430" on="1"/>
        <pt x="490" y="26" on="1"/>
        <pt x="445" y="26" on="1"/>
        <pt x="260" y="430" on="1"/>
        <pt x="150" y="680" on="1"/>
        <pt x="145" y="680" on="1"/>
        <pt x="145" y="0" on="1"/>
        <pt x="104" y="0" on="1"/>
      </contour>
    </TTGlyph>
    <TTGlyph name="M.sc" xMin="99" yMin="0" xMax="729" yMax="577">
      <contour>
        <pt x="99" y="577" on="1"/>
        <pt x="157" y="577" on="1"/>
        <pt x="342" y="212" on="1"/>
        <pt x="411" y="66" on="1"/>
        <pt x="416" y="66" on="1"/>
        <pt x="486" y="212" on="1"/>
        <pt x="671" y="577" on="1"/>
        <pt x="729" y="577" on="1"/>
        <pt x="729" y="0" on="1"/>
        <pt x="689" y="0" on="1"/>
        <pt x="689" y="524" on="1"/>
        <pt x="685" y="524" on="1"/>
        <pt x="589" y="324" on="1"/>
        <pt x="436" y="23" on="1"/>
        <pt x="391" y="23" on="1"/>
        <pt x="238" y="324" on="1"/>
        <pt x="143" y="524" on="1"/>
        <pt x="138" y="524" on="1"/>
        <pt x="138" y="0" on="1"/>
        <pt x="99" y="0" on="1"/>
      </contour>
    </TTGlyph>
    <TTGlyph name="N" xMin="104" yMin="0" xMax="697" yMax="740">
      <contour>
        <pt x="104" y="740" on="1"/>
        <pt x="144" y="740" on="1"/>
        <pt x="586" y="159" on="1"/>
        <pt x="652" y="68" on="1"/>
        <pt x="656" y="68" on="1"/>
        <pt x="656" y="740" on="1"/>
        <pt x="697" y="740" on="1"/>
        <pt x="697" y="0" on="1"/>
        <pt x="656" y="0" on="1"/>
        <pt x="208" y="588" on="1"/>
        <pt x="150" y="670" on="1"/>
        <pt x="145" y="670" on="1"/>
        <pt x="145" y="0" on="1"/>
        <pt x="104" y="0" on="1"/>
      </contour>
    </TTGlyph>
    <TTGlyph name="N.sc" xMin="99" yMin="0" xMax="612" yMax="577">
      <contour>
        <pt x="99" y="577" on="1"/>
        <pt x="136" y="577" on="1"/>
        <pt x="511" y="136" on="1"/>
        <pt x="567" y="64" on="1"/>
        <pt x="571" y="64" on="1"/>
        <pt x="571" y="577" on="1"/>
        <pt x="612" y="577" on="1"/>
        <pt x="612" y="0" on="1"/>
        <pt x="573" y="0" on="1"/>
        <pt x="193" y="447" on="1"/>
        <pt x="143" y="512" on="1"/>
        <pt x="138" y="512" on="1"/>
        <pt x="138" y="0" on="1"/>
        <pt x="99" y="0" on="1"/>
      </contour>
    </TTGlyph>
    <TTGlyph name="Nacute" xMin="104" yMin="0" xMax="697" yMax="933">
      <contour>
        <pt x="372" y="810" on="1"/>
        <pt x="451" y="933" on="1"/>
        <pt x="497" y="933" on="1"/>
        <pt x="410" y="804" on="1"/>
      </contour>
      <contour>
        <pt x="104" y="740" on="1"/>
        <pt x="144" y="740" on="1"/>
        <pt x="586" y="159" on="1"/>
        <pt x="652" y="68" on="1"/>
        <pt x="656" y="68" on="1"/>
        <pt x="656" y="740" on="1"/>
        <pt x="697" y="740" on="1"/>
        <pt x="697" y="0" on="1"/>
        <pt x="656" y="0" on="1"/>
        <pt x="208" y="588" on="1"/>
        <pt x="150" y="670" on="1"/>
        <pt x="145" y="670" on="1"/>
        <pt x="145" y="0" on="1"/>
        <pt x="104" y="0" on="1"/>
      </contour>
    </TTGlyph>
    <TTGlyph name="Nacute.sc" xMin="99" yMin="0" xMax="612" yMax="732">
      <contour>
        <pt x="99" y="577" on="1"/>
        <pt x="136" y="577" on="1"/>
        <pt x="511" y="136" on="1"/>
        <pt x="567" y="64" on="1"/>
        <pt x="571" y="64" on="1"/>
        <pt x="571" y="577" on="1"/>
        <pt x="612" y="577" on="1"/>
        <pt x="612" y="0" on="1"/>
        <pt x="573" y="0" on="1"/>
        <pt x="193" y="447" on="1"/>
        <pt x="143" y="512" on="1"/>
        <pt x="138" y="512" on="1"/>
        <pt x="138" y="0" on="1"/>
        <pt x="99" y="0" on="1"/>
      </contour>
      <contour>
        <pt x="328" y="633" on="1"/>
        <pt x="395" y="732" on="1"/>
        <pt x="439" y="732" on="1"/>
        <pt x="364" y="628" on="1"/>
      </contour>
    </TTGlyph>
    <TTGlyph name="Ncaron" xMin="104" yMin="0" xMax="697" yMax="936">
      <contour>
        <pt x="245" y="936" on="1"/>
        <pt x="399" y="864" on="1"/>
        <pt x="554" y="936" on="1"/>
        <pt x="554" y="890" on="1"/>
        <pt x="399" y="818" on="1"/>
        <pt x="245" y="890" on="1"/>
      </contour>
      <contour>
        <pt x="104" y="740" on="1"/>
        <pt x="144" y="740" on="1"/>
        <pt x="586" y="159" on="1"/>
        <pt x="652" y="68" on="1"/>
        <pt x="656" y="68" on="1"/>
        <pt x="656" y="740" on="1"/>
        <pt x="697" y="740" on="1"/>
        <pt x="697" y="0" on="1"/>
        <pt x="656" y="0" on="1"/>
        <pt x="208" y="588" on="1"/>
        <pt x="150" y="670" on="1"/>
        <pt x="145" y="670" on="1"/>
        <pt x="145" y="0" on="1"/>
        <pt x="104" y="0" on="1"/>
      </contour>
    </TTGlyph>
    <TTGlyph name="Ncaron.sc" xMin="99" yMin="0" xMax="612" yMax="735">
      <contour>
        <pt x="99" y="577" on="1"/>
        <pt x="136" y="577" on="1"/>
        <pt x="511" y="136" on="1"/>
        <pt x="567" y="64" on="1"/>
        <pt x="571" y="64" on="1"/>
        <pt x="571" y="577" on="1"/>
        <pt x="612" y="577" on="1"/>
        <pt x="612" y="0" on="1"/>
        <pt x="573" y="0" on="1"/>
        <pt x="193" y="447" on="1"/>
        <pt x="143" y="512" on="1"/>
        <pt x="138" y="512" on="1"/>
        <pt x="138" y="0" on="1"/>
        <pt x="99" y="0" on="1"/>
      </contour>
      <contour>
        <pt x="218" y="695" on="1"/>
        <pt x="218" y="735" on="1"/>
        <pt x="354" y="678" on="1"/>
        <pt x="489" y="735" on="1"/>
        <pt x="489" y="695" on="1"/>
        <pt x="354" y="638" on="1"/>
      </contour>
    </TTGlyph>
    <TTGlyph name="Ncommaaccent" xMin="104" yMin="-220" xMax="697" yMax="740">
      <contour>
        <pt x="393" y="-70" on="1"/>
        <pt x="439" y="-70" on="1"/>
        <pt x="383" y="-220" on="1"/>
        <pt x="343" y="-220" on="1"/>
      </contour>
      <contour>
        <pt x="104" y="740" on="1"/>
        <pt x="144" y="740" on="1"/>
        <pt x="586" y="159" on="1"/>
        <pt x="652" y="68" on="1"/>
        <pt x="656" y="68" on="1"/>
        <pt x="656" y="740" on="1"/>
        <pt x="697" y="740" on="1"/>
        <pt x="697" y="0" on="1"/>
        <pt x="656" y="0" on="1"/>
        <pt x="208" y="588" on="1"/>
        <pt x="150" y="670" on="1"/>
        <pt x="145" y="670" on="1"/>
        <pt x="145" y="0" on="1"/>
        <pt x="104" y="0" on="1"/>
      </contour>
    </TTGlyph>
    <TTGlyph name="Ncommaaccent.sc" xMin="99" yMin="-172" xMax="612" yMax="577">
      <contour>
        <pt x="99" y="577" on="1"/>
        <pt x="136" y="577" on="1"/>
        <pt x="511" y="136" on="1"/>
        <pt x="567" y="64" on="1"/>
        <pt x="571" y="64" on="1"/>
        <pt x="571" y="577" on="1"/>
        <pt x="612" y="577" on="1"/>
        <pt x="612" y="0" on="1"/>
        <pt x="573" y="0" on="1"/>
        <pt x="193" y="447" on="1"/>
        <pt x="143" y="512" on="1"/>
        <pt x="138" y="512" on="1"/>
        <pt x="138" y="0" on="1"/>
        <pt x="99" y="0" on="1"/>
      </contour>
      <contour>
        <pt x="345" y="-55" on="1"/>
        <pt x="390" y="-55" on="1"/>
        <pt x="340" y="-172" on="1"/>
        <pt x="302" y="-172" on="1"/>
      </contour>
    </TTGlyph>
    <TTGlyph name="Ndotaccent" xMin="104" yMin="0" xMax="697" yMax="900">
      <contour>
        <pt x="400" y="827" on="1"/>
        <pt x="383" y="827" on="0"/>
        <pt x="363" y="844" on="0"/>
        <pt x="363" y="863" on="1"/>
        <pt x="363" y="882" on="0"/>
        <pt x="383" y="900" on="0"/>
        <pt x="400" y="900" on="1"/>
        <pt x="415" y="900" on="0"/>
        <pt x="437" y="883" on="0"/>
        <pt x="437" y="863" on="1"/>
        <pt x="437" y="843" on="0"/>
        <pt x="415" y="827" on="0"/>
      </contour>
      <contour>
        <pt x="104" y="740" on="1"/>
        <pt x="144" y="740" on="1"/>
        <pt x="586" y="159" on="1"/>
        <pt x="652" y="68" on="1"/>
        <pt x="656" y="68" on="1"/>
        <pt x="656" y="740" on="1"/>
        <pt x="697" y="740" on="1"/>
        <pt x="697" y="0" on="1"/>
        <pt x="656" y="0" on="1"/>
        <pt x="208" y="588" on="1"/>
        <pt x="150" y="670" on="1"/>
        <pt x="145" y="670" on="1"/>
        <pt x="145" y="0" on="1"/>
        <pt x="104" y="0" on="1"/>
      </contour>
    </TTGlyph>
    <TTGlyph name="Ndotaccent.sc" xMin="99" yMin="0" xMax="612" yMax="709">
      <contour>
        <pt x="99" y="577" on="1"/>
        <pt x="136" y="577" on="1"/>
        <pt x="511" y="136" on="1"/>
        <pt x="567" y="64" on="1"/>
        <pt x="571" y="64" on="1"/>
        <pt x="571" y="577" on="1"/>
        <pt x="612" y="577" on="1"/>
        <pt x="612" y="0" on="1"/>
        <pt x="573" y="0" on="1"/>
        <pt x="193" y="447" on="1"/>
        <pt x="143" y="512" on="1"/>
        <pt x="138" y="512" on="1"/>
        <pt x="138" y="0" on="1"/>
        <pt x="99" y="0" on="1"/>
      </contour>
      <contour>
        <pt x="354" y="645" on="1"/>
        <pt x="321" y="645" on="0"/>
        <pt x="321" y="677" on="1"/>
        <pt x="321" y="709" on="0"/>
        <pt x="354" y="709" on="1"/>
        <pt x="369" y="709" on="0"/>
        <pt x="389" y="694" on="0"/>
        <pt x="389" y="677" on="1"/>
        <pt x="389" y="660" on="0"/>
        <pt x="369" y="645" on="0"/>
      </contour>
    </TTGlyph>
    <TTGlyph name="Ntilde" xMin="104" yMin="0" xMax="697" yMax="918">
      <contour>
        <pt x="213" y="868" on="1"/>
        <pt x="267" y="918" on="0"/>
        <pt x="328" y="918" on="1"/>
        <pt x="352" y="918" on="0"/>
        <pt x="393" y="905" on="0"/>
        <pt x="432" y="888" on="0"/>
        <pt x="470" y="875" on="0"/>
        <pt x="492" y="875" on="1"/>
        <pt x="543" y="875" on="0"/>
        <pt x="590" y="913" on="1"/>
        <pt x="614" y="889" on="1"/>
        <pt x="588" y="865" on="0"/>
        <pt x="524" y="837" on="0"/>
        <pt x="489" y="837" on="1"/>
        <pt x="468" y="837" on="0"/>
        <pt x="428" y="850" on="0"/>
        <pt x="388" y="867" on="0"/>
        <pt x="348" y="880" on="0"/>
        <pt x="329" y="880" on="1"/>
        <pt x="306" y="880" on="0"/>
        <pt x="260" y="863" on="0"/>
        <pt x="237" y="843" on="1"/>
      </contour>
      <contour>
        <pt x="104" y="740" on="1"/>
        <pt x="144" y="740" on="1"/>
        <pt x="586" y="159" on="1"/>
        <pt x="652" y="68" on="1"/>
        <pt x="656" y="68" on="1"/>
        <pt x="656" y="740" on="1"/>
        <pt x="697" y="740" on="1"/>
        <pt x="697" y="0" on="1"/>
        <pt x="656" y="0" on="1"/>
        <pt x="208" y="588" on="1"/>
        <pt x="150" y="670" on="1"/>
        <pt x="145" y="670" on="1"/>
        <pt x="145" y="0" on="1"/>
        <pt x="104" y="0" on="1"/>
      </contour>
    </TTGlyph>
</ttFont>
